<svg width="24" height="24" viewBox="0 0 24 24" fill="none" xmlns="http://www.w3.org/2000/svg">
<path d="M22.1473 9.65625H16.1473C16.0441 9.65625 15.9598 9.74062 15.9598 9.84375V10.9688C15.9598 11.0719 16.0441 11.1562 16.1473 11.1562H22.1473C22.2504 11.1562 22.3348 11.0719 22.3348 10.9688V9.84375C22.3348 9.74062 22.2504 9.65625 22.1473 9.65625ZM19.0066 12.8438H16.1473C16.0441 12.8438 15.9598 12.9281 15.9598 13.0312V14.1562C15.9598 14.2594 16.0441 14.3438 16.1473 14.3438H19.0066C19.1098 14.3438 19.1941 14.2594 19.1941 14.1562V13.0312C19.1941 12.9281 19.1098 12.8438 19.0066 12.8438ZM11.1855 7.55859H10.1707C10.0254 7.55859 9.9082 7.67578 9.9082 7.82109V13.6336C9.9082 13.718 9.94805 13.7953 10.016 13.8445L13.5059 16.3898C13.623 16.4742 13.7871 16.4508 13.8715 16.3336L14.4738 15.5109V15.5086C14.5582 15.3914 14.5324 15.2273 14.4152 15.143L11.4457 12.9961V7.82109C11.448 7.67578 11.3285 7.55859 11.1855 7.55859Z" fill="#3A3A3A"/>
<path d="M18.8615 15.7947H17.5069C17.3756 15.7947 17.2514 15.8627 17.1811 15.9752C16.8834 16.4462 16.5365 16.8822 16.1381 17.2806C15.4514 17.9673 14.6522 18.5064 13.7639 18.8814C12.8428 19.2705 11.8654 19.4673 10.8576 19.4673C9.84748 19.4673 8.87013 19.2705 7.95138 18.8814C7.0631 18.5064 6.26388 17.9673 5.57716 17.2806C4.89045 16.5939 4.35138 15.7947 3.97638 14.9064C3.58732 13.9877 3.39045 13.0103 3.39045 12.0002C3.39045 10.99 3.58732 10.015 3.97638 9.09391C4.35138 8.20563 4.89045 7.40641 5.57716 6.71969C6.26388 6.03297 7.0631 5.49391 7.95138 5.11891C8.87013 4.72984 9.84982 4.53297 10.8576 4.53297C11.8678 4.53297 12.8451 4.72984 13.7639 5.11891C14.6522 5.49391 15.4514 6.03297 16.1381 6.71969C16.5365 7.11813 16.8834 7.55406 17.1811 8.02516C17.2514 8.13766 17.3756 8.20563 17.5069 8.20563H18.8615C19.0233 8.20563 19.1264 8.03688 19.0537 7.89391C17.5256 4.85406 14.4272 2.87828 10.9678 2.83844C5.90295 2.77516 1.69591 6.92125 1.68654 11.9814C1.67716 17.0509 5.78576 21.1642 10.8553 21.1642C14.3592 21.1642 17.5092 19.1814 19.0537 16.1064C19.1264 15.9634 19.0209 15.7947 18.8615 15.7947Z" fill="#3A3A3A"/>
</svg>
