<svg width="56" height="56" viewBox="0 0 56 56" fill="none" xmlns="http://www.w3.org/2000/svg">
<rect x="1" y="1" width="54" height="54" rx="27" stroke="#888888" stroke-width="2"/>
<path d="M37.8055 26.0415H37V26H28V30H33.6515C32.827 32.3285 30.6115 34 28 34C24.6865 34 22 31.3135 22 28C22 24.6865 24.6865 22 28 22C29.5295 22 30.921 22.577 31.9805 23.5195L34.809 20.691C33.023 19.0265 30.634 18 28 18C22.4775 18 18 22.4775 18 28C18 33.5225 22.4775 38 28 38C33.5225 38 38 33.5225 38 28C38 27.3295 37.931 26.675 37.8055 26.0415Z" fill="#FFC107"/>
<path d="M19.1523 23.3455L22.4378 25.755C23.3268 23.554 25.4798 22 27.9993 22C29.5288 22 30.9203 22.577 31.9798 23.5195L34.8083 20.691C33.0223 19.0265 30.6333 18 27.9993 18C24.1583 18 20.8273 20.1685 19.1523 23.3455Z" fill="#FF3D00"/>
<path d="M28.0002 38C30.5832 38 32.9302 37.0115 34.7047 35.404L31.6097 32.785C30.5719 33.5742 29.3039 34.0011 28.0002 34C25.3992 34 23.1907 32.3415 22.3587 30.027L19.0977 32.5395C20.7527 35.778 24.1137 38 28.0002 38Z" fill="#4CAF50"/>
<path d="M37.8055 26.0415H37V26H28V30H33.6515C33.2571 31.1082 32.5467 32.0766 31.608 32.7855L31.6095 32.7845L34.7045 35.4035C34.4855 35.6025 38 33 38 28C38 27.3295 37.931 26.675 37.8055 26.0415Z" fill="#1976D2"/>
</svg>
