<svg width="54" height="67" viewBox="0 0 54 67" fill="none" xmlns="http://www.w3.org/2000/svg">
<path fill-rule="evenodd" clip-rule="evenodd" d="M52.1317 21.9477C51.4248 22.5656 50.7562 23.1163 50.1267 23.7082C48.4363 25.2972 47.0583 27.1255 46.1835 29.2801C45.2566 31.5643 44.9427 33.9481 45.211 36.4147C45.496 39.0324 46.3543 41.4144 47.9433 43.5219C49.2837 45.2999 50.958 46.7009 52.8517 47.8512C53.9239 48.5022 53.9443 48.5051 53.459 49.6697C52.7984 51.2553 52.1627 52.8552 51.4164 54.4004C50.2001 56.9196 48.6213 59.2121 46.7966 61.3324C45.5956 62.7276 44.3044 64.0264 42.7451 65.0282C41.0222 66.1347 39.1763 66.5905 37.1753 65.9482C35.7586 65.4935 34.3507 65.003 32.9643 64.4621C30.0962 63.3436 27.2161 63.0728 24.2839 64.1841C22.7077 64.7815 21.1505 65.4369 19.5502 65.9598C17.7671 66.5427 16.0015 66.4335 14.3206 65.5051C12.555 64.53 11.1573 63.1407 9.87311 61.6196C8.0703 59.4833 6.52369 57.1684 5.17888 54.7237C3.88225 52.3669 2.81371 49.9083 2.02727 47.3278C1.23754 44.7349 0.714212 42.0972 0.441237 39.3981C0.216069 37.1683 0.134318 34.9385 0.352552 32.716C0.67151 29.4619 1.45723 26.3278 3.17391 23.4929C5.10152 20.3103 7.72033 17.909 11.2431 16.62C13.6451 15.7412 16.1606 15.4788 18.7017 15.7204C20.4954 15.8908 22.1665 16.5371 23.7988 17.2886C24.6298 17.6706 25.4801 18.0305 26.3538 18.2962C27.6376 18.687 28.8857 18.3739 30.1006 17.9126C31.5078 17.3783 32.8931 16.7773 34.323 16.3138C36.1448 15.7233 38.0443 15.5288 39.9536 15.616C41.49 15.6865 43.0045 15.9251 44.4847 16.4029C46.9973 17.2141 49.1071 18.6224 50.8982 20.5351C51.312 20.9763 51.6952 21.446 52.1317 21.9477Z" fill="white"/>
<path fill-rule="evenodd" clip-rule="evenodd" d="M37.5541 0.592154C37.5541 1.71215 37.6494 2.81537 37.5373 3.89741C37.1012 8.11502 34.9977 11.4064 31.7085 13.9803C29.8221 15.4569 27.6555 16.2189 25.2564 16.3181C24.9235 16.332 24.8381 16.1744 24.8068 15.8842C24.4342 12.4509 25.4246 9.40472 27.4424 6.66037C28.5335 5.1758 29.8032 3.86384 31.3195 2.79749C33.1183 1.5326 35.732 0.580111 37.5541 0.592154Z" fill="white"/>
</svg>
