<svg width="33" height="33" viewBox="0 0 33 33" fill="none" xmlns="http://www.w3.org/2000/svg">
<path d="M21.0037 16.0246H18.3872C18.3872 20.2094 18.3872 25.3605 18.3872 25.3605H14.51C14.51 25.3605 14.51 20.2594 14.51 16.0246H12.667V12.725H14.51V10.5908C14.51 9.06227 15.2356 6.67383 18.4228 6.67383L21.2958 6.68485V9.88782C21.2958 9.88782 19.55 9.88782 19.2105 9.88782C18.8711 9.88782 18.3885 10.0577 18.3885 10.7867V12.7257H21.3425L21.0037 16.0246Z" fill="white"/>
<mask id="mask0" mask-type="alpha" maskUnits="userSpaceOnUse" x="12" y="6" width="10" height="20">
<path d="M21.0037 16.0246H18.3872C18.3872 20.2094 18.3872 25.3605 18.3872 25.3605H14.51C14.51 25.3605 14.51 20.2594 14.51 16.0246H12.667V12.725H14.51V10.5908C14.51 9.06227 15.2356 6.67383 18.4228 6.67383L21.2958 6.68485V9.88782C21.2958 9.88782 19.55 9.88782 19.2105 9.88782C18.8711 9.88782 18.3885 10.0577 18.3885 10.7867V12.7257H21.3425L21.0037 16.0246Z" fill="white"/>
</mask>
<g mask="url(#mask0)">
<rect x="0.666992" width="32" height="32.0343" fill="white"/>
</g>
</svg>
