<svg width="162" height="216" viewBox="0 0 162 216" fill="none" xmlns="http://www.w3.org/2000/svg">
<path d="M81.0254 74.25C81.0254 79.6206 78.8919 84.7713 75.0943 88.5689C71.2967 92.3665 66.146 94.5 60.7754 94.5C55.4048 94.5 50.2541 92.3665 46.4565 88.5689C42.6589 84.7713 40.5254 79.6206 40.5254 74.25C40.5254 68.8794 42.6589 63.7287 46.4565 59.9311C50.2541 56.1335 55.4048 54 60.7754 54C66.146 54 71.2967 56.1335 75.0943 59.9311C78.8919 63.7287 81.0254 68.8794 81.0254 74.25Z" fill="#C4C4C4"/>
<path d="M135 0H27C19.8392 0 12.9716 2.84464 7.90812 7.90812C2.84463 12.9716 0 19.8392 0 27V189C0 196.161 2.84463 203.028 7.90812 208.092C12.9716 213.155 19.8392 216 27 216H135C142.161 216 149.028 213.155 154.092 208.092C159.155 203.028 162 196.161 162 189V27C162 19.8392 159.155 12.9716 154.092 7.90812C149.028 2.84464 142.161 0 135 0V0ZM13.5 27C13.5 23.4196 14.9223 19.9858 17.4541 17.4541C19.9858 14.9223 23.4196 13.5 27 13.5H135C138.58 13.5 142.014 14.9223 144.546 17.4541C147.078 19.9858 148.5 23.4196 148.5 27V135L120.38 106.88C119.686 106.187 118.851 105.654 117.931 105.318C117.011 104.981 116.029 104.848 115.053 104.929C114.076 105.01 113.129 105.303 112.278 105.786C111.426 106.27 110.689 106.933 110.119 107.73L81 148.5L51.7725 130.95C50.4802 130.176 48.9663 129.857 47.4716 130.043C45.9769 130.229 44.5873 130.909 43.524 131.976L13.5 162V27Z" fill="#C4C4C4"/>
</svg>
