<svg width="33" height="33" viewBox="0 0 33 33" fill="none" xmlns="http://www.w3.org/2000/svg">
<path fill-rule="evenodd" clip-rule="evenodd" d="M25.666 21.7488V14.0991V10.2849C25.666 8.29309 24.0478 6.67383 22.0581 6.67383H10.6072C8.61753 6.67383 7 8.29309 7 10.2849V14.0991V21.7488C7 23.7413 8.61753 25.3605 10.6072 25.3605H22.0588C24.0478 25.3605 25.666 23.7413 25.666 21.7488ZM19.619 16.0162C19.619 17.83 18.1429 19.305 16.3323 19.305C14.5211 19.305 13.0464 17.8294 13.0484 16.0156C13.049 15.2996 13.2811 14.6385 13.6697 14.0985C14.268 13.27 15.2377 12.7274 16.3343 12.7274C17.4303 12.7274 18.4007 13.2707 18.9976 14.0992C19.385 14.6391 19.619 15.3002 19.619 16.0162ZM23.5064 11.9929V9.23608V8.82581L23.0946 8.82713L20.3421 8.83573L20.3527 12.0034L23.5064 11.9929ZM16.333 21.1267C19.1483 21.1267 21.4381 18.8332 21.4381 16.0162C21.4381 15.3386 21.3013 14.6907 21.0587 14.0991H23.8462V21.7488C23.8462 22.7374 23.0431 23.5381 22.0575 23.5381H10.6066C9.61964 23.5381 8.81782 22.7374 8.81782 21.7488V14.0991H11.604C11.3634 14.6907 11.2286 15.3386 11.2286 16.0162C11.2286 18.8332 13.5177 21.1267 16.333 21.1267Z" fill="white"/>
<mask id="mask0" mask-type="alpha" maskUnits="userSpaceOnUse" x="7" y="6" width="19" height="20">
<path fill-rule="evenodd" clip-rule="evenodd" d="M25.666 21.7488V14.0991V10.2849C25.666 8.29309 24.0478 6.67383 22.0581 6.67383H10.6072C8.61753 6.67383 7 8.29309 7 10.2849V14.0991V21.7488C7 23.7413 8.61753 25.3605 10.6072 25.3605H22.0588C24.0478 25.3605 25.666 23.7413 25.666 21.7488ZM19.619 16.0162C19.619 17.83 18.1429 19.305 16.3323 19.305C14.5211 19.305 13.0464 17.8294 13.0484 16.0156C13.049 15.2996 13.2811 14.6385 13.6697 14.0985C14.268 13.27 15.2377 12.7274 16.3343 12.7274C17.4303 12.7274 18.4007 13.2707 18.9976 14.0992C19.385 14.6391 19.619 15.3002 19.619 16.0162ZM23.5064 11.9929V9.23608V8.82581L23.0946 8.82713L20.3421 8.83573L20.3527 12.0034L23.5064 11.9929ZM16.333 21.1267C19.1483 21.1267 21.4381 18.8332 21.4381 16.0162C21.4381 15.3386 21.3013 14.6907 21.0587 14.0991H23.8462V21.7488C23.8462 22.7374 23.0431 23.5381 22.0575 23.5381H10.6066C9.61964 23.5381 8.81782 22.7374 8.81782 21.7488V14.0991H11.604C11.3634 14.6907 11.2286 15.3386 11.2286 16.0162C11.2286 18.8332 13.5177 21.1267 16.333 21.1267Z" fill="white"/>
</mask>
<g mask="url(#mask0)">
<rect x="0.333008" width="32" height="32.0343" fill="white"/>
</g>
</svg>
