<svg width="12" height="8" viewBox="0 0 12 8" fill="none" xmlns="http://www.w3.org/2000/svg">
<path fill-rule="evenodd" clip-rule="evenodd" d="M0.834132 0.666687C0.669341 0.666722 0.508259 0.715615 0.37125 0.807185C0.234242 0.898756 0.127459 1.02889 0.0644009 1.18114C0.0013425 1.33339 -0.0151602 1.50092 0.0169794 1.66255C0.049119 1.82417 0.128458 1.97264 0.244966 2.08919L5.24497 7.08919C5.40124 7.24541 5.61316 7.33317 5.83413 7.33317C6.0551 7.33317 6.26703 7.24541 6.4233 7.08919L11.4233 2.08919C11.5398 1.97264 11.6191 1.82417 11.6513 1.66255C11.6834 1.50092 11.6669 1.33339 11.6039 1.18114C11.5408 1.02889 11.434 0.898756 11.297 0.807185C11.16 0.715615 10.9989 0.666722 10.8341 0.666687H0.834132Z" fill="#3A3A3A"/>
</svg>
