<svg width="24" height="24" viewBox="0 0 24 24" fill="none" xmlns="http://www.w3.org/2000/svg">
<path d="M21.6004 8.84766V17.4001C21.6004 18.1957 21.2843 18.9588 20.7217 19.5214C20.1591 20.084 19.396 20.4001 18.6004 20.4001H5.40039C4.60474 20.4001 3.84168 20.084 3.27907 19.5214C2.71646 18.9588 2.40039 18.1957 2.40039 17.4001V8.84766L11.6956 14.3173C11.7879 14.3717 11.8932 14.4004 12.0004 14.4004C12.1076 14.4004 12.2128 14.3717 12.3052 14.3173L21.6004 8.84766Z" fill="#3A3A3A"/>
<path d="M20.6006 5.56389C20.0504 5.07173 19.3381 4.79969 18.6 4.7998H5.39997C4.66179 4.79969 3.94949 5.07173 3.39932 5.56389C2.84916 6.05605 2.49976 6.73377 2.41797 7.4674L12 13.1038L21.582 7.4674C21.5002 6.73377 21.1508 6.05605 20.6006 5.56389Z" fill="#FF516C"/>
</svg>
