<svg width="29" height="30" viewBox="0 0 29 30" fill="none" xmlns="http://www.w3.org/2000/svg">
<ellipse cx="14.5002" cy="15" rx="14.5" ry="15" fill="black"/>
<path d="M21.2231 12.1479C21.2155 11.5594 21.109 10.9768 20.9084 10.4261C20.7344 9.96159 20.4687 9.53972 20.1281 9.18746C19.7876 8.8352 19.3798 8.56029 18.9308 8.3803C18.4053 8.17623 17.8501 8.06588 17.2889 8.05396C16.5663 8.02055 16.3373 8.01123 14.5031 8.01123C12.6689 8.01123 12.4339 8.01123 11.7166 8.05396C11.1556 8.06597 10.6007 8.17632 10.0754 8.3803C9.62633 8.56016 9.21847 8.83503 8.87793 9.1873C8.5374 9.53958 8.27169 9.96152 8.09783 10.4261C7.90016 10.9693 7.79373 11.5435 7.78312 12.1238C7.75082 12.8721 7.74106 13.109 7.74106 15.0065C7.74106 16.9039 7.74106 17.1463 7.78312 17.8891C7.79439 18.4703 7.90029 19.0437 8.09783 19.5884C8.27199 20.0528 8.53789 20.4746 8.87853 20.8267C9.21918 21.1788 9.62709 21.4536 10.0762 21.6334C10.6 21.8457 11.155 21.9639 11.7173 21.983C12.4406 22.0164 12.6697 22.0265 14.5039 22.0265C16.338 22.0265 16.5731 22.0265 17.2904 21.983C17.8516 21.9716 18.4068 21.8615 18.9323 21.6575C19.3812 21.4773 19.7889 21.2023 20.1294 20.8501C20.4699 20.4978 20.7357 20.0761 20.9099 19.6117C21.1074 19.0678 21.2133 18.4944 21.2246 17.9124C21.2569 17.1649 21.2667 16.9279 21.2667 15.0298C21.2652 13.1324 21.2652 12.8915 21.2231 12.1479ZM14.4986 18.5946C12.5803 18.5946 11.0263 16.987 11.0263 15.0026C11.0263 13.0181 12.5803 11.4106 14.4986 11.4106C15.4195 11.4106 16.3027 11.789 16.9539 12.4626C17.6051 13.1363 17.9709 14.0499 17.9709 15.0026C17.9709 15.9552 17.6051 16.8689 16.9539 17.5425C16.3027 18.2161 15.4195 18.5946 14.4986 18.5946ZM18.1091 12.1153C17.6607 12.1153 17.2994 11.7408 17.2994 11.2777C17.2994 11.1677 17.3203 11.0589 17.361 10.9573C17.4017 10.8557 17.4613 10.7634 17.5364 10.6857C17.6116 10.608 17.7008 10.5463 17.799 10.5042C17.8972 10.4621 18.0024 10.4405 18.1087 10.4405C18.215 10.4405 18.3202 10.4621 18.4184 10.5042C18.5166 10.5463 18.6058 10.608 18.681 10.6857C18.7561 10.7634 18.8157 10.8557 18.8564 10.9573C18.8971 11.0589 18.918 11.1677 18.918 11.2777C18.918 11.7408 18.556 12.1153 18.1091 12.1153Z" fill="white"/>
<path d="M14.4987 17.336C15.7444 17.336 16.7542 16.2914 16.7542 15.0027C16.7542 13.7141 15.7444 12.6694 14.4987 12.6694C13.253 12.6694 12.2432 13.7141 12.2432 15.0027C12.2432 16.2914 13.253 17.336 14.4987 17.336Z" fill="white"/>
</svg>
