<svg width="16" height="16" viewBox="0 0 16 16" fill="none" xmlns="http://www.w3.org/2000/svg">
<path d="M12.84 9.29339L10.6178 8.00005L12.7822 6.72894C12.9894 6.61492 13.1638 6.44965 13.2889 6.24894C13.4452 5.99493 13.5119 5.69582 13.4782 5.39944C13.4445 5.10307 13.3124 4.82655 13.1031 4.61411C12.8937 4.40166 12.6191 4.26556 12.3233 4.22756C12.0274 4.18956 11.7274 4.25186 11.4711 4.4045L9.33332 5.67117V3.11117C9.33332 2.75754 9.19285 2.4184 8.9428 2.16836C8.69275 1.91831 8.35361 1.77783 7.99999 1.77783C7.64637 1.77783 7.30723 1.91831 7.05718 2.16836C6.80713 2.4184 6.66665 2.75754 6.66665 3.11117V5.67117L4.5111 4.4045C4.35957 4.30233 4.18865 4.2324 4.00895 4.19906C3.82926 4.16572 3.64463 4.16967 3.46653 4.21068C3.28843 4.25169 3.12066 4.32887 2.97365 4.43744C2.82663 4.54601 2.7035 4.68364 2.61191 4.84179C2.52031 4.99994 2.46221 5.17524 2.44121 5.35678C2.4202 5.53833 2.43675 5.72226 2.48981 5.89715C2.54288 6.07204 2.63133 6.23415 2.74967 6.37341C2.86802 6.51268 3.01373 6.62613 3.17777 6.70672L5.39999 8.00005L3.19999 9.27117C2.99282 9.38519 2.81837 9.55046 2.69332 9.75117C2.53911 10.0052 2.47417 10.3034 2.50881 10.5985C2.54346 10.8937 2.67569 11.1688 2.88453 11.3802C3.09338 11.5916 3.36685 11.7271 3.66154 11.7654C3.95622 11.8036 4.25523 11.7423 4.5111 11.5912L6.66665 10.3289V12.8445C6.65615 13.1286 6.73674 13.4086 6.89665 13.6437C7.05656 13.8788 7.28743 14.0566 7.55554 14.1512C7.75706 14.2224 7.97276 14.2442 8.18445 14.2146C8.39613 14.185 8.59761 14.105 8.77189 13.9813C8.94618 13.8575 9.08816 13.6937 9.18586 13.5036C9.28357 13.3135 9.33415 13.1027 9.33332 12.8889V10.3289L11.4889 11.5956C11.6404 11.6978 11.8113 11.7677 11.991 11.8011C12.1707 11.8344 12.3553 11.8304 12.5334 11.7894C12.7115 11.7484 12.8793 11.6712 13.0263 11.5627C13.1733 11.4541 13.2965 11.3165 13.3881 11.1583C13.4797 11.0002 13.5378 10.8249 13.5588 10.6433C13.5798 10.4618 13.5632 10.2778 13.5102 10.103C13.4571 9.92807 13.3686 9.76596 13.2503 9.62669C13.132 9.48743 12.9862 9.37398 12.8222 9.29339H12.84Z" fill="#CBCBD4" fill-opacity="0.5"/>
</svg>
