<svg width="30" height="30" viewBox="0 0 30 30" fill="none" xmlns="http://www.w3.org/2000/svg">
<circle cx="15" cy="15" r="15" fill="black"/>
<path d="M22 10.4234C21.4484 10.664 20.8558 10.8265 20.2328 10.8999C20.8756 10.5215 21.3565 9.92574 21.5858 9.22397C20.9819 9.57697 20.3209 9.82545 19.6317 9.95859C19.1682 9.47158 18.5543 9.14877 17.8852 9.0403C17.2162 8.93183 16.5295 9.04376 15.9317 9.35871C15.334 9.67366 14.8586 10.174 14.5794 10.7821C14.3002 11.3902 14.2328 12.0719 14.3877 12.7215C13.164 12.6611 11.9669 12.3481 10.8741 11.8029C9.78135 11.2577 8.81726 10.4924 8.04444 9.55683C7.78019 10.0054 7.62825 10.5255 7.62825 11.0794C7.62795 11.578 7.75273 12.069 7.99151 12.5088C8.23029 12.9486 8.57568 13.3236 8.99705 13.6005C8.50837 13.5852 8.03048 13.4552 7.60314 13.2215V13.2605C7.6031 13.9598 7.84892 14.6377 8.2989 15.1789C8.74888 15.7202 9.3753 16.0916 10.0719 16.2302C9.61855 16.3509 9.14327 16.3687 8.68193 16.2822C8.87847 16.8839 9.26129 17.4101 9.77682 17.7871C10.2923 18.1641 10.9148 18.373 11.5569 18.3846C10.4668 19.2268 9.12051 19.6836 7.73461 19.6816C7.48911 19.6816 7.24382 19.6675 7 19.6393C8.40677 20.5294 10.0444 21.0018 11.7168 21C17.3783 21 20.4733 16.3855 20.4733 12.3835C20.4733 12.2535 20.47 12.1221 20.4641 11.9921C21.0661 11.5637 21.5857 11.0332 21.9987 10.4254L22 10.4234Z" fill="white"/>
</svg>
