<svg width="38" height="46" viewBox="0 0 38 46" fill="none" xmlns="http://www.w3.org/2000/svg">
<path d="M1.66699 5.66671V40.3334C1.66699 41.4826 2.12354 42.5848 2.9362 43.3975C3.74885 44.2102 4.85105 44.6667 6.00033 44.6667H32.0003C33.1496 44.6667 34.2518 44.2102 35.0645 43.3975C35.8771 42.5848 36.3337 41.4826 36.3337 40.3334V15.0744C36.3336 14.4971 36.2182 13.9256 35.9942 13.3936C35.7702 12.8615 35.4422 12.3796 35.0293 11.976L25.4093 2.56837C24.5998 1.7768 23.5126 1.33351 22.3803 1.33337H6.00033C4.85105 1.33337 3.74885 1.78992 2.9362 2.60258C2.12354 3.41524 1.66699 4.51744 1.66699 5.66671V5.66671Z" stroke="#EF5C50" stroke-width="2" stroke-linecap="round" stroke-linejoin="round"/>
<path d="M12.5 25.1667H25.5" stroke="#EF5C50" stroke-width="2" stroke-linecap="round" stroke-linejoin="round"/>
<path d="M12.5 33.8334H19" stroke="#EF5C50" stroke-width="2" stroke-linecap="round" stroke-linejoin="round"/>
<path d="M23.334 1.33337V10C23.334 11.1493 23.7905 12.2515 24.6032 13.0642C25.4158 13.8768 26.518 14.3334 27.6673 14.3334H36.334" stroke="#EF5C50" stroke-width="2" stroke-linejoin="round"/>
</svg>
