<svg width="32" height="33" viewBox="0 0 32 33" fill="none" xmlns="http://www.w3.org/2000/svg">
<path fill-rule="evenodd" clip-rule="evenodd" d="M24.6771 9.00118L24.6275 8.96807C23.6022 7.99137 22.3951 7.52785 21.006 7.59406L20.9564 7.49474L20.9895 7.47818C22.2462 7.19676 22.9904 6.89878 23.2219 6.5677C23.288 6.30283 23.2054 6.15384 22.9242 6.12073C22.2958 6.2035 21.7005 6.33594 21.1879 6.55114C21.8494 6.12073 22.0974 5.82276 21.9486 5.67377C21.3037 5.69032 20.5926 6.02141 19.865 6.68358C20.1296 6.22006 20.2453 5.95519 20.1792 5.92208C19.8154 6.15384 19.5177 6.41871 19.2531 6.70013C18.6909 7.3292 18.2444 7.90859 17.8971 8.43833L17.8806 8.47144C17.0042 9.91166 16.3758 11.3519 16.012 12.8252L15.8797 12.9411L15.8466 12.9576C15.3174 12.2955 14.6725 11.7326 13.9118 11.2857C13.0189 10.6897 11.9605 10.1434 10.7368 9.59713C9.4139 8.90185 8.0579 8.33901 6.7019 7.89204C6.68537 9.43159 7.44605 10.6401 8.9178 11.534V11.5505C8.40517 11.5505 7.89253 11.6333 7.39644 11.7823C7.49566 13.206 8.50439 14.1827 10.4061 14.7124L10.3896 14.7455C9.64541 14.6958 9.03355 14.9607 8.554 15.507C9.18238 16.732 10.2903 17.3114 11.8944 17.2783C11.5802 17.4439 11.3321 17.6094 11.1668 17.8081C10.8691 18.1226 10.7699 18.4868 10.8691 18.9006C11.2164 19.5297 11.8282 19.8111 12.7377 19.7615L12.7873 19.8277L12.7708 19.8608C11.1998 21.4831 9.29814 22.2115 7.08224 22.0625L7.04917 22.0791C5.69318 22.0625 4.23796 21.4169 2.66699 20.1257C4.23796 22.3936 6.3381 24.0325 8.93434 25.0754C11.8944 26.0521 14.8709 26.1349 17.831 25.2906H17.8806C20.758 24.4629 23.1888 22.7412 25.2063 20.1588C26.1323 18.8179 26.7111 17.5266 26.9426 16.2851C28.4474 16.3347 29.5223 15.9043 30.2003 14.9773L30.1838 14.9442C29.6711 15.1263 28.6955 15.0766 27.2568 14.7786V14.6131C28.8443 14.431 29.7869 13.9178 30.0846 13.0735C28.9766 13.5039 27.8852 13.5205 26.8103 13.1066C26.6119 11.6168 25.9008 10.2427 24.6771 9.00118Z" fill="white"/>
<mask id="mask0" mask-type="alpha" maskUnits="userSpaceOnUse" x="2" y="5" width="29" height="21">
<path fill-rule="evenodd" clip-rule="evenodd" d="M24.6771 9.00118L24.6275 8.96807C23.6022 7.99137 22.3951 7.52785 21.006 7.59406L20.9564 7.49474L20.9895 7.47818C22.2462 7.19676 22.9904 6.89878 23.2219 6.5677C23.288 6.30283 23.2054 6.15384 22.9242 6.12073C22.2958 6.2035 21.7005 6.33594 21.1879 6.55114C21.8494 6.12073 22.0974 5.82276 21.9486 5.67377C21.3037 5.69032 20.5926 6.02141 19.865 6.68358C20.1296 6.22006 20.2453 5.95519 20.1792 5.92208C19.8154 6.15384 19.5177 6.41871 19.2531 6.70013C18.6909 7.3292 18.2444 7.90859 17.8971 8.43833L17.8806 8.47144C17.0042 9.91166 16.3758 11.3519 16.012 12.8252L15.8797 12.9411L15.8466 12.9576C15.3174 12.2955 14.6725 11.7326 13.9118 11.2857C13.0189 10.6897 11.9605 10.1434 10.7368 9.59713C9.4139 8.90185 8.0579 8.33901 6.7019 7.89204C6.68537 9.43159 7.44605 10.6401 8.9178 11.534V11.5505C8.40517 11.5505 7.89253 11.6333 7.39644 11.7823C7.49566 13.206 8.50439 14.1827 10.4061 14.7124L10.3896 14.7455C9.64541 14.6958 9.03355 14.9607 8.554 15.507C9.18238 16.732 10.2903 17.3114 11.8944 17.2783C11.5802 17.4439 11.3321 17.6094 11.1668 17.8081C10.8691 18.1226 10.7699 18.4868 10.8691 18.9006C11.2164 19.5297 11.8282 19.8111 12.7377 19.7615L12.7873 19.8277L12.7708 19.8608C11.1998 21.4831 9.29814 22.2115 7.08224 22.0625L7.04917 22.0791C5.69318 22.0625 4.23796 21.4169 2.66699 20.1257C4.23796 22.3936 6.3381 24.0325 8.93434 25.0754C11.8944 26.0521 14.8709 26.1349 17.831 25.2906H17.8806C20.758 24.4629 23.1888 22.7412 25.2063 20.1588C26.1323 18.8179 26.7111 17.5266 26.9426 16.2851C28.4474 16.3347 29.5223 15.9043 30.2003 14.9773L30.1838 14.9442C29.6711 15.1263 28.6955 15.0766 27.2568 14.7786V14.6131C28.8443 14.431 29.7869 13.9178 30.0846 13.0735C28.9766 13.5039 27.8852 13.5205 26.8103 13.1066C26.6119 11.6168 25.9008 10.2427 24.6771 9.00118Z" fill="white"/>
</mask>
<g mask="url(#mask0)">
<rect y="0.334717" width="32" height="32.0343" fill="white"/>
</g>
</svg>
