<svg width="12" height="8" viewBox="0 0 12 8" fill="none" xmlns="http://www.w3.org/2000/svg">
<path fill-rule="evenodd" clip-rule="evenodd" d="M11.1659 7.33331C11.3307 7.33328 11.4917 7.28438 11.6287 7.19281C11.7658 7.10124 11.8725 6.97111 11.9356 6.81886C11.9987 6.66661 12.0152 6.49908 11.983 6.33745C11.9509 6.17583 11.8715 6.02736 11.755 5.91081L6.75503 0.910814C6.59876 0.754589 6.38684 0.666825 6.16587 0.666825C5.9449 0.666825 5.73297 0.754589 5.5767 0.910814L0.5767 5.91081C0.460193 6.02736 0.380855 6.17583 0.348715 6.33745C0.316575 6.49908 0.333078 6.66661 0.396136 6.81886C0.459194 6.97111 0.565977 7.10124 0.702986 7.19281C0.839994 7.28438 1.00108 7.33328 1.16587 7.33331L11.1659 7.33331Z" fill="#3A3A3A"/>
</svg>
