<svg width="30" height="30" viewBox="0 0 30 30" fill="none" xmlns="http://www.w3.org/2000/svg">
<circle cx="15" cy="15" r="15" fill="black"/>
<path d="M9.89839 9.79679C10.9468 9.79679 11.7968 8.94685 11.7968 7.89839C11.7968 6.84994 10.9468 6 9.89839 6C8.84994 6 8 6.84994 8 7.89839C8 8.94685 8.84994 9.79679 9.89839 9.79679Z" fill="white"/>
<path d="M13.5892 11.2351V21.7674H16.8593V16.559C16.8593 15.1846 17.1179 13.8537 18.8219 13.8537C20.5025 13.8537 20.5233 15.425 20.5233 16.6457V21.7683H23.7952V15.9924C23.7952 13.1552 23.1844 10.9749 19.8683 10.9749C18.2762 10.9749 17.209 11.8486 16.7725 12.6754H16.7283V11.2351H13.5892ZM8.26013 11.2351H11.5355V21.7674H8.26013V11.2351Z" fill="white"/>
</svg>
