<svg width="29" height="30" viewBox="0 0 29 30" fill="none" xmlns="http://www.w3.org/2000/svg">
<ellipse cx="14.5" cy="15" rx="14.5" ry="15" fill="black"/>
<path d="M21.9102 11.3442C21.8226 11.0212 21.6521 10.7287 21.4167 10.4979C21.1747 10.2599 20.878 10.0898 20.5547 10.0034C19.3449 9.67347 14.4977 9.67347 14.4977 9.67347C12.477 9.64969 10.4567 9.75429 8.44841 9.9867C8.12513 10.0795 7.82903 10.2535 7.58644 10.4932C7.34807 10.7304 7.17542 11.023 7.08523 11.3436C6.86857 12.551 6.7633 13.777 6.77084 15.005C6.76311 16.2319 6.86812 17.4575 7.08523 18.6664C7.17349 18.9857 7.3455 19.2769 7.5845 19.5122C7.82351 19.7474 8.12115 19.9174 8.44841 20.0073C9.67438 20.3366 14.4977 20.3366 14.4977 20.3366C16.521 20.3604 18.5438 20.2558 20.5547 20.0233C20.878 19.9369 21.1747 19.7667 21.4167 19.5288C21.6551 19.2936 21.8245 19.001 21.9096 18.6824C22.1319 17.4755 22.24 16.249 22.2323 15.0203C22.249 13.7865 22.1411 12.5542 21.9102 11.3436V11.3442ZM12.9567 17.2869V12.7238L16.9896 15.0057L12.9567 17.2869Z" fill="white"/>
</svg>
