<svg width="43" height="43" viewBox="0 0 43 43" fill="none" xmlns="http://www.w3.org/2000/svg">
<path d="M24.1588 17.0882L22.4794 15.4088C21.6337 14.5394 20.511 13.9925 19.3051 13.8623C18.0992 13.7321 16.8857 14.0269 15.8739 14.6958L12.3737 11.1957L11.1952 12.3742L14.6895 15.8684C14.015 16.8798 13.7174 18.0961 13.8488 19.3047C13.9802 20.5132 14.5322 21.6371 15.4084 22.4799L17.0877 24.1593L24.1588 17.0882Z" fill="#F1F1F1"/>
<path d="M27.8299 26.6522C28.5005 25.6381 28.7951 24.4212 28.6627 23.2127C28.5303 22.0041 27.9793 20.8799 27.1051 20.0349L25.3374 18.2671L18.2663 25.3382L20.0341 27.106C20.8768 27.9821 22.0007 28.5341 23.2093 28.6655C24.4178 28.7969 25.6341 28.4994 26.6455 27.8249L30.0514 31.2308L31.2299 30.0522L27.8299 26.6522Z" fill="#F1F1F1"/>
</svg>
