<svg width="16" height="21" viewBox="0 0 16 21" fill="none" xmlns="http://www.w3.org/2000/svg">
<g clip-path="url(#clip0)">
<path d="M10.4382 18.3525L14.0119 14.5958H10.4382V18.3525ZM10.9905 4.42051L10.9772 4.69502C11.0454 4.58688 11.127 4.50369 11.2201 4.44879C11.3133 4.39389 11.4214 4.36727 11.5412 4.36727C11.7758 4.36727 11.9588 4.47541 12.0936 4.69502C12.1668 4.58688 12.25 4.50369 12.3431 4.44879C12.4363 4.39389 12.5378 4.36727 12.6509 4.36727C12.799 4.36727 12.9238 4.40387 13.0203 4.47541C13.1184 4.54695 13.18 4.63679 13.2083 4.7416C13.2349 4.84642 13.2499 5.01612 13.2499 5.25403V7.30207H12.3997V5.42373C12.3997 5.1775 12.3914 5.0261 12.3748 4.96621C12.3581 4.90798 12.3198 4.87803 12.2583 4.87803C12.1967 4.87803 12.1551 4.90631 12.1385 4.96454C12.1202 5.02277 12.1119 5.17583 12.1119 5.42207V7.30041H11.2617V5.47198C11.2617 5.18914 11.2551 5.01944 11.2418 4.96288C11.2284 4.90631 11.1902 4.87803 11.127 4.87803C11.087 4.87803 11.0554 4.893 11.0271 4.92295C10.9989 4.9529 10.9855 4.9895 10.9822 5.03275C10.9789 5.07435 10.9772 5.16585 10.9772 5.3056V7.30373H10.1271V4.42051H10.9905ZM9.68951 3.78496V4.24249H8.78611V3.78496H9.68951ZM9.68951 4.42051V7.30207H8.78611V4.42051H9.68951ZM7.21056 5.53686H6.38702V5.34387C6.38702 5.12093 6.41364 4.94791 6.46355 4.82645C6.51513 4.705 6.61828 4.59852 6.77301 4.50702C6.92773 4.41385 7.12904 4.36727 7.37694 4.36727C7.67308 4.36727 7.89768 4.42051 8.04742 4.52532C8.19715 4.63013 8.28866 4.75824 8.3186 4.9113C8.34855 5.06437 8.36519 5.37881 8.36519 5.8563V7.30373H7.5117V7.04586C7.45846 7.14901 7.38858 7.2272 7.30373 7.27878C7.21888 7.33035 7.11906 7.35697 7.00094 7.35697C6.84787 7.35697 6.70646 7.31372 6.57835 7.2272C6.45024 7.14069 6.38702 6.95269 6.38702 6.66154V6.42363C6.38702 6.20734 6.42196 6.06093 6.49017 5.98274C6.55839 5.90454 6.72809 5.81304 6.99761 5.70989C7.28543 5.59676 7.44016 5.52023 7.46012 5.48196C7.48009 5.44203 7.49007 5.36384 7.49007 5.24238C7.49007 5.09099 7.47842 4.99449 7.45513 4.94791C7.4335 4.90298 7.39524 4.87969 7.342 4.87969C7.2821 4.87969 7.2455 4.89966 7.23053 4.93792C7.21556 4.97619 7.2089 5.07601 7.2089 5.23573V5.53686H7.21056ZM7.49173 5.93283C7.35032 6.03598 7.26713 6.12249 7.2455 6.1907C7.22221 6.26058 7.21223 6.3604 7.21223 6.49017C7.21223 6.63991 7.22221 6.7364 7.24218 6.77966C7.26214 6.82292 7.30041 6.84455 7.35864 6.84455C7.41354 6.84455 7.45014 6.82791 7.46678 6.79297C7.48341 6.7597 7.49173 6.66986 7.49173 6.52511V5.93283ZM5.99438 3.78496V7.30373H5.09098V3.78496H5.99438ZM4.71831 5.51024H3.89144V5.1775C3.89144 5.06104 3.88146 4.98284 3.86316 4.94125C3.84319 4.89966 3.80826 4.87803 3.75668 4.87803C3.70511 4.87803 3.67017 4.89633 3.65187 4.93293C3.63357 4.96953 3.62525 5.04939 3.62525 5.17584V6.53676C3.62525 6.63991 3.63856 6.71644 3.66518 6.76802C3.6918 6.81959 3.73006 6.84455 3.78164 6.84455C3.84153 6.84455 3.88312 6.81793 3.90475 6.76469C3.92638 6.71145 3.93636 6.60996 3.93636 6.46189V6.12083H4.71997C4.71831 6.35042 4.70999 6.52345 4.69502 6.63825C4.68005 6.75304 4.6318 6.87117 4.54861 6.99262C4.46709 7.11407 4.35895 7.20391 4.22751 7.26547C4.09608 7.32703 3.93304 7.35697 3.73838 7.35697C3.49049 7.35697 3.29417 7.31538 3.14776 7.22887C3.00302 7.14402 2.89986 7.02589 2.83997 6.87283C2.78008 6.71977 2.75013 6.50348 2.75013 6.22065V5.4021C2.75013 5.15587 2.77509 4.97286 2.825 4.84808C2.87325 4.7233 2.97972 4.61183 3.1411 4.51367C3.30248 4.41551 3.49714 4.36727 3.7284 4.36727C3.95799 4.36727 4.15265 4.41551 4.31569 4.51367C4.47707 4.61017 4.58688 4.73328 4.64012 4.88136C4.69003 5.02943 4.71831 5.23906 4.71831 5.51024ZM2.90153 14.9785H6.34876V15.8985H2.90153V14.9785ZM2.90153 12.641H7.68972V13.561H2.90153V12.641ZM2.90153 10.3051H13.3464V11.2251H2.90153V10.3051ZM16 14.1167C16 14.3879 15.817 14.6224 15.5674 14.6907L10.3034 20.2259C10.1936 20.3623 10.0272 20.4455 9.84423 20.4455H1.06977C0.771966 20.4455 0.505771 20.3257 0.312779 20.1327C0.119788 19.938 0 19.6718 0 19.374V1.06977C0 0.771966 0.119788 0.505771 0.312779 0.312779C0.505771 0.119788 0.776957 0 1.06977 0H14.9302C15.223 0 15.4942 0.119788 15.6872 0.312779C15.8802 0.505771 16 0.771966 16 1.06977V14.1167ZM14.8054 13.4013V1.19455H1.19455V19.2542H9.24363V14.0019C9.24363 13.6725 9.50983 13.4013 9.84423 13.4013H14.8054Z" fill="#9EDFDD"/>
</g>
<defs>
<clipPath id="clip0">
<rect width="16" height="20.4438" fill="white"/>
</clipPath>
</defs>
</svg>
