<svg width="54" height="61" viewBox="0 0 54 61" fill="none" xmlns="http://www.w3.org/2000/svg">
<path d="M32.1778 2.48633L27.9128 0.117367C27.6283 -0.0391224 27.2773 -0.0391224 26.9937 0.117367L22.7287 2.48633C22.4253 2.65233 22.2402 2.96876 22.2402 3.3146V8.05165C22.2402 8.39748 22.4253 8.71479 22.7287 8.88079L26.9937 11.2497C27.1355 11.3302 27.2963 11.3673 27.4528 11.3673C27.6093 11.3673 27.771 11.3302 27.9128 11.2497L32.1778 8.88079C32.4812 8.71479 32.6662 8.39748 32.6662 8.05165V3.3146C32.6662 2.96876 32.4812 2.65233 32.1778 2.48633ZM30.7702 7.49313L27.4528 9.33556L24.1363 7.49313V3.87398L27.4528 2.03156L30.7702 3.87398V7.49313Z" fill="#100E0B"/>
<path d="M30.7697 3.87392V7.49307L27.4523 9.33549L24.1357 7.49307V3.87392L27.4523 2.03149L30.7697 3.87392Z" fill="#FCD965"/>
<path d="M32.1769 51.7503L27.9128 49.3814C27.6283 49.2257 27.2773 49.2257 26.9928 49.3814L22.7287 51.7503C22.4253 51.9155 22.2402 52.2336 22.2402 52.5795V57.3156C22.2402 57.6615 22.4253 57.9788 22.7287 58.1448L26.9928 60.5137C27.1355 60.5941 27.2963 60.6322 27.4528 60.6322C27.6093 60.6322 27.7701 60.5941 27.9128 60.5137L32.1769 58.1448C32.4804 57.9788 32.6654 57.6615 32.6654 57.3156V52.5795C32.6654 52.2336 32.4804 51.9155 32.1769 51.7503ZM30.7702 56.7571L27.4528 58.5996L24.1363 56.7571V53.138L27.4528 51.2956L30.7702 53.138V56.7571Z" fill="#100E0B"/>
<path d="M30.7697 53.138V56.7571L27.4523 58.5995L24.1357 56.7571V53.138L27.4523 51.2955L30.7697 53.138Z" fill="#FCD965"/>
<path d="M10.8527 39.4343L6.58854 37.0653C6.3041 36.9097 5.95307 36.9097 5.66949 37.0653L1.4045 39.4343C1.10104 39.5994 0.916016 39.9176 0.916016 40.2634V44.9996C0.916016 45.3463 1.10104 45.6627 1.4045 45.8287L5.66949 48.1977C5.81128 48.2781 5.9721 48.3162 6.12859 48.3162C6.28507 48.3162 6.44589 48.2781 6.58854 48.1977L10.8527 45.8287C11.1561 45.6627 11.3412 45.3463 11.3412 44.9996V40.2634C11.3412 39.9176 11.1561 39.5994 10.8527 39.4343ZM9.44599 44.4411L6.12859 46.2835L2.81118 44.4411V40.8219L6.12859 38.9795L9.44599 40.8219V44.4411Z" fill="#100E0B"/>
<path d="M9.44633 40.8219V44.4411L6.12893 46.2835L2.81152 44.4411V40.8219L6.12893 38.9795L9.44633 40.8219Z" fill="#9EDFDD"/>
<path d="M53.502 39.4343L49.237 37.0653C48.9525 36.9097 48.6024 36.9097 48.3179 37.0653L44.0529 39.4343C43.7495 39.6003 43.5645 39.9176 43.5645 40.2634V44.9996C43.5645 45.3454 43.7495 45.6627 44.0529 45.8287L48.3179 48.1977C48.4597 48.2781 48.6214 48.3162 48.777 48.3162C48.9335 48.3162 49.0952 48.2781 49.237 48.1977L53.502 45.8287C53.8054 45.6627 53.9896 45.3454 53.9896 44.9996V40.2634C53.9896 39.9176 53.8054 39.6003 53.502 39.4343ZM52.0944 44.4411L48.777 46.2835L45.4596 44.4411V40.8219L48.777 38.9795L52.0944 40.8219V44.4411Z" fill="#100E0B"/>
<path d="M52.0939 40.8219V44.4411L48.7765 46.2835L45.46 44.4411V40.8219L48.7765 38.9795L52.0939 40.8219Z" fill="#F35E52"/>
<path d="M21.1442 10.0228C20.6938 9.55511 20.4145 8.94385 20.36 8.28503L12.2822 13.0411C12.7664 13.4725 13.0906 14.0579 13.1952 14.702L21.1442 10.0228Z" fill="#100E0B"/>
<path d="M10.8535 14.3285L6.58854 11.9604C6.3041 11.8039 5.95307 11.8039 5.66949 11.9604L1.4045 14.3285C1.10104 14.4945 0.916016 14.8118 0.916016 15.1576V19.8938C0.916016 20.2396 1.10104 20.5569 1.4045 20.7229L5.66949 23.0919C5.81128 23.1723 5.9721 23.2103 6.12859 23.2103C6.28507 23.2103 6.44589 23.1723 6.58854 23.0919L10.8535 20.7229C11.157 20.5569 11.3412 20.2396 11.3412 19.8938V15.1576C11.3412 14.8118 11.157 14.4945 10.8535 14.3285ZM9.44599 19.3353L6.12859 21.1777L2.81205 19.3353V15.7161L6.12859 13.8737L9.44599 15.7161V19.3353Z" fill="#100E0B"/>
<path d="M9.44645 15.7162V19.3353L6.12904 21.1778L2.8125 19.3353V15.7162L6.12904 13.8738L9.44645 15.7162Z" fill="#F35E52"/>
<path d="M53.502 14.3285L49.237 11.9604C48.9525 11.8039 48.6024 11.8039 48.3179 11.9604L44.0529 14.3285C43.7495 14.4945 43.5645 14.8118 43.5645 15.1576V19.8938C43.5645 20.2396 43.7495 20.5569 44.0529 20.7229L48.3179 23.0919C48.4597 23.1723 48.6214 23.2103 48.777 23.2103C48.9335 23.2103 49.0952 23.1723 49.237 23.0919L53.502 20.7229C53.8054 20.5569 53.9896 20.2396 53.9896 19.8938V15.1576C53.9896 14.8118 53.8054 14.4945 53.502 14.3285ZM52.0944 19.3353L48.777 21.1777L45.4596 19.3353V15.7161L48.777 13.8737L52.0944 15.7161V19.3353Z" fill="#100E0B"/>
<path d="M52.0939 15.7162V19.3353L48.7765 21.1778L45.46 19.3353V15.7162L48.7765 13.8738L52.0939 15.7162Z" fill="#9EDFDD"/>
<path d="M35.4996 25.2283L27.9181 20.965C27.6284 20.8033 27.2774 20.8033 26.9887 20.965L19.4071 25.2283C19.108 25.3934 18.9238 25.7116 18.9238 26.0522V34.5787C18.9238 34.9194 19.108 35.2367 19.4071 35.4027L26.9887 39.6659C27.1304 39.7464 27.2921 39.7896 27.4529 39.7896C27.6146 39.7896 27.7754 39.7464 27.9181 39.6659L35.4996 35.4027C35.7979 35.2367 35.9829 34.9194 35.9829 34.5787V26.0522C35.9829 25.7116 35.7979 25.3934 35.4996 25.2283ZM34.0869 34.0245L27.4529 37.7569L20.819 34.0245V26.6064L27.4529 22.874L34.0869 26.6064V34.0245Z" fill="#100E0B"/>
<path d="M34.0863 26.6064V34.0246L27.4523 37.757L20.8184 34.0246V26.6064L27.4523 22.874L34.0863 26.6064Z" fill="#E4EEF6"/>
<path d="M42.6236 13.0411L34.5449 8.28503C34.4904 8.94385 34.2121 9.55511 33.7607 10.0228L41.7097 14.702C41.8143 14.0579 42.1385 13.4725 42.6236 13.0411Z" fill="#100E0B"/>
<path d="M49.7243 35.2204V24.9379C49.4173 25.0459 49.0983 25.1047 48.7767 25.1047C48.4559 25.1047 48.136 25.0459 47.8291 24.9379V35.2204C48.443 35.0034 49.1113 35.0034 49.7243 35.2204Z" fill="#100E0B"/>
<path d="M41.8109 45.8694L33.7607 50.6082C34.2121 51.0759 34.4904 51.6872 34.5449 52.346L42.9755 47.3833C42.4178 47.0236 42.0106 46.4876 41.8109 45.8694Z" fill="#100E0B"/>
<path d="M11.9307 47.3833L20.3604 52.346C20.4148 51.6872 20.6941 51.0759 21.1445 50.6082L13.0944 45.8694C12.8955 46.4876 12.4883 47.0236 11.9307 47.3833Z" fill="#100E0B"/>
<path d="M5.18066 24.937V35.2204C5.79452 35.0034 6.46284 35.0034 7.07583 35.2204V24.937C6.76977 25.0459 6.44987 25.1047 6.12825 25.1047C5.80749 25.1047 5.48759 25.0459 5.18066 24.937Z" fill="#100E0B"/>
<path d="M28.4009 19.1148V13.0947C28.094 13.2037 27.7741 13.2625 27.4525 13.2625C27.1317 13.2625 26.8118 13.2037 26.5049 13.0947V19.1148C27.1187 18.8969 27.7871 18.8969 28.4009 19.1148Z" fill="#100E0B"/>
<path d="M26.5049 41.5162V47.5363C27.1187 47.3193 27.7871 47.3193 28.4001 47.5363V41.5162C28.0931 41.6252 27.7741 41.684 27.4525 41.684C27.1317 41.684 26.8118 41.6252 26.5049 41.5162Z" fill="#100E0B"/>
<path d="M12.4229 38.2766C12.8776 38.7409 13.1603 39.3513 13.22 40.0084L18.3029 36.9417C17.7521 36.5769 17.3518 36.0382 17.1599 35.4192L12.4229 38.2766Z" fill="#100E0B"/>
<path d="M36.6035 23.6894C37.1543 24.0542 37.5546 24.5929 37.7465 25.2119L42.8008 22.1634C42.2786 21.7691 41.9138 21.2089 41.7564 20.5795L36.6035 23.6894Z" fill="#100E0B"/>
<path d="M18.3964 23.6279L13.1735 20.4592C13.0438 21.0964 12.7006 21.6696 12.1982 22.0838L17.1938 25.115C17.4082 24.502 17.8267 23.9738 18.3964 23.6279Z" fill="#100E0B"/>
<path d="M42.5028 38.255L37.7606 35.3768C37.5782 35.9993 37.1856 36.5423 36.6436 36.9158L41.6884 39.9773C41.755 39.321 42.0437 38.7141 42.5028 38.255Z" fill="#100E0B"/>
<path d="M9.44645 18.3877L6.12904 20.2301L2.8125 18.3877V19.3353L6.12904 21.1777L9.44645 19.3353V18.3877Z" fill="#D24D44"/>
<path d="M30.7697 6.54553L27.4523 8.38882L24.1357 6.54553V7.49312L27.4523 9.33641L30.7697 7.49312V6.54553Z" fill="#D6B856"/>
<path d="M27.4523 2.03149L24.1357 3.87392V4.8215L27.4523 2.97821L30.7697 4.8215V3.87392L27.4523 2.03149Z" fill="#FAE497"/>
<path d="M27.4523 51.2955L24.1357 53.138V54.0855L27.4523 52.2431L30.7697 54.0855V53.138L27.4523 51.2955Z" fill="#FAE497"/>
<path d="M30.7697 55.8094L27.4523 57.6519L24.1357 55.8094V56.757L27.4523 58.5995L30.7697 56.757V55.8094Z" fill="#D6B856"/>
<path d="M6.12893 38.9795L2.81152 40.8219V41.7695L6.12893 39.9271L9.44633 41.7695V40.8219L6.12893 38.9795Z" fill="#B9E7E5"/>
<path d="M9.44645 43.4935L6.12904 45.3359L2.8125 43.4935V44.4411L6.12904 46.2835L9.44645 44.4411V43.4935Z" fill="#7DC2BB"/>
<path d="M48.7765 38.9795L45.46 40.8219V41.7695L48.7765 39.9271L52.0939 41.7695V40.8219L48.7765 38.9795Z" fill="#F68179"/>
<path d="M52.0939 43.4935L48.7765 45.3359L45.46 43.4935V44.4411L48.7765 46.2835L52.0939 44.4411V43.4935Z" fill="#D24D44"/>
<path d="M6.12904 13.8738L2.8125 15.7162V16.6638L6.12904 14.8214L9.44645 16.6638V15.7162L6.12904 13.8738Z" fill="#F68179"/>
<path d="M48.7765 13.8738L45.46 15.7162V16.6638L48.7765 14.8214L52.0939 16.6638V15.7162L48.7765 13.8738Z" fill="#B9E7E5"/>
<path d="M52.0939 18.3877L48.7765 20.231L45.46 18.3877V19.3353L48.7765 21.1777L52.0939 19.3353V18.3877Z" fill="#7DC2BB"/>
<path d="M34.0863 33.077L27.4523 36.8103L20.8184 33.077V34.0246L27.4523 37.757L34.0863 34.0246V33.077Z" fill="#C1C7CE"/>
<path d="M27.4523 22.874L20.8184 26.6064V27.554L27.4523 23.8207L34.0863 27.554V26.6064L27.4523 22.874Z" fill="#F4F8FC"/>
</svg>
