<svg width="200" height="63" viewBox="0 0 200 63" fill="none" xmlns="http://www.w3.org/2000/svg">
<g clip-path="url(#clip0)">
<path d="M20.9375 1.10479C14.4355 1.10479 10.9675 1.53878 9.44977 1.53878C6.921 1.53878 4.68139 1.46614 2.44083 1.46614C1.21306 1.46614 0.996307 1.53889 0.996307 2.04447C0.996307 2.91083 1.28495 2.98419 4.53716 2.98419C6.55924 2.98419 7.7166 3.63449 7.7166 9.34224V42.5787C7.7166 43.6624 7.57115 43.8071 4.32019 43.8071C2.73041 43.8071 2.29649 43.9507 2.29649 44.6741C2.29649 45.3964 2.80237 45.4685 3.52577 45.4685C5.83722 45.4685 7.42698 45.1798 10.4613 45.1798C13.6402 45.1798 16.6752 45.9016 19.7101 45.9016C29.7537 45.9016 36.4736 42.0732 36.4736 33.9806C36.4736 27.6947 32.2093 25.2376 28.8136 23.5025C27.3685 22.7803 25.9955 22.4191 25.9955 22.2751C25.9955 22.0589 27.5853 21.2636 28.9589 20.324C31.2715 18.7348 34.3782 16.2048 34.3782 11.0752C34.3782 5.94507 30.3316 1.10461 20.9372 1.10461L20.9375 1.10479ZM144.738 1.18743C144.361 1.18743 141.972 2.25584 137.07 2.57013C136.003 2.63289 135.499 2.56944 135.499 3.32366C135.499 4.0157 136.128 4.14169 137.259 4.14169C140.087 4.14169 140.464 4.14139 140.464 8.10007V42.7277C140.464 43.859 139.395 43.7962 136.819 43.7962C135.31 43.7962 135.247 44.1744 135.247 44.6142C135.247 45.1169 135.373 45.2425 136.819 45.2425C137.699 45.2425 141.03 45.1172 143.166 45.1172C144.298 45.1172 145.681 45.2425 146.623 45.2425C148.885 45.2425 149.325 45.2424 149.325 44.6142C149.325 44.1105 149.451 43.7336 146.308 43.7336C145.178 43.7336 144.738 43.0423 144.738 37.8268C144.738 36.0034 145.052 31.0395 145.052 7.09468C145.052 5.20973 145.366 2.94615 145.366 2.19194C145.366 1.50048 145.051 1.18689 144.738 1.18689L144.738 1.18743ZM92.5622 1.25006C91.9962 1.25006 88.2878 2.63195 83.7637 2.63195C83.0722 2.63195 82.9466 2.88357 82.9466 3.51169C82.9466 3.95272 83.198 4.1418 85.7738 4.1418C87.4705 4.1418 87.9736 4.7075 87.9736 9.16888C87.9736 22.4298 87.7848 41.0317 87.7848 42.8539C87.7848 43.7964 87.2194 43.7964 85.0829 43.7964C83.5745 43.7964 83.2607 44.1106 83.2607 44.6143C83.2607 45.1797 83.6377 45.2426 85.0829 45.2426C85.9626 45.2426 88.2882 45.1173 90.4259 45.1173C92.437 45.1173 95.3267 45.2426 96.2692 45.2426C97.6515 45.2426 97.9661 45.2425 97.9661 44.6143C97.9661 44.1106 97.7149 43.7964 96.2692 43.7964C92.3732 43.7964 92.4995 43.7968 92.4995 40.8439V36.8846C92.4995 36.3186 93.3791 35.8781 94.3843 35.2494C95.4523 34.558 96.3317 33.9302 96.5833 33.9302C96.9604 33.9302 99.6013 37.8903 102.24 40.9065C104.88 43.9228 105.446 45.4941 106.577 45.4941C107.457 45.4941 109.342 45.4314 110.096 45.4314C110.662 45.4314 111.479 45.4941 112.233 45.4941C113.615 45.4941 114.055 45.3683 114.055 44.9285C114.055 44.4258 113.553 44.1104 112.045 44.1104C109.908 44.1104 107.897 41.0315 105.759 38.4551C101.361 33.1756 100.23 31.9821 100.23 31.4162C100.23 30.9763 104.126 28.2119 107.269 25.1317C109.217 23.2467 111.353 20.5449 111.353 19.9784C111.353 19.7896 111.102 19.7269 110.6 19.7269C109.846 19.7269 106.2 19.9149 105.383 19.9149C104.628 19.9149 103.435 19.7269 102.807 19.7269C101.99 19.7269 101.676 19.8523 101.676 20.3561C101.676 20.9221 101.99 21.047 102.932 21.047C105.697 21.047 105.886 21.173 105.886 22.1783C105.886 23.4979 105.32 24.5664 102.87 26.8912C100.858 28.7774 94.3213 34.5585 92.7501 34.5585C92.5618 34.5585 92.4995 34.3698 92.4995 34.1182C92.4995 23.8747 92.8753 16.8364 92.8753 7.28378C92.8753 5.27274 93.0016 2.63182 93.0016 1.81544C93.0016 1.43833 92.8759 1.24981 92.5621 1.24981L92.5622 1.25006ZM18.769 2.83892C25.3442 2.83892 28.3791 9.7757 28.3791 13.3887C28.3791 19.0964 25.9948 20.4694 23.8995 22.0591C23.8995 22.0591 20.8642 21.6252 16.4574 21.6252C14.7224 21.6252 13.7837 21.7692 13.7837 20.6129V4.93476C13.7837 3.48967 14.0008 2.83935 18.7689 2.83935L18.769 2.83892ZM50.4553 19.0981C44.7365 19.0981 38.7655 24.3776 38.7655 33.2387C38.7655 43.7337 46.4332 46.2486 51.586 46.2486C56.6766 46.2486 62.0186 42.288 62.0186 41.9742C62.0186 41.8481 61.83 41.4712 61.5157 41.4712C61.1392 41.4712 58.8767 42.9801 54.7291 42.9801C49.9523 42.9801 43.227 40.6546 43.227 31.9817C43.227 30.5366 43.4163 30.2223 44.4227 30.1595C51.586 29.7197 57.8707 28.3379 59.5046 27.9596C61.2025 27.5825 62.0822 27.3315 62.0822 27.0799C62.0822 26.5773 61.0759 25.0686 60.0068 23.8124C57.7447 21.1726 53.7232 19.0986 50.4548 19.0986L50.4553 19.0981ZM123.735 19.0981C118.017 19.0981 112.045 24.3776 112.045 33.2387C112.045 43.7337 119.712 46.2486 124.866 46.2486C129.956 46.2486 135.298 42.288 135.298 41.9742C135.298 41.8481 135.109 41.4712 134.795 41.4712C134.418 41.4712 132.155 42.9801 128.008 42.9801C123.231 42.9801 116.507 40.6546 116.507 31.9817C116.507 30.5366 116.696 30.2223 117.701 30.1595C124.866 29.7197 131.149 28.3379 132.784 27.9596C134.481 27.5825 135.361 27.3315 135.361 27.0799C135.361 26.5773 134.356 25.0686 133.287 23.8124C131.024 21.1726 127.003 19.0986 123.734 19.0986L123.735 19.0981ZM159.983 19.0981C154.264 19.0981 148.294 24.3776 148.294 33.2387C148.294 43.7337 155.961 46.2486 161.114 46.2486C166.205 46.2486 171.547 42.288 171.547 41.9742C171.547 41.8481 171.358 41.4712 171.044 41.4712C170.667 41.4712 168.405 42.9801 164.257 42.9801C159.481 42.9801 152.756 40.6546 152.756 31.9817C152.756 30.5366 152.945 30.2223 153.95 30.1595C161.115 29.7197 167.399 28.3379 169.033 27.9596C170.73 27.5825 171.61 27.3315 171.61 27.0799C171.61 26.5773 170.605 25.0686 169.536 23.8124C167.274 21.1726 163.251 19.0986 159.984 19.0986L159.983 19.0981ZM72.3251 19.5375C71.3187 19.5375 70.1245 19.8516 69.1193 19.8516C67.8625 19.8516 66.6682 19.7254 64.5316 19.7254C63.4625 19.7254 63.5257 19.9149 63.5257 20.6697C63.5257 21.3611 63.5253 21.2979 64.6578 21.2979C68.1767 21.2979 68.0506 21.4236 68.0506 25.6968V42.917C68.0506 43.7967 67.8624 43.8594 65.286 43.8594C63.777 43.8594 63.7144 43.9846 63.7144 44.6139C63.7144 45.2426 63.8397 45.2421 65.286 45.2421C66.1657 45.2421 68.3028 44.928 70.4393 44.928C72.451 44.928 76.6612 45.2421 77.5409 45.2421C79.1748 45.2421 79.2378 45.3053 79.2378 44.6139C79.2378 44.0473 79.1748 43.8594 77.5409 43.8594C72.8907 43.8594 72.7027 43.8588 72.7027 40.7798V27.8327C72.7027 25.1935 74.0844 23.6853 77.7288 23.6853C80.8717 23.6853 81.6264 26.2619 82.5061 26.2619C82.8832 26.2619 83.888 23.4969 83.888 22.8682C83.888 21.2349 80.9976 19.8512 79.8651 19.8512C76.9116 19.8512 73.9593 23.1197 73.0168 23.1197C72.7652 23.1197 72.7026 22.68 72.7026 22.1146C72.7026 21.9258 72.8279 20.5432 72.8279 20.2289C72.8279 19.7251 72.5766 19.5371 72.325 19.5371L72.3251 19.5375ZM197.81 19.6001C196.931 19.6001 195.234 19.8516 194.291 19.8516C192.593 19.8516 191.462 19.7263 189.766 19.7263C188.635 19.7263 188.446 19.7259 188.446 20.5434C188.446 21.1721 188.698 21.1726 190.646 21.1726C192.782 21.1726 192.781 21.5493 192.781 23.4342C192.781 24.3139 190.52 30.8508 189.012 35.375C188.007 38.3296 187.629 39.209 187.19 39.209C186.938 39.209 186.184 38.1408 185.68 36.8212C181.91 27.142 180.276 24.9421 180.276 23.1199C180.276 21.6748 180.653 21.2977 182.161 21.2977C183.48 21.2977 183.732 21.2348 183.732 20.6694C183.732 19.9768 183.48 19.7261 182.161 19.7261C180.15 19.7261 177.95 19.914 176.19 19.914C174.683 19.914 174.243 19.7887 172.484 19.7887C171.352 19.7887 171.164 20.1035 171.164 20.6694C171.164 21.2348 171.227 21.2977 172.484 21.2977C173.614 21.2977 174.055 21.6124 175.626 25.3823C179.082 33.5525 184.109 45.1789 184.109 45.8704C184.109 47.7553 178.706 55.1707 176.443 57.9982C174.306 60.7013 171.352 61.0784 171.352 61.4555C171.352 61.7698 171.98 62.0837 173.049 62.0837C174.431 62.0837 174.871 61.5812 176.756 61.3302C178.14 61.1414 178.894 61.0783 179.585 59.696C181.596 55.5479 184.424 50.457 188.384 40.8419C193.348 28.7768 196.114 21.2347 197.496 21.2347C198.25 21.2347 199.13 20.9203 199.13 20.3549C199.13 19.6629 198.816 19.5995 197.81 19.5995V19.6001ZM49.8265 20.4181C52.7179 20.4181 56.4251 25.0679 56.4251 26.6391C56.4251 27.0162 56.3631 27.1418 55.6716 27.2673C50.958 28.0216 47.5643 28.8398 44.2965 28.8398C43.5417 28.8398 43.542 28.7765 43.542 28.4621C43.542 27.5812 45.0508 20.4181 49.8265 20.4181L49.8265 20.4181ZM123.105 20.4181C125.997 20.4181 129.704 25.0679 129.704 26.6391C129.704 27.0162 129.641 27.1418 128.95 27.2673C124.236 28.0216 120.843 28.8398 117.576 28.8398C116.822 28.8398 116.821 28.7765 116.821 28.4621C116.821 27.5812 118.329 20.4181 123.105 20.4181L123.105 20.4181ZM159.354 20.4181C162.244 20.4181 165.953 25.0679 165.953 26.6391C165.953 27.0162 165.89 27.1418 165.199 27.2673C160.485 28.0216 157.092 28.8398 153.824 28.8398C153.069 28.8398 153.069 28.7765 153.069 28.4621C153.069 27.5812 154.577 20.4181 159.354 20.4181L159.354 20.4181ZM16.3902 22.9967C24.2652 22.9967 29.6116 28.0546 29.6116 34.5578C29.6116 40.8437 25.566 44.602 20.075 44.602C17.7624 44.602 15.4512 44.0959 14.6557 43.2284C14.0061 42.5055 13.7887 38.4599 13.7887 37.8091V24.8747C13.7887 23.2855 14.3675 22.9963 16.3908 22.9963L16.3902 22.9967ZM52.2193 52.4923C50.7347 52.4923 49.4965 53.3879 49.4965 54.872C49.4965 57.6924 53.2126 57.1896 53.2126 58.7596C53.2126 59.3848 52.734 59.9244 51.7654 59.9244C51.1152 59.9244 50.2938 59.6187 49.6064 59.1527L48.9936 60.2322C49.6804 60.7098 50.6121 61.1646 51.7655 61.1646C53.3721 61.1646 54.7089 60.1329 54.7089 58.7105C54.7089 55.8523 50.9928 56.7119 50.9928 54.8102C50.9928 54.185 51.4099 53.7316 52.2194 53.7316C52.9428 53.7316 53.5066 53.977 54.1324 54.2955L54.6598 53.2405C53.9492 52.7995 53.1021 52.4924 52.2194 52.4924L52.2193 52.4923ZM81.8451 52.4923C79.3187 52.4923 78.1909 54.2957 78.1909 56.8221C78.1909 59.226 79.3065 61.1646 81.8451 61.1646C84.3837 61.1646 85.5003 59.226 85.5003 56.8221C85.5003 54.2957 84.3716 52.4923 81.8451 52.4923ZM101.539 52.4923C99.0131 52.4923 97.7735 54.3078 97.7735 56.8348C97.7735 59.41 98.903 61.1646 101.49 61.1646C102.619 61.1646 103.674 60.6976 104.532 59.9126L103.784 58.9566C103.097 59.5824 102.312 59.9245 101.564 59.9245C100.006 59.9245 99.2697 58.8093 99.2697 56.8222C99.2697 54.8477 100.055 53.7316 101.539 53.7316C102.337 53.7316 102.925 54.0141 103.575 54.5533L104.336 53.5719C103.453 52.8479 102.582 52.4924 101.54 52.4924L101.539 52.4923ZM133.471 52.4923C130.944 52.4923 129.817 54.2957 129.817 56.8221C129.817 59.226 130.932 61.1646 133.471 61.1646C136.01 61.1646 137.126 59.226 137.126 56.8221C137.126 54.2957 135.997 52.4923 133.471 52.4923ZM16.1089 52.6149L14.698 52.7628V61.0293H16.1579V55.3876H16.1824L19.7268 61.0293H21.027V52.6276H19.5671V58.1476H19.5309L16.1091 52.6149L16.1089 52.6149ZM34.8329 52.6149V61.0293H39.9353L40.0461 59.79H36.2928V57.4113H39.445V56.172H36.2928V53.8542H39.8372V52.6149H34.8329ZM87.378 52.6149V61.0293H88.837V57.4113H91.9285V56.172H88.837V53.8542H92.2834V52.6149H87.378ZM109.942 52.6149L108.237 52.7501L105.281 61.0293H106.643L107.341 59.0047H110.727L111.426 61.0293H112.923L109.942 52.6149H109.942ZM123.969 52.6149V61.0293H125.429V57.4113H128.52V56.172H125.429V53.8542H128.876V52.6149H123.969ZM146.95 52.6149L145.539 52.7628V61.0293H146.998V55.3876H147.024L150.567 61.0293H151.868V52.6276H150.409V58.1476H150.371L146.95 52.6149V52.6149ZM161.014 52.6149L159.309 52.7501L156.353 61.0293H157.715L158.414 59.0047H161.799L162.498 61.0293H163.995L161.014 52.6149H161.014ZM6.45291 52.6275V58.1095C6.45291 59.9985 7.49509 61.1646 9.55609 61.1646C11.6037 61.1646 12.6466 59.9988 12.6466 58.0976V52.6275H11.1868V58.1957C11.1868 59.2387 10.7462 59.9244 9.55623 59.9244C8.35402 59.9244 7.91208 59.2382 7.91208 58.183V52.6275H6.45301H6.45291ZM23.106 52.6275V61.0293H24.5651V52.6275H23.106ZM25.9994 52.6275L28.8938 61.0293H30.4999L33.407 52.6275H31.9716L30.3655 57.3251C30.3655 57.3251 30.2062 57.8028 29.789 59.238H29.7154C29.3104 57.8028 29.1516 57.3124 29.1516 57.3124L27.5447 52.6275H25.9994H25.9994ZM41.9774 52.6275V61.0293H43.4364V57.6682H44.1355C44.6631 57.6682 44.9698 58.1598 45.215 58.6624L46.3798 61.0293H47.9868L46.3798 57.9996C46.2822 57.8032 46.1346 57.582 45.865 57.4222V57.3986C46.9685 56.9814 47.4475 56.1232 47.4475 55.118C47.4475 53.6583 46.5272 52.6275 44.6748 52.6275H41.9774H41.9774ZM56.4469 52.6275V61.0293H57.9059V52.6275H56.4469ZM59.5855 52.6275V53.8787H61.8062V61.0293H63.2652V53.8659H65.387L65.4978 52.6275H59.5855ZM66.4529 52.6275L69.1022 57.4349V61.0293H70.5612V57.4349L73.2114 52.6275H71.6035L70.4142 55.0199C70.4142 55.0199 70.2671 55.3257 69.8504 56.2582H69.8142C69.372 55.3256 69.2122 55.0199 69.2122 55.0199L68.0964 52.6275H66.4531H66.4529ZM114.105 52.6275V61.0293H119.073L119.183 59.79H115.565V52.6275H114.105ZM120.604 52.6275V61.0293H122.063V52.6275H120.604ZM138.385 52.6275V61.0293H139.844V57.6682H140.544C141.071 57.6682 141.378 58.1598 141.623 58.6624L142.788 61.0293H144.395L142.788 57.9996C142.69 57.8032 142.543 57.582 142.273 57.4222V57.3986C143.377 56.9814 143.856 56.1232 143.856 55.118C143.856 53.6583 142.935 52.6275 141.083 52.6275H138.385ZM153.701 52.6275V61.0293H155.16V52.6275H153.701ZM81.843 53.7316C83.2905 53.7316 83.9893 54.9947 83.9893 56.8221C83.9893 58.6495 83.2789 59.9244 81.843 59.9244C80.3962 59.9244 79.685 58.6489 79.685 56.8093C79.685 54.9819 80.3962 53.7316 81.843 53.7316ZM133.468 53.7316C134.915 53.7316 135.614 54.9947 135.614 56.8221C135.614 58.6495 134.903 59.9244 133.468 59.9244C132.02 59.9244 131.31 58.6489 131.31 56.8093C131.31 54.9819 132.02 53.7316 133.468 53.7316ZM43.4363 53.8786H44.6384C45.632 53.8786 45.9512 54.3447 45.9512 55.1298C45.9512 55.927 45.5461 56.4417 44.6629 56.4417H43.4363V53.8786ZM139.844 53.8786H141.046C142.04 53.8786 142.359 54.3447 142.359 55.1298C142.359 55.927 141.954 56.4417 141.071 56.4417H139.844V53.8786ZM109.004 54.0993H109.029C109.605 55.8407 109.703 56.1103 109.703 56.1103L110.353 57.9625H107.691L108.341 56.1103C108.341 56.1103 108.44 55.8407 109.004 54.0993ZM160.077 54.0993H160.101C160.678 55.8407 160.777 56.1103 160.777 56.1103L161.426 57.9625H158.764L159.415 56.1103C159.415 56.1103 159.512 55.8407 160.077 54.0993H160.077Z" fill="#EF5C50"/>
</g>
<defs>
<clipPath id="clip0">
<rect width="200" height="62.8412" fill="white"/>
</clipPath>
</defs>
</svg>
