<svg width="19" height="20" viewBox="0 0 19 20" fill="none" xmlns="http://www.w3.org/2000/svg">
<path fill-rule="evenodd" clip-rule="evenodd" d="M18.666 15.7488V8.09914V4.28491C18.666 2.29309 17.0478 0.673828 15.0581 0.673828H3.60721C1.61753 0.673828 0 2.29309 0 4.28491V8.09914V15.7488C0 17.7413 1.61753 19.3605 3.60721 19.3605H15.0588C17.0478 19.3605 18.666 17.7413 18.666 15.7488ZM12.619 10.0162C12.619 11.83 11.1429 13.305 9.33234 13.305C7.52114 13.305 6.04639 11.8294 6.04837 10.0156C6.04904 9.29956 6.28106 8.63849 6.66974 8.09851C7.26796 7.27002 8.23769 6.7274 9.33433 6.7274C10.4303 6.7274 11.4007 7.27068 11.9976 8.09917C12.385 8.63915 12.619 9.30022 12.619 10.0162ZM16.5064 5.99286V3.23608V2.82581L16.0946 2.82713L13.3421 2.83573L13.3527 6.00345L16.5064 5.99286ZM9.33301 15.1267C12.1483 15.1267 14.4381 12.8332 14.4381 10.0162C14.4381 9.33855 14.3013 8.69072 14.0587 8.09913H16.8462V15.7488C16.8462 16.7374 16.0431 17.5381 15.0575 17.5381H3.60655C2.61964 17.5381 1.81782 16.7374 1.81782 15.7488V8.09913H4.60404C4.36342 8.69072 4.22858 9.33855 4.22858 10.0162C4.22858 12.8332 6.5177 15.1267 9.33301 15.1267Z" fill="#3A3A3A"/>
</svg>
