<svg width="23" height="18" viewBox="0 0 23 18" fill="none" xmlns="http://www.w3.org/2000/svg">
<path fill-rule="evenodd" clip-rule="evenodd" d="M19.6667 0H3.66675C2.0148 0 0.676748 1.34735 0.676748 3L0.666748 14.9992C0.666748 16.6523 2.01446 18 3.66675 18H19.6667C21.319 18 22.6667 16.6523 22.6667 15V3C22.6667 1.34772 21.319 0 19.6667 0ZM2.67675 3.00083C2.67675 2.44883 3.12248 2 3.66675 2H19.6667C20.2145 2 20.6667 2.45228 20.6667 3V15C20.6667 15.5477 20.2145 16 19.6667 16H3.66675C3.11903 16 2.66675 15.5477 2.66675 15L2.67675 3.00083ZM5.15081 6.00015C4.67776 5.71512 4.52533 5.10058 4.81036 4.62753C5.09539 4.15447 5.70993 4.00205 6.18298 4.28708L11.6374 7.57353L17.33 4.14361C17.803 3.85859 18.4184 4.01239 18.7034 4.48544C18.9878 4.95742 18.8376 5.57188 18.3666 5.85777L11.6767 9.91801L11.6704 9.9284L5.15081 6.00015Z" fill="#979797" fill-opacity="0.75"/>
</svg>
