<svg width="200" height="50" viewBox="0 0 200 50" fill="none" xmlns="http://www.w3.org/2000/svg">
<g clip-path="url(#clip0)">
<path d="M80.6654 34.5248C80.6654 34.1017 80.3891 33.7781 79.8242 33.6661V33.3923C80.1377 33.3923 81.1781 33.4346 81.4693 33.4346C81.7182 33.4346 82.7286 33.3923 83.0422 33.3923V33.6661C82.5196 33.7681 82.2433 34.0768 82.2433 34.5248V39.8957C82.2433 41.598 83.1791 42.5587 85.1329 42.5587C86.8153 42.5587 88.1195 41.8121 88.1195 40.0226V34.5048C88.1195 34.1041 87.8706 33.7881 87.2384 33.6661V33.3923C87.4674 33.3923 88.3286 33.4346 88.6197 33.4346C88.8686 33.4346 89.7746 33.3923 90.0036 33.3923V33.6661C89.3963 33.8129 89.125 34.0842 89.125 34.5048V39.7314C89.125 42.0759 87.7611 43.4224 84.8193 43.4224C82.0815 43.4224 80.6604 42.1779 80.6604 39.9753L80.6654 34.5248Z" fill="#888888"/>
<path d="M92.4148 42.9971C93.052 42.8776 93.3033 42.5541 93.3033 42.1583V34.7366C93.3033 34.107 92.9699 33.8257 92.3974 33.6689V33.3952C92.721 33.42 93.2635 33.4325 93.5398 33.4325C93.8431 33.4372 94.1463 33.4247 94.4482 33.3952L100.887 40.9587V34.4878C100.887 34.0895 100.638 33.7735 100.006 33.649V33.3752C100.235 33.3752 101.063 33.4176 101.36 33.4176C101.608 33.4176 102.502 33.3752 102.736 33.3752V33.649C102.121 33.7934 101.825 34.0671 101.825 34.4878V43.4003H101.437C101.188 43.343 100.732 43.0817 100.028 42.3101L94.269 35.5903V42.1334C94.269 42.5317 94.498 42.8477 95.1251 42.9722V43.2459C94.8962 43.2459 94.0674 43.2011 93.7712 43.2011C93.5224 43.2011 92.6488 43.2459 92.4148 43.2459V42.9971Z" fill="#888888"/>
<path d="M143.223 40.9941H143.497C143.624 41.5405 143.946 42.0218 144.403 42.3481C144.937 42.6723 145.552 42.8388 146.177 42.8284C147.474 42.8284 148.295 42.1888 148.295 41.1733C148.295 40.1206 147.243 39.5755 145.983 38.9334C145.045 38.463 143.203 37.689 143.203 35.9094C143.203 34.2494 144.47 33.219 146.491 33.219C147.827 33.219 148.452 33.545 149.353 33.5027L149.336 35.5162H149.062C148.701 34.329 147.626 33.9159 146.446 33.9159C145.127 33.9159 144.634 34.6625 144.634 35.4366C144.634 36.5341 145.71 37.0891 146.927 37.6317C148.295 38.2415 149.781 39.013 149.781 40.7278C149.781 42.3506 148.509 43.5278 146.187 43.5278C144.806 43.5278 143.98 43.132 143.253 43.03L143.223 40.9941Z" fill="#888888"/>
<path d="M172.401 38.7785V42.1385C172.415 42.3561 172.506 42.5618 172.657 42.7189C172.808 42.8761 173.01 42.9746 173.227 42.9971V43.2709C172.909 43.2709 171.863 43.2261 171.562 43.2261C171.313 43.2261 170.318 43.2709 169.944 43.2709V42.9971C170.164 42.9755 170.37 42.878 170.526 42.7213C170.681 42.5646 170.778 42.3585 170.798 42.1385V38.9254L172.401 38.7785ZM170.9 39.1743L168.272 34.9855C167.826 34.2389 167.483 33.8581 166.983 33.6739V33.4001C167.343 33.4001 168.314 33.4449 168.588 33.4449C168.862 33.4449 169.885 33.4001 170.263 33.4001V33.6739C169.929 33.7336 169.765 33.9004 169.765 34.1543C169.804 34.4285 169.909 34.6891 170.071 34.9134L172.003 38.119L173.867 34.9134C174.037 34.6585 174.147 34.3683 174.188 34.0647C174.188 33.873 174.051 33.7162 173.735 33.6739V33.4001C174.048 33.4001 174.713 33.4449 174.922 33.4449C175.131 33.4449 175.895 33.4001 176.209 33.4001V33.649C175.492 33.9427 175.044 34.5724 174.611 35.2991L172.227 39.2813" fill="#888888"/>
<path d="M122.185 33.3924H128.332C128.574 33.398 128.814 33.3626 129.044 33.2878H129.32L129.278 35.2789H129.004C128.77 34.6492 128.526 34.1465 127.337 34.1465H124.669V37.6308H126.725C127 37.6345 127.274 37.6137 127.546 37.5686C127.733 37.5389 127.906 37.4507 128.04 37.3166C128.175 37.1824 128.263 37.0093 128.293 36.822H128.569C128.549 37.1231 128.549 37.8175 128.549 38.0141C128.549 38.2107 128.569 38.9424 128.569 39.2585H128.305C128.173 38.8653 127.994 38.5666 127.558 38.4571C127.288 38.4037 127.013 38.3779 126.737 38.38H124.681V42.4641H127.583C128.852 42.4641 129.221 41.9365 129.534 41.1874L129.808 41.2521L129.534 43.3029C128.677 43.2324 127.816 43.205 126.956 43.2207H123.875C123.579 43.2207 122.494 43.263 122.178 43.263V42.9893C122.733 42.8847 123.056 42.611 123.056 42.0784V34.5347C123.056 34.0668 122.807 33.7732 122.183 33.6711L122.185 33.3924Z" fill="#888888"/>
<path d="M106.477 34.59C106.477 34.0922 106.174 33.8035 105.581 33.6766V33.4053C105.912 33.4053 106.977 33.4451 107.289 33.4451C107.55 33.4451 108.647 33.4053 108.981 33.4053V33.6766C108.391 33.8035 108.082 34.0549 108.082 34.59V42.0888C108.082 42.5866 108.386 42.8703 108.981 42.9972V43.271C108.647 43.271 107.595 43.2287 107.289 43.2287C107.025 43.2287 105.912 43.271 105.581 43.271V42.9972C106.186 42.8827 106.477 42.6189 106.477 42.0888V34.59Z" fill="#888888"/>
<path d="M153.117 34.59C153.117 34.0922 152.814 33.8035 152.221 33.6766V33.4053C152.55 33.4053 153.62 33.4451 153.929 33.4451C154.178 33.4451 155.288 33.4053 155.621 33.4053V33.6766C155.031 33.8035 154.723 34.0549 154.723 34.59V42.0888C154.723 42.5866 155.026 42.8703 155.621 42.9972V43.271C155.29 43.271 154.24 43.2287 153.929 43.2287C153.68 43.2287 152.55 43.271 152.221 43.271V42.9972C152.826 42.8827 153.117 42.6189 153.117 42.0888V34.59Z" fill="#888888"/>
<path d="M161.66 33.4351C158.29 33.4351 157.75 33.3729 157.061 33.3306V35.3639H157.337C157.586 34.463 158.084 34.2539 158.741 34.2539H160.854V42.0888C160.854 42.6189 160.565 42.8827 159.958 42.9972V43.271C160.291 43.271 161.414 43.2287 161.673 43.2287C161.981 43.2287 163.036 43.271 163.365 43.271V42.9972C162.77 42.8703 162.469 42.594 162.469 42.0888V34.2539H164.565C165.239 34.2539 165.722 34.4829 165.973 35.3639H166.245V33.3306C165.56 33.3729 165.02 33.4351 161.65 33.4351" fill="#888888"/>
<path d="M134.773 38.0618C135.186 38.1078 135.602 38.1286 136.018 38.124C137.867 38.124 138.449 37.0612 138.449 36.1205C138.449 34.7889 137.561 33.9626 135.943 33.9626C135.555 33.9666 135.168 34.0015 134.786 34.0672L134.773 38.0618ZM134.773 42.0887C134.773 42.5865 135.094 42.8702 135.689 42.9971V43.2709C135.358 43.2709 134.28 43.2286 133.974 43.2286C133.71 43.2286 132.658 43.2709 132.324 43.2709V42.9971C132.877 42.8901 133.203 42.6188 133.203 42.0887V34.5127C133.203 34.0473 132.954 33.766 132.327 33.6466V33.3753C132.658 33.3753 133.7 33.4176 133.994 33.4176C134.477 33.4176 135.848 33.3354 136.388 33.3354C138.75 33.3354 140.065 34.3111 140.065 35.9861C140.065 37.3027 139.086 38.1937 137.576 38.557C137.833 38.7203 138.065 38.9217 138.263 39.1544C138.678 39.6521 139.803 41.2599 140.271 41.8249C140.739 42.3899 141.334 43.0245 141.973 43.0519V43.2734C141.587 43.3517 141.193 43.3934 140.799 43.3978C139.997 43.3978 139.358 43.1141 138.735 42.3625C138.198 41.7079 137.284 40.349 136.744 39.6621C136.565 39.4154 136.338 39.2078 136.076 39.0521C135.814 38.8963 135.523 38.7956 135.221 38.7561C135.074 38.7313 134.935 38.7113 134.768 38.6914L134.773 42.0887Z" fill="#888888"/>
<path d="M111.354 34.6193C111.262 34.3815 111.113 34.1702 110.919 34.0046C110.725 33.839 110.493 33.7244 110.244 33.6711V33.3923C110.595 33.3923 111.807 33.4371 112.076 33.4371C112.345 33.4371 113.382 33.3923 113.741 33.3923V33.6611C113.422 33.7233 113.056 33.91 113.056 34.2286C113.056 34.4625 113.198 34.7811 113.47 35.3809L116.016 41.1725L118.425 35.371C118.595 35.0228 118.706 34.6484 118.751 34.2634C118.751 33.9573 118.47 33.7457 118.069 33.6611V33.3923C118.39 33.3923 119.174 33.4371 119.418 33.4371C119.662 33.4371 120.56 33.3923 120.911 33.3923V33.6711C120.309 33.8329 119.943 34.1689 119.607 34.9479L116.06 43.3054H115.262L111.354 34.6193Z" fill="#888888"/>
<path d="M120.443 8.26016C120.035 7.35423 119.405 6.69718 118.34 6.46074V5.93311C119.002 5.93311 121.202 6.01275 121.707 6.01275C122.175 6.01275 124.305 5.93311 124.985 5.93311V6.44581C124.383 6.56527 123.688 6.90126 123.688 7.52098C123.688 7.95901 123.962 8.56629 124.467 9.7012L129.296 20.6745L133.863 9.68129C134.218 8.79028 134.485 8.11083 134.485 7.58569C134.485 7.00081 133.945 6.6026 133.186 6.44581V5.93311C133.79 5.93311 135.261 6.01275 135.727 6.01275C136.152 6.01275 137.897 5.93311 138.559 5.93311V6.43087C137.422 6.73949 136.725 7.39156 136.09 8.87739L129.37 24.7213H127.857L120.443 8.26016Z" fill="#888888"/>
<path d="M55.4442 24.1192C56.3203 23.9176 56.9375 23.5194 56.9375 22.5264V8.00155C56.9375 7.04584 56.3651 6.65011 55.4442 6.41118V5.896C55.9047 5.896 57.8883 5.97315 58.3711 5.97315C58.9261 5.97315 61.0068 5.896 61.4622 5.896V6.41118C60.5862 6.61029 59.9366 7.0085 59.9366 8.00155V14.0793H70.758V8.00155C70.758 7.00602 70.1831 6.61029 69.2647 6.41118V5.896C69.7227 5.896 71.7536 5.97315 72.3185 5.97315C72.7989 5.97315 74.8273 5.896 75.2802 5.896V6.41118C74.4042 6.61029 73.7546 7.0085 73.7546 8.00155V22.5264C73.7546 23.4796 74.3644 23.8803 75.2802 24.1192V24.5946C74.8273 24.5946 72.7914 24.5548 72.3185 24.5548C71.7635 24.5548 69.7227 24.5946 69.2647 24.5946V24.1192C70.1358 23.9176 70.758 23.5194 70.758 22.5264V15.6622H59.9366V22.5264C59.9366 23.5219 60.5464 23.8803 61.4622 24.1192V24.5946C61.0068 24.5946 58.9261 24.5548 58.3711 24.5548C57.8883 24.5548 55.9047 24.5946 55.4442 24.5946V24.1192Z" fill="#888888"/>
<path d="M185.344 23.1609C186.31 23.2987 187.285 23.3653 188.261 23.36C193.853 23.36 196.765 19.9951 196.765 15.3011C196.765 10.4355 193.694 7.01083 188.465 7.01083C187.421 7.00664 186.379 7.07233 185.344 7.20745V23.1609ZM180.615 24.1191C181.738 23.9175 182.357 23.472 182.357 22.4466V8.01134C182.357 7.01581 181.748 6.62008 180.662 6.42097V5.89583C181.287 5.89583 183.323 5.97299 183.898 5.97299C184.806 5.97299 187.345 5.77637 189.321 5.77637C195.976 5.77637 200.023 9.49219 200.023 15.1443C200.023 20.6397 195.819 24.7114 188.955 24.7114C186.977 24.7114 184.63 24.5546 183.711 24.5546C183.151 24.5546 181.255 24.6342 180.633 24.6342L180.615 24.1191Z" fill="#888888"/>
<path d="M105.261 14.7759C106.037 14.8605 106.818 14.8996 107.598 14.8928C111.1 14.8928 112.2 12.8769 112.2 11.0974C112.2 8.56871 110.515 7.01071 107.449 7.01071C106.716 7.01824 105.984 7.08398 105.261 7.20732V14.7759ZM105.261 22.3942C105.261 23.3573 105.871 23.8875 107.003 24.1189V24.6341C106.379 24.6341 104.343 24.5545 103.768 24.5545C103.27 24.5545 101.279 24.6341 100.649 24.6341V24.1189C101.692 23.9173 102.307 23.3997 102.307 22.3942V8.05104C102.307 7.1675 101.829 6.61 100.652 6.4109V5.89571C101.279 5.89571 103.25 5.97286 103.805 5.97286C104.721 5.97286 107.317 5.82104 108.34 5.82104C112.82 5.82104 115.309 7.67274 115.309 10.8385C115.309 13.3274 113.45 15.0173 110.597 15.7092C111.085 16.0206 111.522 16.4041 111.894 16.8466C112.685 17.7749 114.866 20.8959 115.747 21.9636C116.628 23.0313 117.758 24.2309 118.967 24.2857V24.7063C118.238 24.8516 117.496 24.9291 116.752 24.9378C115.227 24.9378 114.014 24.4027 112.835 22.9741C111.817 21.7297 110.04 19.1014 109.022 17.7998C108.684 17.3337 108.255 16.9414 107.76 16.6469C107.265 16.3525 106.716 16.1621 106.145 16.0875C105.861 16.0377 105.595 16.0004 105.281 15.9655L105.261 22.3942Z" fill="#888888"/>
<path d="M164.263 14.7759C165.039 14.8603 165.821 14.8994 166.602 14.8928C170.104 14.8928 171.201 12.8769 171.201 11.0974C171.201 8.56871 169.517 7.01071 166.455 7.01071C165.72 7.01824 164.987 7.08398 164.263 7.20732V14.7759ZM164.263 22.3942C164.263 23.3573 164.875 23.8875 166.005 24.1189V24.6341C165.383 24.6341 163.347 24.5545 162.769 24.5545C162.272 24.5545 160.28 24.6341 159.648 24.6341V24.1189C160.689 23.9173 161.303 23.3997 161.303 22.3942V8.05104C161.303 7.1675 160.823 6.61 159.653 6.4109V5.89571C160.28 5.89571 162.247 5.97286 162.804 5.97286C163.723 5.97286 166.316 5.82104 167.334 5.82104C171.814 5.82104 174.303 7.67274 174.303 10.8385C174.303 13.3274 172.448 15.0173 169.591 15.7092C170.08 16.0191 170.517 16.4027 170.888 16.8466C171.687 17.7749 173.874 20.8959 174.746 21.9636C175.617 23.0313 176.759 24.2309 177.961 24.2857V24.7063C177.235 24.8518 176.497 24.9293 175.756 24.9378C174.228 24.9378 173.018 24.4027 171.834 22.9741C170.818 21.7297 169.046 19.1014 168.018 17.7998C167.681 17.3345 167.253 16.9427 166.76 16.6483C166.266 16.3539 165.718 16.1631 165.149 16.0875C164.86 16.0377 164.596 16.0004 164.278 15.9655L164.263 22.3942Z" fill="#888888"/>
<path d="M90.0565 17.1155L87.0699 10.1717L84.2974 17.1155H90.0565ZM78.1251 24.1141C79.3098 23.8378 79.9593 23.0713 80.3924 22.0434L86.3855 7.62558C86.6048 7.02891 86.7885 6.41973 86.9355 5.80127H88.613C88.7624 6.41991 88.946 7.02979 89.163 7.62807L95.4971 22.0832C95.9476 23.0787 96.4379 23.798 97.6972 24.1141V24.5944C97.0128 24.5944 94.8799 24.5546 94.3946 24.5546C93.9092 24.5546 91.8783 24.5944 91.1939 24.5944V24.1141C92.1173 23.8876 92.4085 23.4197 92.4085 22.9642C92.3736 22.5215 92.2536 22.0897 92.0551 21.6924L90.6937 18.5864H83.7249L82.4805 21.7099C82.3155 22.0884 82.2121 22.4908 82.1744 22.902C82.1744 23.4222 82.4482 23.8378 83.4935 24.1141V24.5944C82.8738 24.5944 81.2386 24.5546 80.8553 24.5546L78.1425 24.5944L78.1251 24.1141Z" fill="#888888"/>
<path d="M149.432 17.1155L146.445 10.1717L143.675 17.1155H149.432ZM137.5 24.1141C138.682 23.8378 139.334 23.0713 139.765 22.0434L145.773 7.62558C145.993 7.02872 146.179 6.4196 146.328 5.80127H148.006C148.152 6.42005 148.334 7.02997 148.551 7.62807L154.885 22.0832C155.333 23.0787 155.828 23.798 157.08 24.1141V24.5944C156.395 24.5944 154.26 24.5546 153.772 24.5546C153.284 24.5546 151.261 24.5944 150.574 24.5944V24.1141C151.502 23.8876 151.789 23.4197 151.789 22.9642C151.754 22.5223 151.637 22.0909 151.443 21.6924L150.074 18.5864H143.105L141.861 21.7099C141.696 22.0885 141.594 22.491 141.557 22.902C141.557 23.4222 141.828 23.8378 142.874 24.1141V24.5944C142.251 24.5944 140.619 24.5546 140.233 24.5546L137.523 24.5944L137.5 24.1141Z" fill="#888888"/>
<path d="M0.11248 0.0671387H41.8975V15.8513C41.8975 23.0839 39.2046 38.42 21.1605 49.8363C21.1605 49.8363 1.60827 41.6704 0.11248 15.8513V0.0671387Z" fill="#888888"/>
<path d="M0.0246353 0.0249023H41.852V15.8215C41.852 23.0566 39.1566 38.4027 21.0951 49.8264C21.0951 49.8264 1.52291 41.6556 0.0246353 15.8215V0.0249023Z" stroke="#888888" stroke-width="0.2"/>
<path d="M31.7345 20.3491C31.7345 20.3491 31.3637 21.5362 29.7061 20.3167L24.0166 20.1798C24.0166 20.1798 23.27 20.4287 23.1704 19.6398C23.1704 19.6398 23.3073 18.0817 23.2376 17.9474C23.2376 17.9474 23.2725 17.5068 22.5258 17.5068C22.5258 17.5068 21.376 17.6412 21.3411 16.6258C21.3411 16.6258 21.142 15.5407 22.7299 15.578C22.7299 15.578 23.2277 15.8269 23.2725 15.1698C23.2725 15.1698 23.2053 10.7646 23.2376 10.441C23.2376 10.441 23.3745 10.0378 22.5955 9.96816C22.5955 9.96816 21.478 10.217 21.3511 9.47039C21.3511 9.47039 21.2839 8.35291 22.0305 8.28322C22.0305 8.28322 22.9439 8.35291 23.1132 8.11398C23.1132 8.11398 23.3173 8.24838 23.2824 7.43951L23.3173 6.04825C23.3173 6.04825 23.4143 5.67492 23.9917 5.71226C23.9917 5.71226 25.042 5.77946 25.1789 5.67492C25.2902 5.53533 25.3917 5.38813 25.4825 5.2344C25.4825 5.2344 26.0251 5.20205 26.1271 5.33893C26.1271 5.33893 26.9385 5.8815 30.0197 5.67492C30.0197 5.67492 30.495 5.67492 30.5946 5.81181C30.5946 5.81181 31.172 6.25233 31.5105 5.77946C32.1774 5.6875 32.8516 5.65834 33.524 5.69235C33.524 5.69235 35.1865 6.13038 36.3338 5.19458L36.7072 5.26427C36.7072 5.26427 37.1825 6.04078 37.521 5.80434C37.521 5.80434 38.5365 5.70479 38.7057 5.90639C38.7057 5.90639 39.0417 6.40415 38.8749 7.73568C38.8749 7.73568 38.6734 8.3106 39.6539 8.3106C39.6539 8.3106 40.7739 8.10651 40.6346 9.15431C40.6346 9.15431 40.9407 10.3415 39.079 10.1722C38.9557 10.3404 38.8847 10.5413 38.8749 10.7497C38.8749 10.7497 38.8401 14.6073 38.8077 15.0504C38.8077 15.0504 38.7729 15.6601 39.5843 15.6228C39.5843 15.6228 40.6694 15.5531 40.7067 16.5362C40.7067 16.5362 40.8386 17.8229 39.2806 17.5865C39.2806 17.5865 38.8077 17.6537 38.7356 17.9598L38.6733 19.6522C38.6733 19.6522 38.7057 20.4984 37.7599 20.2943C37.6231 20.2943 32.4786 20.3988 32.0356 20.262C32.0356 20.262 31.7868 20.2296 31.7295 20.3615" fill="white"/>
<path d="M20.802 26.0087C20.9301 25.9563 21.037 25.8626 21.1056 25.7424C21.1056 25.7424 21.8199 25.6727 21.9195 25.5706L24.1594 25.7424C24.1594 25.7424 26.3595 25.9091 27.3078 25.2272C27.5048 25.2285 27.7002 25.2639 27.8852 25.3317C27.8852 25.3317 28.3581 25.4338 28.4925 25.6354L29.7792 25.6005C29.7792 25.6005 30.5258 25.8494 30.4562 26.3148V26.9221C30.4562 26.9221 30.3193 28.1416 30.6577 28.2113H31.6533C31.6533 28.2113 32.4671 28.5821 32.3626 29.0575C32.3685 29.2517 32.3032 29.4414 32.179 29.5909C32.0548 29.7403 31.8802 29.8392 31.6881 29.8689C31.3797 29.9621 31.0615 30.0189 30.7399 30.0381C30.5925 30.2368 30.4983 30.4698 30.4661 30.7151L30.3666 35.1502C30.3666 35.1502 30.2969 35.6255 31.0112 35.5583C31.0112 35.5583 32.0565 35.4563 32.3626 36.0337C32.3626 36.0337 32.6364 37.0143 32.0938 37.1835L31.6881 37.3826L30.8046 37.5245C30.8046 37.5245 30.4362 37.5544 30.4014 38.199V39.3812C30.4014 39.3812 30.4362 40.1975 29.7891 40.1975L28.8409 40.2647C28.7363 40.3309 28.6174 40.3713 28.494 40.3826C28.3707 40.3938 28.2465 40.3756 28.1316 40.3294C28.1316 40.3294 22.3749 40.4339 22.1733 40.3642L21.4939 40.5011C21.4939 40.5011 20.7472 41.1781 20.1399 40.6704L19.6671 40.297C19.5118 40.3307 19.3526 40.3416 19.1942 40.3294C19.0573 40.2971 12.8278 40.3991 12.8278 40.3991C12.8278 40.3991 11.5062 40.536 11.4066 40.093C11.4066 40.093 11.2374 38.3682 11.3046 38.1616C11.3046 38.1616 11.3046 37.6639 11.001 37.624C11.001 37.624 9.67939 37.5544 9.64454 37.4175C9.64454 37.4175 8.93274 36.9197 9.14678 36.4045C9.22274 36.2061 9.35099 36.0319 9.51793 35.9004C9.68488 35.769 9.88429 35.6852 10.095 35.6579C10.095 35.6579 11.1777 35.8296 11.1777 35.5235C11.228 35.348 11.2515 35.1659 11.2474 34.9834C11.2474 34.9834 11.3146 30.9515 11.2797 30.6827C11.2797 30.6827 11.3817 30.1849 10.9412 30.1849C10.6827 30.2592 10.4058 30.2343 10.1647 30.1152C10.1647 30.1152 9.35086 30.1501 9.16918 29.5055C9.09343 29.2574 9.11754 28.9895 9.23638 28.7588C9.23638 28.7588 9.6097 28.0122 10.6923 28.2611C10.6923 28.2611 11.3021 28.4303 11.3693 27.9923L11.3369 26.3646C11.3369 26.3646 11.2001 25.9266 12.0463 25.6901C12.0463 25.6901 13.1314 25.9938 13.4674 25.4412C13.4674 25.4412 13.8407 24.6946 14.1419 25.1923C14.1419 25.1923 14.789 25.8046 16.5486 25.7399C16.5486 25.7399 19.5974 25.491 19.6646 25.6329C19.6646 25.6329 20.4112 25.7399 20.6128 25.9738L20.802 26.0087Z" fill="white"/>
<path d="M11.5982 20.3486C11.5982 20.3486 11.2249 21.5358 9.56485 20.3163L3.87787 20.1794C3.87787 20.1794 3.13122 20.4283 3.02917 19.6393C3.02917 19.6393 3.16606 18.0813 3.09637 17.9469C3.09637 17.9469 3.13122 17.5039 2.38706 17.5039C2.38706 17.5039 1.23722 17.6433 1.20486 16.6253C1.20486 16.6253 0.998288 15.5402 2.59114 15.5775C2.59114 15.5775 3.08891 15.8264 3.13122 15.1694C3.13122 15.1694 3.06402 10.7691 3.09637 10.4406C3.09637 10.4406 3.23326 10.0374 2.45425 9.96772C2.45425 9.96772 1.33677 10.2166 1.20984 9.46995C1.20984 9.46995 1.14015 8.35496 1.88431 8.28527C1.88431 8.28527 2.79771 8.35495 2.96695 8.11852C2.96695 8.11852 3.17104 8.25042 3.13619 7.43658L3.16357 6.0279C3.16357 6.0279 3.26561 5.65457 3.83804 5.68942C3.83804 5.68942 4.89082 5.75662 5.02771 5.65457C5.13886 5.51539 5.23952 5.36815 5.32886 5.21405C5.32886 5.21405 5.87391 5.18418 5.97346 5.31609C5.97346 5.31609 6.78482 5.86115 9.87097 5.65457C9.87097 5.65457 10.3414 5.65457 10.4434 5.79146C10.4434 5.79146 11.0183 6.23198 11.3568 5.75662C12.0311 5.67209 12.7118 5.64959 13.3902 5.68942C13.3902 5.68942 15.0453 6.12994 16.1976 5.19165L16.5684 5.25885C16.5684 5.25885 17.0438 6.03536 17.3848 5.79892C17.3848 5.79892 18.4002 5.69688 18.5694 5.90097C18.5694 5.90097 18.9079 6.39873 18.7362 7.73026C18.7362 7.73026 18.5346 8.30518 19.5152 8.30518C19.5152 8.30518 20.6327 8.10358 20.5107 9.14889C20.5107 9.14889 20.8169 10.3361 18.9552 10.1668C18.8323 10.3354 18.7605 10.5359 18.7486 10.7442C18.7486 10.7442 18.7163 14.6019 18.6839 15.0449C18.6839 15.0449 18.6491 15.6497 19.4629 15.6174C19.4629 15.6174 20.5456 15.5477 20.5779 16.5333C20.5779 16.5333 20.7123 17.8175 19.1568 17.5811C19.1568 17.5811 18.6839 17.6507 18.6142 17.9544L18.547 19.6468C18.547 19.6468 18.5819 20.493 17.6311 20.2914C17.4968 20.2914 12.3523 20.3909 11.9068 20.2565C11.9068 20.2565 11.658 20.2242 11.6032 20.3561" fill="white"/>
<path d="M31.7345 20.3491C31.7345 20.3491 31.3637 21.5362 29.7061 20.3167L24.0166 20.1798C24.0166 20.1798 23.27 20.4287 23.1704 19.6398C23.1704 19.6398 23.3073 18.0817 23.2376 17.9474C23.2376 17.9474 23.2725 17.5068 22.5258 17.5068C22.5258 17.5068 21.376 17.6412 21.3411 16.6258C21.3411 16.6258 21.142 15.5407 22.7299 15.578C22.7299 15.578 23.2277 15.8269 23.2725 15.1698C23.2725 15.1698 23.2053 10.7646 23.2376 10.441C23.2376 10.441 23.3745 10.0378 22.5955 9.96816C22.5955 9.96816 21.478 10.217 21.3511 9.47039C21.3511 9.47039 21.2839 8.35291 22.0305 8.28322C22.0305 8.28322 22.9439 8.35291 23.1132 8.11398C23.1132 8.11398 23.3173 8.24838 23.2824 7.43951L23.3173 6.04825C23.3173 6.04825 23.4143 5.67492 23.9917 5.71226C23.9917 5.71226 25.042 5.77946 25.1789 5.67492C25.2902 5.53533 25.3917 5.38813 25.4825 5.2344C25.4825 5.2344 26.0251 5.20205 26.1271 5.33893C26.1271 5.33893 26.9385 5.8815 30.0197 5.67492C30.0197 5.67492 30.495 5.67492 30.5946 5.81181C30.5946 5.81181 31.172 6.25233 31.5105 5.77946C32.1774 5.6875 32.8516 5.65834 33.524 5.69235C33.524 5.69235 35.1865 6.13038 36.3338 5.19458L36.7072 5.26427C36.7072 5.26427 37.1825 6.04078 37.521 5.80434C37.521 5.80434 38.5365 5.70479 38.7057 5.90639C38.7057 5.90639 39.0417 6.40415 38.8749 7.73568C38.8749 7.73568 38.6734 8.3106 39.6539 8.3106C39.6539 8.3106 40.7739 8.10651 40.6346 9.15431C40.6346 9.15431 40.9407 10.3415 39.079 10.1722C38.9557 10.3404 38.8847 10.5413 38.8749 10.7497C38.8749 10.7497 38.8401 14.6073 38.8077 15.0504C38.8077 15.0504 38.7729 15.6601 39.5843 15.6228C39.5843 15.6228 40.6694 15.5531 40.7067 16.5362C40.7067 16.5362 40.8386 17.8229 39.2806 17.5865C39.2806 17.5865 38.8077 17.6537 38.7356 17.9598L38.6733 19.6522C38.6733 19.6522 38.7057 20.4984 37.7599 20.2943C37.6231 20.2943 32.4786 20.3988 32.0356 20.262C32.0356 20.262 31.7868 20.2296 31.7295 20.3615" fill="#888888"/>
<path d="M31.7348 20.3516C31.7348 20.3516 31.364 21.5387 29.7064 20.3167L24.017 20.1798C24.017 20.1798 23.2703 20.4287 23.1708 19.6398C23.1708 19.6398 23.3076 18.0818 23.238 17.9474C23.238 17.9474 23.2728 17.5068 22.5261 17.5068C22.5261 17.5068 21.3763 17.6437 21.3415 16.6258C21.3415 16.6258 21.1399 15.5431 22.7302 15.578C22.7302 15.578 23.228 15.8269 23.2728 15.1698C23.2728 15.1698 23.2056 10.7671 23.238 10.441C23.238 10.441 23.3748 10.0354 22.5958 9.96816C22.5958 9.96816 21.4784 10.217 21.3514 9.47039C21.3514 9.47039 21.2842 8.35042 22.0309 8.28322C22.0309 8.28322 22.9443 8.35042 23.1135 8.11398C23.1135 8.11398 23.3176 8.24838 23.2828 7.43702L23.3176 6.04576C23.3176 6.04576 23.4147 5.67493 23.9946 5.71226C23.9946 5.71226 25.0424 5.77946 25.1792 5.67492C25.2897 5.5347 25.3912 5.38756 25.4829 5.2344C25.4829 5.2344 26.0254 5.20205 26.1275 5.33644C26.1275 5.33644 26.9388 5.87901 30.02 5.67492C30.02 5.67492 30.4954 5.67492 30.5949 5.81181C30.5949 5.81181 31.1723 6.24985 31.5108 5.77946C32.1778 5.6875 32.8519 5.65834 33.5243 5.69235C33.5243 5.69235 35.1868 6.13038 36.3367 5.19458L36.71 5.26178C36.71 5.26178 37.1829 6.03829 37.5214 5.80434C37.5214 5.80434 38.5368 5.70479 38.706 5.9039C38.706 5.9039 39.0445 6.40166 38.8753 7.73319C38.8753 7.73319 38.6737 8.3106 39.6568 8.3106C39.6568 8.3106 40.7743 8.10651 40.6349 9.15431C40.6349 9.15431 40.941 10.3415 39.0794 10.1722C38.9571 10.341 38.8862 10.5415 38.8753 10.7497C38.8753 10.7497 38.8429 14.6073 38.8081 15.0479C38.8081 15.0479 38.7732 15.6576 39.5871 15.6253C39.5871 15.6253 40.6722 15.5556 40.7071 16.5362C40.7071 16.5362 40.839 17.8229 39.281 17.5865C39.281 17.5865 38.8081 17.6562 38.7384 17.9598L38.6737 19.6522C38.6737 19.6522 38.706 20.4984 37.7603 20.2943C37.6259 20.2943 32.479 20.3989 32.036 20.262C32.031 20.2495 31.802 20.2172 31.7348 20.3516Z" fill="#888888" stroke="#888888" stroke-width="0.01"/>
<path d="M25.3444 6.3986C25.3444 6.3986 25.4116 7.07805 25.4116 7.24978C25.4116 7.42151 25.3095 17.0309 25.3095 17.0309C25.3339 17.2494 25.2962 17.4705 25.2006 17.6686C25.1051 17.8667 24.9556 18.0338 24.7694 18.1508C24.7694 18.1508 24.5977 18.2156 24.5653 17.7427L24.6325 7.58826C24.6325 7.58826 24.6997 6.3314 25.3444 6.3986Z" fill="white"/>
<path d="M25.3444 6.3986C25.3444 6.3986 25.4116 7.07556 25.4116 7.24729C25.4116 7.41902 25.312 17.0334 25.312 17.0334C25.3357 17.2518 25.2973 17.4725 25.2013 17.6701C25.1054 17.8677 24.9557 18.0344 24.7694 18.1509C24.7694 18.1509 24.5977 18.2181 24.5653 17.7427L24.6325 7.58826C24.6325 7.58826 24.6997 6.3314 25.3444 6.3986Z" stroke="#888888" stroke-width="0.01"/>
<path d="M24.2205 18.2503C24.2205 18.2503 24.2877 8.70318 24.2554 8.5439C24.223 8.38461 24.2877 8.68078 24.2877 8.68078C24.2877 8.68078 24.1857 7.02073 24.6262 6.34128C24.6262 6.34128 24.4893 5.76885 23.7128 6.47817L23.678 7.85698C23.678 7.85698 23.678 8.63847 22.9687 8.60363C22.9687 8.60363 22.1548 8.56879 21.7815 8.94211C21.7815 8.94211 21.5799 9.68876 22.3564 9.55436C22.3564 9.55436 23.5759 9.55436 23.6456 10.0521L23.5685 15.1692C23.5685 15.1692 23.8398 16.0203 22.894 16.0203C22.894 16.0203 21.7392 15.9482 21.774 16.6575C21.774 16.6575 22.0229 17.2672 22.9936 17.0657C22.9936 17.0657 23.7054 17.1976 23.6705 17.8795V19.1637C23.6705 19.1637 23.6033 19.6764 24.2803 19.7063H29.5616C29.5616 19.7063 29.8304 19.7411 29.8304 19.4027C29.8304 19.4027 29.798 19.1314 29.3923 19.1314L24.9995 19.0567C24.9995 19.0567 24.2877 19.3056 24.2205 18.2429" fill="white"/>
<path d="M25.236 18.2356C25.236 18.2356 25.1016 18.7085 25.6093 18.6089H29.0937L30.0395 18.808C30.0395 18.808 31.0201 18.5591 30.0395 18.0265C30.0395 18.0265 26.9259 18.0589 26.6546 17.9917L25.8732 17.7901C25.8732 17.7901 25.5372 17.6557 25.2335 18.2281" fill="white"/>
<path d="M25.2367 18.2359C25.2367 18.2359 25.0998 18.7113 25.6075 18.6117H29.0919L30.0401 18.8083C30.0401 18.8083 31.0357 18.5595 30.0401 18.0269C30.0401 18.0269 26.9266 18.0567 26.6553 17.992C26.6553 17.992 26.0107 17.8228 25.8738 17.7904C25.8763 17.7979 25.5403 17.661 25.2367 18.2359Z" stroke="#888888" stroke-width="0.01"/>
<path d="M31.0359 18.7112C31.0359 18.7112 30.3938 18.7112 30.4261 19.5574C30.4473 19.7387 30.5358 19.9053 30.6741 20.0243C30.8124 20.1432 30.9905 20.2058 31.1728 20.1996C31.3471 20.1674 31.5018 20.0679 31.6033 19.9226C31.7049 19.7773 31.7451 19.5978 31.7154 19.4231C31.7154 19.4231 31.342 18.5768 31.0384 18.7112" fill="white"/>
<path d="M31.504 18.3725C31.504 18.3725 31.8076 18.034 32.0018 18.034C32.0018 18.034 35.3866 18.3376 35.959 17.9319C35.959 17.9319 36.4692 17.8324 36.6061 17.9319C36.6061 17.9319 37.1039 18.3376 37.1039 18.5765C37.1039 18.5765 37.0715 18.8827 36.4617 18.7084L32.4323 18.7458C32.4323 18.7458 31.382 18.9946 31.4866 18.3725" fill="white"/>
<path d="M31.5014 18.3724C31.5014 18.3724 31.805 18.0339 31.9992 18.0339C31.9992 18.0339 35.384 18.3375 35.9564 17.9318C35.9564 17.9318 36.4691 17.8298 36.6035 17.9318C36.6035 17.9318 37.1013 18.3375 37.1013 18.5764C37.1013 18.5764 37.0689 18.8826 36.4592 18.7108L32.4273 18.7457C32.4273 18.7457 31.3969 18.9821 31.5014 18.3724Z" stroke="#888888" stroke-width="0.01"/>
<path d="M31.9395 19.4699C31.9395 19.4699 31.9395 19.1962 32.4148 19.1962L37.1436 19.1638C37.1436 19.1638 37.5841 19.4003 37.5841 18.5889C37.5841 18.5889 37.7584 14.898 37.7733 10.8362C37.7733 9.62662 37.833 8.34737 37.7907 7.1801C37.7907 7.1801 37.6862 6.68234 37.5418 6.56785C37.5418 6.56785 37.5418 6.02778 38.1192 6.23186C38.1192 6.23186 38.617 6.26671 38.4901 7.04571L38.5274 8.2279C38.5274 8.2279 38.4229 8.72567 39.3363 8.60123C39.3363 8.60123 40.2497 8.73811 40.2845 9.0741C40.2845 9.0741 40.5558 9.75355 39.4757 9.68387H38.6917C38.5914 9.74645 38.5133 9.83905 38.4687 9.94851C38.424 10.058 38.4149 10.1787 38.4428 10.2936L38.3432 15.2066C38.3432 15.2066 38.2736 16.0503 39.0899 16.0179C39.0899 16.0179 39.9361 15.9831 40.1053 16.2544C40.1053 16.2544 40.6852 17.1006 39.4284 17.0334C39.4284 17.0334 38.6494 16.9985 38.4801 17.1354C38.4801 17.1354 38.3457 17.3022 38.2312 18.8975C38.2312 18.8975 38.3009 19.8457 37.5891 19.7412C37.5891 19.7412 32.8802 19.8084 32.4422 19.7064C32.4422 19.7064 31.9693 19.8458 31.8997 19.4575" fill="white"/>
<path d="M25.8492 6.0927L25.7471 16.9639C25.7471 16.9639 25.7148 17.4617 26.561 17.5712C26.561 17.5712 27.5416 17.6708 27.7755 17.5712C27.7755 17.5712 28.4226 17.5364 30.0802 17.6036C30.0802 17.6036 30.4884 18.0142 30.5232 17.5015C30.5232 17.5015 30.7895 8.70349 30.6576 6.86922C30.6576 6.86922 30.6203 6.0927 30.0479 6.05786C30.0479 6.05786 27.4744 6.26692 27.2379 6.05786L26.22 5.78906C26.22 5.78906 25.8143 5.82391 25.8492 6.0927Z" fill="white"/>
<path d="M31.199 6.63518C31.199 6.63518 31.097 11.7497 31.1318 11.919L31.0646 16.2172L30.9277 17.7105C30.9277 17.7105 31.1318 18.0141 31.3011 17.8125C31.3011 17.8125 32.3837 17.5388 33.0607 17.6433C33.0607 17.6433 35.2309 17.8449 35.6689 17.5039C35.6689 17.5039 36.0074 17.6732 36.107 17.1331C36.107 17.1331 36.2414 7.65561 36.1792 7.48636C36.1792 7.48636 36.3086 6.12746 36.2414 5.99307C36.2414 5.99307 36.2115 5.68943 35.6341 5.95822C35.6341 5.95822 35.7013 6.22951 32.4857 6.12497C32.4857 6.12497 31.2687 6.09262 31.199 6.63518Z" fill="white"/>
<path d="M36.5827 6.50092L36.5478 17.2029C36.5478 17.2029 36.8191 18.1511 37.2596 18.0615C37.3091 17.8833 37.3416 17.7008 37.3567 17.5165L37.4936 7.32473C37.4936 7.32473 37.1551 5.70201 36.5827 6.51088" fill="white"/>
<path d="M36.5802 6.50113L36.5478 17.2031C36.5478 17.2031 36.8191 18.1513 37.2596 18.0617C37.3108 17.8838 37.3442 17.7012 37.3592 17.5167L37.4936 7.31249C37.4936 7.31249 37.1551 5.69226 36.5802 6.50113Z" stroke="#888888" stroke-width="0.01"/>
<path d="M32.426 9.70427C32.324 9.43548 33.0009 9.40063 33.0009 9.40063L33.3419 9.46783C33.5028 9.45301 33.665 9.4769 33.8148 9.53752C33.8464 9.58488 33.8673 9.63862 33.8759 9.69494C33.8844 9.75126 33.8805 9.80878 33.8643 9.86341C33.8482 9.91804 33.8202 9.96845 33.7824 10.0111C33.7446 10.0537 33.6979 10.0874 33.6455 10.11L33.5111 10.553C33.4763 10.9263 33.5111 14.1419 33.5111 14.1419C33.6053 14.3113 33.7188 14.4692 33.8496 14.6123C33.8496 14.9184 33.4763 14.8611 33.4763 14.8611L32.4957 14.896C32.1896 14.8611 32.2916 14.5227 32.2916 14.5227C32.6301 14.3534 32.7321 13.7436 32.7321 13.7436V10.3812L32.426 9.70427Z" fill="#888888"/>
<path d="M27.8857 10.1769C27.9206 10.9235 27.9206 11.9389 27.9206 11.9389C27.9944 12.0085 28.0838 12.0594 28.1813 12.0874C28.2788 12.1153 28.3816 12.1194 28.4811 12.0994C28.5805 12.0795 28.6737 12.0359 28.7529 11.9725C28.8321 11.9091 28.8948 11.8276 28.936 11.7349C29.7797 10.9235 28.936 10.1769 28.8016 9.97526C28.6672 9.77366 27.9878 9.94042 27.9878 9.94042L27.8857 10.1769ZM27.8534 12.8548L27.7862 13.9026L28.0873 14.4004C28.2939 14.6717 27.9529 14.8758 27.9529 14.8758L26.8703 14.7737C26.6687 14.6717 26.8703 14.3332 26.8703 14.3332C26.9593 14.257 27.0322 14.1639 27.0848 14.0592C27.1373 13.9545 27.1685 13.8403 27.1764 13.7234L27.1416 11.7598L27.1764 10.3386C27.1764 10.1669 26.9051 9.86575 26.9051 9.86575C26.6563 9.83091 26.7359 9.52727 26.7359 9.52727C26.8031 9.35554 27.378 9.45758 27.378 9.45758H28.7967C30.1506 9.89811 29.9465 10.8812 29.9465 10.8812C30.051 11.8618 29.0007 12.27 29.0007 12.27L28.931 12.81L29.9141 14.3656C29.9601 14.394 29.9973 14.4347 30.0215 14.483C30.0456 14.5314 30.0559 14.5855 30.051 14.6393C29.9141 15.0127 29.3716 14.6393 29.3716 14.6393L28.1545 12.7428C28.05 12.606 27.8484 12.8449 27.8484 12.8449" fill="#888888"/>
<path d="M20.802 26.0087C20.9301 25.9563 21.037 25.8626 21.1056 25.7424C21.1056 25.7424 21.8199 25.6727 21.9195 25.5706L24.1594 25.7424C24.1594 25.7424 26.3595 25.9091 27.3078 25.2272C27.5048 25.2285 27.7002 25.2639 27.8852 25.3317C27.8852 25.3317 28.3581 25.4338 28.4925 25.6354L29.7792 25.6005C29.7792 25.6005 30.5258 25.8494 30.4562 26.3148V26.9221C30.4562 26.9221 30.3193 28.1416 30.6577 28.2113H31.6533C31.6533 28.2113 32.4671 28.5821 32.3626 29.0575C32.3685 29.2517 32.3032 29.4414 32.179 29.5909C32.0548 29.7403 31.8802 29.8392 31.6881 29.8689C31.3797 29.9621 31.0615 30.0189 30.7399 30.0381C30.5925 30.2368 30.4983 30.4698 30.4661 30.7151L30.3666 35.1502C30.3666 35.1502 30.2969 35.6255 31.0112 35.5583C31.0112 35.5583 32.0565 35.4563 32.3626 36.0337C32.3626 36.0337 32.6364 37.0143 32.0938 37.1835L31.6881 37.3826L30.8046 37.5245C30.8046 37.5245 30.4362 37.5544 30.4014 38.199V39.3812C30.4014 39.3812 30.4362 40.1975 29.7891 40.1975L28.8409 40.2647C28.7363 40.3309 28.6174 40.3713 28.494 40.3826C28.3707 40.3938 28.2465 40.3756 28.1316 40.3294C28.1316 40.3294 22.3749 40.4339 22.1733 40.3642L21.4939 40.5011C21.4939 40.5011 20.7472 41.1781 20.1399 40.6704L19.6671 40.297C19.5118 40.3307 19.3526 40.3416 19.1942 40.3294C19.0573 40.2971 12.8278 40.3991 12.8278 40.3991C12.8278 40.3991 11.5062 40.536 11.4066 40.093C11.4066 40.093 11.2374 38.3682 11.3046 38.1616C11.3046 38.1616 11.3046 37.6639 11.001 37.624C11.001 37.624 9.67939 37.5544 9.64454 37.4175C9.64454 37.4175 8.93274 36.9197 9.14678 36.4045C9.22274 36.2061 9.35099 36.0319 9.51793 35.9004C9.68488 35.769 9.88429 35.6852 10.095 35.6579C10.095 35.6579 11.1777 35.8296 11.1777 35.5235C11.228 35.348 11.2515 35.1659 11.2474 34.9834C11.2474 34.9834 11.3146 30.9515 11.2797 30.6827C11.2797 30.6827 11.3817 30.1849 10.9412 30.1849C10.6827 30.2592 10.4058 30.2343 10.1647 30.1152C10.1647 30.1152 9.35086 30.1501 9.16918 29.5055C9.09343 29.2574 9.11754 28.9895 9.23638 28.7588C9.23638 28.7588 9.6097 28.0122 10.6923 28.2611C10.6923 28.2611 11.3021 28.4303 11.3693 27.9923L11.3369 26.3646C11.3369 26.3646 11.2001 25.9266 12.0463 25.6901C12.0463 25.6901 13.1314 25.9938 13.4674 25.4412C13.4674 25.4412 13.8407 24.6946 14.1419 25.1923C14.1419 25.1923 14.789 25.8046 16.5486 25.7399C16.5486 25.7399 19.5974 25.491 19.6646 25.6329C19.6646 25.6329 20.4112 25.7399 20.6128 25.9738L20.802 26.0087Z" fill="#888888"/>
<path d="M20.8021 25.9655C20.9304 25.9122 21.0372 25.8176 21.1057 25.6967C21.1057 25.6967 21.8175 25.6295 21.9196 25.5275L24.1595 25.6967C24.1595 25.6967 26.3596 25.866 27.3079 25.1865C27.5049 25.1878 27.7003 25.2232 27.8853 25.291C27.8853 25.291 28.3582 25.3931 28.4926 25.5922L29.7818 25.5598C29.7818 25.5598 30.5284 25.8087 30.4563 26.2716V26.8814C30.4563 26.8814 30.3219 28.1009 30.6603 28.1681H31.6434C31.6434 28.1681 32.4548 28.5415 32.3552 29.0143C32.3611 29.2092 32.2956 29.3996 32.1709 29.5495C32.0462 29.6994 31.871 29.7985 31.6783 29.8282C31.3699 29.9214 31.0516 29.9783 30.73 29.9974C30.5842 30.197 30.4901 30.4296 30.4563 30.6744L30.3567 35.1095C30.3567 35.1095 30.287 35.5824 30.9988 35.5152C30.9988 35.5152 32.0466 35.4156 32.3552 35.9905C32.3552 35.9905 32.6265 36.9711 32.084 37.1429L31.6783 37.3445L30.7898 37.4739C30.7898 37.4739 30.4189 37.5062 30.3866 38.1484V39.3355C30.3866 39.3355 30.4189 40.1469 29.7768 40.1469L28.8286 40.2166C28.7237 40.2834 28.6045 40.3244 28.4808 40.336C28.357 40.3477 28.2322 40.3298 28.1168 40.2838C28.1168 40.2838 22.3601 40.3858 22.1585 40.3136L21.479 40.453C21.479 40.453 20.7324 41.13 20.1251 40.6198L19.6522 40.2464C19.497 40.2798 19.3379 40.2924 19.1794 40.2838C19.0425 40.2464 12.8129 40.351 12.8129 40.351C12.8129 40.351 11.4914 40.4879 11.3893 40.0448C11.3893 40.0448 11.2226 38.3176 11.2898 38.1135C11.2898 38.1135 11.2898 37.6157 10.9836 37.5734C10.9836 37.5734 9.66456 37.5062 9.62971 37.3718C9.62971 37.3718 8.91791 36.8616 9.13195 36.3564C9.2079 36.1579 9.33616 35.9838 9.5031 35.8523C9.67005 35.7209 9.86946 35.637 10.0802 35.6097C10.0802 35.6097 11.1628 35.784 11.1628 35.4754C11.2131 35.3007 11.2366 35.1194 11.2325 34.9378C11.2325 34.9378 11.2997 30.9059 11.2649 30.6346C11.2649 30.6346 11.3669 30.1368 10.9264 30.1368C10.6673 30.211 10.3899 30.1871 10.1474 30.0696C10.1474 30.0696 9.33603 30.102 9.16679 29.4598C9.09105 29.2117 9.11516 28.9438 9.23399 28.7132C9.23399 28.7132 9.60482 27.9665 10.69 28.2154C10.69 28.2154 11.2997 28.3872 11.3669 27.9491L11.3321 26.3214C11.3321 26.3214 11.1977 25.8809 12.0439 25.6445C12.0439 25.6445 13.1265 25.9481 13.465 25.3956C13.465 25.3956 13.8383 24.6489 14.1395 25.1467C14.1395 25.1467 14.7866 25.7589 16.5462 25.6917C16.5462 25.6917 19.595 25.4429 19.6622 25.5872C19.6622 25.5872 20.4088 25.6917 20.6104 25.9282L20.8021 25.9655Z" stroke="#888888" stroke-width="0.01"/>
<path d="M21.6795 39.3159C21.8884 39.2069 22.124 39.1594 22.3589 39.179C22.6302 39.2462 26.5899 39.1467 26.5899 39.1467C26.5899 39.1467 28.3172 39.2811 28.581 39.0421L28.9842 38.9077C29.0893 38.7721 29.1486 38.6065 29.1534 38.4349C29.1534 38.1611 29.1883 37.2477 29.1883 37.2477L29.2928 36.9117C29.2928 36.9117 29.2579 36.5732 29.2928 27.5313C29.2928 27.5313 29.4247 26.8245 28.9842 26.3815C28.9842 26.3815 28.9842 26.1127 29.1186 26.1326C29.253 26.1525 29.1883 26.1674 29.1883 26.1674C29.1883 26.1674 29.798 25.9957 29.8976 26.2321C29.8976 26.2321 30.1714 27.0435 29.9324 27.5189C29.9324 27.5189 29.8652 28.5144 30.3754 28.5144C30.4598 28.5813 30.5597 28.6258 30.6659 28.6436C30.7721 28.6615 30.8811 28.6521 30.9827 28.6164C30.9827 28.6164 31.8638 28.7185 31.8638 28.9873C31.8657 29.0632 31.8502 29.1386 31.8186 29.2077C31.7869 29.2767 31.7398 29.3376 31.6809 29.3857C31.6221 29.4337 31.553 29.4676 31.479 29.4849C31.405 29.5021 31.328 29.5021 31.254 29.485L30.4401 29.5497C30.2794 29.5877 30.1399 29.6872 30.0515 29.8267C29.9632 29.9662 29.9329 30.1348 29.9673 30.2964C30.037 30.9385 29.9324 35.5453 29.9324 35.5453C29.9324 35.5453 29.9324 36.0879 30.7811 36.0431C30.7811 36.0431 31.8289 36.0083 31.8289 36.3119C31.8289 36.3119 32.1002 36.9889 31.356 37.0237C31.356 37.0237 29.9324 36.9889 30.037 37.3945C30.0003 37.7699 29.943 38.143 29.8652 38.512C29.8652 38.512 30.0021 39.2935 29.8304 39.4279C29.8304 39.4279 29.7308 39.8659 28.8174 39.8012C28.8174 39.8012 22.9936 39.7664 22.0802 39.8336C22.0802 39.8336 21.5376 39.7664 21.672 39.2935" fill="white"/>
<path d="M20.6334 38.6714C20.7887 38.6964 20.9307 38.7741 21.0354 38.8916C21.1401 39.009 21.2012 39.1588 21.2083 39.316C21.2083 39.8561 21.2432 40.1597 20.9022 40.2269C20.8182 40.2547 20.7293 40.2644 20.6413 40.2552C20.5533 40.2461 20.4683 40.2184 20.3918 40.1739C20.3154 40.1294 20.2492 40.0692 20.1977 39.9973C20.1463 39.9253 20.1107 39.8433 20.0933 39.7565C19.9888 39.316 20.158 38.761 20.6334 38.6714Z" fill="white"/>
<path d="M21.3132 38.4026C21.3132 38.4026 21.9205 37.9919 22.1594 38.0641C22.1594 38.0641 25.2381 38.2632 26.1889 38.0989C27.1396 37.9347 26.5597 38.0641 26.5597 38.0641C26.5597 38.0641 27.3736 38.0641 27.6075 37.7555C27.6803 37.739 27.7565 37.7469 27.8244 37.7779C27.8923 37.8089 27.9481 37.8614 27.9833 37.9272L28.4811 38.4722C28.4811 38.4722 28.5184 38.8082 27.941 38.7734C27.941 38.7734 22.4208 38.7734 22.254 38.8082C22.254 38.8082 21.2037 38.975 21.3058 38.4026" fill="white"/>
<path d="M21.3105 38.4031C21.3105 38.4031 21.9202 37.9925 22.1567 38.0622C22.1567 38.0622 25.2403 38.2638 26.1886 38.0995C27.1368 37.9352 26.5594 38.0622 26.5594 38.0622C26.5594 38.0622 27.3732 38.0622 27.6097 37.756C27.6821 37.7398 27.7579 37.7477 27.8254 37.7788C27.8928 37.8098 27.9482 37.8622 27.983 37.9278L28.4808 38.4728C28.4808 38.4728 28.5181 38.8088 27.9407 38.774C27.9407 38.774 22.4205 38.774 22.2512 38.8088C22.2587 38.8088 21.2109 38.9681 21.3105 38.4031Z" stroke="#888888" stroke-width="0.01"/>
<path d="M13.2864 26.3818C13.2864 26.3818 13.5229 26.3818 13.488 26.7875L13.4208 37.0141C13.4439 37.2252 13.4126 37.4388 13.3298 37.6344C13.2471 37.83 13.1156 38.0011 12.948 38.1316C12.948 38.1316 12.6418 38.5024 12.6418 37.9275L12.7787 27.4993C12.7787 27.4993 12.8111 26.7203 13.2765 26.3818" fill="white"/>
<path d="M13.2887 26.3818C13.2887 26.3818 13.5252 26.3818 13.4928 26.7875L13.4231 37.0141C13.4459 37.2254 13.4142 37.4391 13.331 37.6348C13.2478 37.8304 13.1159 38.0014 12.9478 38.1316C12.9478 38.1316 12.6416 38.5024 12.6416 37.93L12.7785 27.4993C12.7785 27.4993 12.8134 26.7203 13.2887 26.3818Z" stroke="#888888" stroke-width="0.01"/>
<path d="M12.7428 26.4491C12.7428 26.4491 12.3371 27.1957 12.3695 27.3674L12.3371 29.6323C12.3371 29.6323 12.3023 31.0883 12.3371 31.2575C12.3719 31.4267 12.3023 35.6926 12.3023 35.6926C12.3023 35.6926 12.2674 36.5039 12.3023 36.7777V38.6045C12.3023 38.6045 12.2351 39.4184 12.8423 39.2118C12.8423 39.2118 18.8031 39.0774 19.1764 39.1819C19.1764 39.1819 19.7165 39.2815 19.5149 39.5528C19.5149 39.5528 19.5149 39.8016 19.1416 39.722C17.3635 39.8812 15.5777 39.9377 13.7931 39.8912C13.7931 39.8912 12.0982 39.9908 11.9961 39.7917C11.9961 39.7917 11.7273 39.7568 11.7273 38.7738C11.7336 38.4117 11.7112 38.0496 11.6601 37.6911C11.6601 37.6911 11.7273 37.2133 10.8811 37.1137C10.8811 37.1137 9.69644 37.3178 9.6616 36.6159C9.6616 36.6159 9.83084 36.1182 10.9832 36.1729C10.9832 36.1729 11.8294 36.3098 11.6601 35.6304L11.7597 30.6228C11.7597 30.6228 11.8642 29.7393 11.2868 29.7045C11.049 29.6883 10.8101 29.6999 10.575 29.7393C10.575 29.7393 9.5944 29.7393 9.6616 29.1669C9.6616 29.1669 10.0001 28.5571 10.9832 28.6915C10.9832 28.6915 11.7298 28.8259 11.7597 27.9822C11.7597 27.9822 11.7273 26.2549 12.133 26.1877C12.133 26.1877 12.9792 26.2201 12.7428 26.4565" fill="white"/>
<path d="M13.762 37.6558C13.9276 37.8134 14.1229 37.9366 14.3365 38.0182C14.5501 38.0998 14.7778 38.1382 15.0064 38.1311L19.6057 38.1983C19.6057 38.1983 20.1184 38.2332 20.0861 38.502C20.0861 38.502 20.0139 38.9077 19.4066 38.7708L13.8665 38.7185L13.2542 38.7533C13.2542 38.7533 12.8486 38.6837 13.5031 37.9071L13.762 37.6558Z" fill="white"/>
<path d="M13.757 37.6538C13.9244 37.8128 14.1217 37.9368 14.3375 38.0189C14.5533 38.1009 14.7832 38.1392 15.0139 38.1317L19.6157 38.1989C19.6157 38.1989 20.1135 38.2337 20.0936 38.5025C20.0936 38.5025 20.0239 38.9082 19.4166 38.7738L13.8641 38.719L13.2543 38.7539C13.2543 38.7539 12.8486 38.6867 13.5032 37.9052L13.757 37.6538Z" stroke="#888888" stroke-width="0.01"/>
<path d="M27.9835 37.2257C27.9835 37.2257 28.3891 38.0047 28.5932 38.1117C28.5932 38.1117 28.9641 38.5498 28.8645 37.7708L28.9317 28.0195C28.8659 27.7295 28.8659 27.4285 28.9317 27.1385L28.526 26.3918C28.526 26.3918 28.083 26.0534 28.083 26.5934L28.0158 36.9768L27.9835 37.2257Z" fill="white"/>
<path d="M27.9786 37.2257C27.9786 37.2257 28.3868 38.0047 28.5909 38.1142C28.5909 38.1142 28.9642 38.5498 28.8622 37.7708L28.9294 28.017C28.8648 27.7278 28.8648 27.4278 28.9294 27.1385L28.5237 26.3918C28.5237 26.3918 28.0807 26.0534 28.0807 26.5934L28.0135 36.9768L27.9786 37.2257Z" stroke="#888888" stroke-width="0.01"/>
<path d="M20.4653 32.576C20.4813 33.1063 20.458 33.637 20.3956 34.1638C20.3409 34.5919 20.5325 36.5705 20.3608 37.586C20.3608 37.586 20.3309 37.9245 19.6141 37.6208C19.6141 37.6208 15.2811 37.7204 15.1342 37.586C15.1342 37.586 13.9495 37.6208 13.8475 37.0111C13.8475 37.0111 14.0167 32.3719 13.9147 32.2002C13.9147 32.2002 13.8475 29.6615 13.9147 29.4251C13.9147 29.4251 14.0167 27.0881 13.9495 26.8193C13.9683 26.546 13.9448 26.2715 13.8799 26.0054C13.8799 26.0054 13.8799 25.667 14.4573 25.8686C14.4573 25.8686 14.6589 26.2419 15.7763 26.0751C16.3037 26.1538 16.839 26.1647 17.3692 26.1075C17.3692 26.1075 19.094 25.9731 19.537 26.1075C19.7345 26.0734 19.9375 26.1185 20.102 26.2331C20.2665 26.3478 20.3791 26.5226 20.4155 26.7197L20.3807 28.8178L20.5823 29.4948L20.8312 29.3255L20.9307 28.8278L20.9656 26.5878C21.0235 26.4533 21.1178 26.3376 21.2378 26.2537C21.3578 26.1697 21.4988 26.1208 21.645 26.1125C21.645 26.1125 22.4912 26.0104 22.6405 26.0801C23.4596 26.191 24.2882 26.2127 25.1119 26.1448C25.6097 26.0453 25.7167 26.4833 27.2449 25.7068C27.2449 25.7068 27.6506 25.7416 27.6506 26.0104C27.6506 26.0104 27.5112 28.8925 27.6506 29.4301C27.6506 29.4301 27.6506 34.7114 27.546 35.0847L27.6132 36.7771C27.6132 36.7771 27.6804 37.5238 26.4982 37.591C26.4982 37.591 27.2449 37.693 22.5684 37.5561C22.0314 37.5548 21.5007 37.6703 21.0128 37.8946C21.0128 37.8946 20.8436 37.8598 20.8436 37.4217C20.9215 36.3729 20.9215 35.3197 20.8436 34.2709L20.7764 32.5436L20.4653 32.576Z" fill="white"/>
<path d="M17.4151 30.1744C17.4151 30.1744 17.5171 32.6782 17.4151 33.0167L17.3827 33.5592C17.4531 33.7504 17.5693 33.9213 17.7212 34.057C17.7212 34.057 17.8904 34.5299 17.4723 34.4975C17.124 34.4661 16.7742 34.4537 16.4245 34.4602C16.4245 34.4602 15.9491 34.4602 16.4245 33.8554C16.5552 33.593 16.6021 33.2967 16.5589 33.0067C16.5589 33.0067 16.5589 30.1645 16.6286 29.9977C16.6286 29.9977 16.6958 29.6219 16.4569 29.5199L16.0512 29.5547L15.5534 30.0276C15.5534 30.0276 15.4514 30.5253 15.2149 29.9977V29.7239L15.5211 28.9101L15.7227 28.8752C15.9005 28.9931 16.094 29.0853 16.2976 29.149H17.8904L18.4654 28.8752C18.4654 28.8752 18.7142 28.9101 18.6371 29.2162C18.6371 29.2162 18.7366 29.9977 18.2961 30.0948C18.1991 30.0489 18.1128 29.983 18.0429 29.9016C17.973 29.8201 17.921 29.7248 17.8904 29.6219C17.8904 29.6219 17.4499 29.3879 17.4151 30.1645" fill="#888888"/>
<path d="M24.8963 29.2615C24.7223 29.2461 24.547 29.2685 24.3825 29.3271C24.2179 29.3858 24.068 29.4793 23.943 29.6012C23.8179 29.7232 23.7207 29.8707 23.658 30.0338C23.5953 30.1968 23.5686 30.3715 23.5797 30.5458C23.5797 30.5458 23.4403 31.4965 24.8639 32.1063C24.8639 32.1063 25.9142 32.604 25.8445 33.2561C25.8445 33.2561 25.7101 34.406 24.6001 33.831C24.6001 33.831 24.06 33.5598 24.1023 33.2561C24.1023 33.2561 23.9306 32.8828 23.729 32.95C23.729 32.95 23.4801 33.0172 23.5946 34.1347C23.5946 34.1347 23.5946 34.5752 24.0924 34.1347L24.3587 34.2044C24.3587 34.2044 25.2746 34.951 26.0511 34.0326C26.0511 34.0326 26.8998 33.2561 26.3 32.3079C25.9899 31.8696 25.5703 31.5203 25.0829 31.2949C25.0829 31.2949 24.3363 30.9515 24.1695 30.3765C24.1695 30.3765 24.4184 29.3611 25.3169 29.9012C25.468 30.0907 25.6518 30.2516 25.8595 30.3765C25.8595 30.3765 26.1307 30.3765 26.0611 29.7643L25.9988 29.2665C25.9988 29.2665 25.9292 28.8882 25.4538 29.2665C25.4538 29.2665 25.0133 29.4333 24.9112 29.2665" fill="#888888"/>
<path d="M20.2328 30.7817C20.198 30.951 19.959 31.8992 19.959 31.8992L20.1631 32.2427C20.1631 32.2427 20.7057 32.2725 20.9098 32.2725C21.1139 32.2725 21.1587 32.1058 21.1587 31.9341C21.0588 31.5318 20.9341 31.1362 20.7853 30.7494L20.6136 30.5478L20.2328 30.7817ZM20.7729 28.5418C20.9234 28.6723 21.0201 28.8542 21.0442 29.052C21.5428 30.4946 21.9583 31.9646 22.2886 33.4547C22.4126 33.6819 22.5732 33.8871 22.764 34.062C23.3389 34.2661 22.764 34.4328 22.764 34.4328C22.5151 34.5374 21.7485 34.403 21.7485 34.403C21.3403 34.3308 21.4996 34.1989 21.4996 34.1989C21.6714 34.0297 21.537 33.3502 21.537 33.3502C21.4643 33.0966 21.3499 32.8569 21.1985 32.6409C21.0641 32.5712 20.8252 32.8898 20.8252 32.8898C20.8252 32.8898 20.4543 33.0242 20.4195 32.8898C20.3846 32.7554 20.1482 32.6235 20.1482 32.6235C19.7425 32.6235 19.5733 33.6314 19.5733 33.6314C19.8222 34.4801 19.5733 34.3432 19.5733 34.3432C19.3717 34.617 18.7271 34.4154 18.7271 34.4154C18.4209 34.3432 18.6275 34.1068 18.6275 34.1068C18.7414 34.0772 18.8452 34.0174 18.928 33.9337C19.0108 33.8501 19.0695 33.7456 19.0979 33.6314C19.2696 33.3975 20.3423 28.9947 20.3423 28.9947C20.4469 28.7907 20.5141 28.385 20.7505 28.5542" fill="#888888"/>
<path d="M11.5982 20.3486C11.5982 20.3486 11.2249 21.5358 9.56485 20.3163L3.87787 20.1794C3.87787 20.1794 3.13122 20.4283 3.02917 19.6393C3.02917 19.6393 3.16606 18.0813 3.09637 17.9469C3.09637 17.9469 3.13122 17.5039 2.38706 17.5039C2.38706 17.5039 1.23722 17.6433 1.20486 16.6253C1.20486 16.6253 0.998288 15.5402 2.59114 15.5775C2.59114 15.5775 3.08891 15.8264 3.13122 15.1694C3.13122 15.1694 3.06402 10.7691 3.09637 10.4406C3.09637 10.4406 3.23326 10.0374 2.45425 9.96772C2.45425 9.96772 1.33677 10.2166 1.20984 9.46995C1.20984 9.46995 1.14015 8.35496 1.88431 8.28527C1.88431 8.28527 2.79771 8.35495 2.96695 8.11852C2.96695 8.11852 3.17104 8.25042 3.13619 7.43658L3.16357 6.0279C3.16357 6.0279 3.26561 5.65457 3.83804 5.68942C3.83804 5.68942 4.89082 5.75662 5.02771 5.65457C5.13886 5.51539 5.23952 5.36815 5.32886 5.21405C5.32886 5.21405 5.87391 5.18418 5.97346 5.31609C5.97346 5.31609 6.78482 5.86115 9.87097 5.65457C9.87097 5.65457 10.3414 5.65457 10.4434 5.79146C10.4434 5.79146 11.0183 6.23198 11.3568 5.75662C12.0311 5.67209 12.7118 5.64959 13.3902 5.68942C13.3902 5.68942 15.0453 6.12994 16.1976 5.19165L16.5684 5.25885C16.5684 5.25885 17.0438 6.03536 17.3848 5.79892C17.3848 5.79892 18.4002 5.69688 18.5694 5.90097C18.5694 5.90097 18.9079 6.39873 18.7362 7.73026C18.7362 7.73026 18.5346 8.30518 19.5152 8.30518C19.5152 8.30518 20.6327 8.10358 20.5107 9.14889C20.5107 9.14889 20.8169 10.3361 18.9552 10.1668C18.8323 10.3354 18.7605 10.5359 18.7486 10.7442C18.7486 10.7442 18.7163 14.6019 18.6839 15.0449C18.6839 15.0449 18.6491 15.6497 19.4629 15.6174C19.4629 15.6174 20.5456 15.5477 20.5779 16.5333C20.5779 16.5333 20.7123 17.8175 19.1568 17.5811C19.1568 17.5811 18.6839 17.6507 18.6142 17.9544L18.547 19.6468C18.547 19.6468 18.5819 20.493 17.6311 20.2914C17.4968 20.2914 12.3523 20.3909 11.9068 20.2565C11.9068 20.2565 11.658 20.2242 11.6032 20.3561" fill="#888888"/>
<path d="M11.5958 20.3511C11.5958 20.3511 11.2225 21.5383 9.56243 20.3163L3.87296 20.1794C3.87296 20.1794 3.12631 20.4283 3.02675 19.6393C3.02675 19.6393 3.16364 18.0813 3.09395 17.9469C3.09395 17.9469 3.1288 17.5064 2.38215 17.5064C2.38215 17.5064 1.23231 17.6433 1.19995 16.6278C1.19995 16.6278 0.995867 15.5402 2.58872 15.5775C2.58872 15.5775 3.08649 15.8264 3.1288 15.1694C3.1288 15.1694 3.0616 10.7666 3.09395 10.4406C3.09395 10.4406 3.23084 10.0374 2.45183 9.96772C2.45183 9.96772 1.33435 10.2166 1.20742 9.46995C1.20742 9.46995 1.13773 8.35496 1.88438 8.28776C1.88438 8.28776 2.79778 8.35496 2.96702 8.12101C2.96702 8.12101 3.17111 8.25291 3.13626 7.43907L3.16115 6.0279C3.16115 6.0279 3.26319 5.65457 3.83562 5.68942C3.83562 5.68942 4.8884 5.75662 5.0228 5.65457C5.13499 5.51562 5.2365 5.36835 5.32643 5.21405C5.32643 5.21405 5.869 5.1817 5.97104 5.31609C5.97104 5.31609 6.7824 5.85866 9.86855 5.65457C9.86855 5.65457 10.3389 5.65457 10.441 5.79146C10.441 5.79146 11.0159 6.22949 11.3544 5.75662C12.0287 5.67209 12.7093 5.64959 13.3878 5.68942C13.3878 5.68942 15.0428 6.12745 16.1952 5.19165L16.5685 5.26134C16.5685 5.26134 17.0414 6.03785 17.3823 5.80141C17.3823 5.80141 18.3978 5.69937 18.5695 5.90097C18.5695 5.90097 18.9055 6.39873 18.7363 7.73026C18.7363 7.73026 18.5322 8.30767 19.5128 8.30767C19.5128 8.30767 20.6327 8.10607 20.5083 9.15138C20.5083 9.15138 20.8144 10.3386 18.9528 10.1693C18.8294 10.3375 18.7585 10.5384 18.7487 10.7467C18.7487 10.7467 18.7139 14.6044 18.6815 15.0449C18.6815 15.0449 18.6467 15.6522 19.4605 15.6223C19.4605 15.6223 20.5432 15.5502 20.578 16.5357C20.578 16.5357 20.7099 17.82 19.1544 17.5835C19.1544 17.5835 18.6815 17.6532 18.6118 17.9569L18.5446 19.6493C18.5446 19.6493 18.582 20.4955 17.6287 20.2939C17.4943 20.2939 12.3499 20.3934 11.9044 20.259C11.8994 20.2491 11.663 20.2167 11.5958 20.3511Z" fill="#888888" stroke="#888888" stroke-width="0.01"/>
<path d="M5.19554 6.40084C5.19554 6.40084 5.26523 7.0778 5.26523 7.24704C5.26523 7.41628 5.15323 17.0306 5.15323 17.0306C5.17862 17.249 5.14131 17.47 5.04567 17.6679C4.95003 17.8658 4.80001 18.0324 4.61316 18.1481C4.61316 18.1481 4.44392 18.2178 4.40908 17.7449L4.47877 7.58801C4.47877 7.58801 4.54597 6.3436 5.18808 6.40084" fill="white"/>
<path d="M5.20054 6.40153C5.20054 6.40153 5.26774 7.07601 5.26774 7.24525C5.26774 7.41449 5.15575 17.0313 5.15575 17.0313C5.18046 17.2502 5.14261 17.4716 5.04657 17.6699C4.95054 17.8681 4.80026 18.035 4.61318 18.1513C4.61318 18.1513 4.44394 18.221 4.4091 17.7456L4.47629 7.5887C4.47629 7.5887 4.55345 6.33433 5.20054 6.40153Z" stroke="#888888" stroke-width="0.01"/>
<path d="M4.0789 18.2509C4.0789 18.2509 4.1461 8.70378 4.11374 8.53205C4.08139 8.36032 4.1461 8.66894 4.1461 8.66894C4.1461 8.66894 4.04654 7.01387 4.48707 6.33442C4.48707 6.33442 4.35018 5.75949 3.57118 6.46881L3.54131 7.85758C3.54131 7.85758 3.54131 8.63658 2.82702 8.60423C2.82702 8.60423 2.01317 8.56939 1.63984 8.9452C1.63984 8.9452 1.43825 9.69185 2.21476 9.55496C2.21476 9.55496 3.43678 9.55496 3.50398 10.0527L3.43678 15.1698C3.43678 15.1698 3.70806 16.016 2.75733 16.016C2.75733 16.016 1.60749 15.9513 1.63984 16.6631C1.63984 16.6631 1.88873 17.2728 2.86186 17.0663C2.86186 17.0663 3.57118 17.2031 3.54131 17.8776V19.1668C3.54131 19.1668 3.46913 19.6646 4.1461 19.7069H9.42989C9.42989 19.7069 9.69868 19.7418 9.69868 19.4008C9.69868 19.4008 9.66633 19.1345 9.26065 19.1345L4.86039 19.0573C4.86039 19.0573 4.15854 19.3062 4.0789 18.2509Z" fill="white"/>
<path d="M4.99655 18.3106C4.99655 18.3106 4.86216 18.786 5.36739 18.6814H8.85176L9.8 18.883C9.8 18.883 10.7955 18.6341 9.8 18.104C9.8 18.104 6.68647 18.1414 6.41519 18.0717C6.41519 18.0717 5.77307 17.9024 5.63618 17.8701C5.63618 17.8701 5.2977 17.7357 4.99406 18.3106" fill="white"/>
<path d="M4.99169 18.3101C4.99169 18.3101 4.85729 18.788 5.36501 18.6834H8.84938L9.80011 18.8875C9.80011 18.8875 10.7956 18.6511 9.80011 18.106C9.80011 18.106 6.6841 18.1434 6.41281 18.0737L5.63381 17.8721C5.63381 17.8721 5.29533 17.7427 4.99169 18.3101Z" stroke="#888888" stroke-width="0.01"/>
<path d="M10.7828 18.8079C10.7828 18.8079 10.1308 18.8079 10.1731 19.6367C10.1936 19.8186 10.2818 19.9861 10.4201 20.106C10.5584 20.2259 10.7368 20.2893 10.9197 20.2838C11.094 20.2505 11.2483 20.1503 11.3496 20.0048C11.451 19.8592 11.4914 19.6798 11.4623 19.5048C11.4623 19.5048 11.089 18.6561 10.7853 18.7955" fill="white"/>
<path d="M11.2597 18.4548C11.2597 18.4548 11.5633 18.1163 11.7574 18.1163C11.7574 18.1163 15.1422 18.4199 15.7172 18.0142C15.7172 18.0142 16.2149 17.9147 16.3593 18.0142C16.3593 18.0142 16.857 18.4199 16.857 18.6564C16.857 18.6564 16.8247 18.965 16.2174 18.7957L12.1855 18.8281C12.1855 18.8281 11.1352 19.077 11.2373 18.4548" fill="white"/>
<path d="M11.2572 18.4546C11.2572 18.4546 11.5608 18.1137 11.755 18.1137C11.755 18.1137 15.1423 18.4198 15.7172 18.0141C15.7172 18.0141 16.2149 17.9121 16.3618 18.0141C16.3618 18.0141 16.8595 18.4198 16.8595 18.6587C16.8595 18.6587 16.8247 18.9648 16.2174 18.7956L12.1855 18.828C12.1855 18.828 11.1551 19.0569 11.2572 18.4546Z" stroke="#888888" stroke-width="0.01"/>
<path d="M11.7997 19.4703C11.7997 19.4703 11.7997 19.2015 12.2701 19.2015L17.0138 19.1666C17.0138 19.1666 17.4518 19.4006 17.4518 18.5892C17.4518 18.5892 17.626 14.8983 17.641 10.834C17.641 9.62694 17.7007 8.34519 17.6559 7.18041C17.6559 7.18041 17.5539 6.68265 17.407 6.57065C17.407 6.57065 17.407 6.02808 17.9844 6.23466C17.9844 6.23466 18.4822 6.26701 18.3553 7.04353L18.3876 8.22821C18.3876 8.22821 18.2856 8.72598 19.2015 8.60154C19.2015 8.60154 20.1149 8.73593 20.1472 9.07442C20.1472 9.07442 20.421 9.75387 19.3383 9.68418H18.5718C18.4712 9.74649 18.3929 9.83906 18.3482 9.94861C18.3035 10.0582 18.2947 10.179 18.3229 10.2939L18.2209 15.2044C18.2209 15.2044 18.1512 16.0506 18.9675 16.0183C18.9675 16.0183 19.8137 15.9834 19.9805 16.2547C19.9805 16.2547 20.5604 17.1009 19.306 17.0337C19.306 17.0337 18.527 16.9989 18.3578 17.1333C18.3578 17.1333 18.2234 17.305 18.1089 18.8954C18.1089 18.8954 18.1761 19.8436 17.4643 19.7416C17.4643 19.7416 12.7579 19.8063 12.3198 19.7067C12.3198 19.7067 11.8445 19.8436 11.7773 19.4578" fill="white"/>
<path d="M5.70525 6.09519L5.60569 16.9639C5.60569 16.9639 5.57085 17.4617 6.41705 17.5712C6.41705 17.5712 7.41259 17.6732 7.63658 17.5712C7.63658 17.5712 8.27621 17.5363 9.93876 17.606C9.93876 17.606 10.3444 18.0092 10.3768 17.504C10.3768 17.504 10.6481 8.69851 10.5137 6.8717C10.5137 6.8717 10.4813 6.09519 9.90142 6.06035C9.90142 6.06035 7.33046 6.26194 7.09402 6.06035L6.07857 5.78906C6.07857 5.78906 5.6704 5.82142 5.70525 6.09519Z" fill="white"/>
<path d="M16.4338 6.50098L16.4014 17.203C16.4014 17.203 16.6727 18.1537 17.1132 18.0542C17.1646 17.8762 17.1988 17.6936 17.2152 17.5091L17.3521 7.30488C17.3521 7.30488 17.0112 5.67967 16.4338 6.49352" fill="white"/>
<path d="M16.4338 6.50098L16.4014 17.203C16.4014 17.203 16.6727 18.1537 17.1132 18.0542C17.1646 17.8761 17.1988 17.6936 17.2152 17.5091L17.3521 7.30488C17.3521 7.30488 17.0112 5.67967 16.4338 6.49352" stroke="#888888" stroke-width="0.01"/>
<path d="M16.4338 6.50089L16.4014 17.2029C16.4014 17.2029 16.6727 18.1536 17.1132 18.054C17.1646 17.876 17.1988 17.6935 17.2152 17.509L17.3521 7.30478C17.3521 7.30478 17.0112 5.68704 16.4338 6.50089Z" stroke="#888888" stroke-width="0.01"/>
<path d="M11.0574 6.59262C11.0574 6.59262 10.9554 11.7022 10.9877 11.8739L10.9255 16.1746L10.7861 17.6679C10.7861 17.6679 10.9877 17.9766 11.1595 17.7725C11.1595 17.7725 12.2421 17.5037 12.9191 17.6032C12.9191 17.6032 15.0868 17.8073 15.5273 17.4688C15.5273 17.4688 15.8658 17.6381 15.9679 17.0955C15.9679 17.0955 16.1023 7.61553 16.0351 7.44629C16.0351 7.44629 16.1695 6.09486 16.1023 5.95299C16.1023 5.95299 16.0674 5.64438 15.495 5.91317C15.495 5.91317 15.5597 6.18694 12.3441 6.08739C12.3441 6.08739 11.1246 6.05006 11.0574 6.58516" fill="white"/>
<path d="M10.0083 9.72387L9.7022 10.3685C9.7022 10.3685 8.96053 13.6512 8.55485 14.3282C8.55485 14.3282 8.48765 15.0077 7.91024 14.4651C7.91024 14.4651 6.58867 10.3013 6.52148 10.1644L6.08095 9.86076C6.08095 9.86076 5.81465 9.48743 6.28504 9.45508L7.52945 9.48743C7.52945 9.48743 7.93513 9.82591 7.39257 10.2017C7.39257 10.2017 7.45976 10.7418 8.17157 12.805C8.17157 12.805 8.37316 13.5841 8.61209 13.0091L9.29901 10.595L9.09493 9.88316C9.09493 9.88316 8.89084 9.54468 9.19697 9.51232C9.19697 9.51232 9.90877 9.44512 10.0083 9.71392" fill="#888888"/>
<path d="M11.9767 10.266L11.9394 13.8549L11.8423 14.1262C11.8423 14.1262 11.5014 14.5642 11.7378 14.5991C11.7378 14.5991 11.4366 14.8032 13.9031 14.848C13.9031 14.848 14.8538 15.0172 14.6174 13.7977C14.6174 13.7977 14.5153 13.3597 14.1744 14.0018C14.1744 14.0018 14.0723 14.5419 12.8578 14.3726C12.7095 14.2454 12.613 14.0683 12.5865 13.8748V12.3815C12.5865 12.3815 12.5492 12.0082 13.1266 12.0455C13.1266 12.0455 13.7687 12.4512 13.8732 12.2795C13.8732 12.2795 14.1221 11.7394 13.8732 11.4009C13.8732 11.4009 13.5671 11.3686 13.5347 11.503C13.5347 11.503 13.3331 11.9087 12.7557 11.6697C12.606 11.3654 12.5706 11.0174 12.6562 10.6891C12.6562 10.6891 12.589 9.84293 13.1539 9.91013C13.1539 9.91013 13.8309 10.0445 13.9006 10.2511C13.9006 10.2511 14.0698 10.6593 14.2416 10.1839L14.0723 9.59902C14.0723 9.59902 13.9753 9.35014 13.8035 9.42978C13.8035 9.42978 12.6537 9.59902 12.5143 9.45965L11.6009 9.56418C11.5846 9.61481 11.5789 9.66823 11.584 9.72117C11.5891 9.77411 11.6049 9.82546 11.6305 9.87206C11.6562 9.91866 11.691 9.95954 11.733 9.99219C11.775 10.0248 11.8232 10.0486 11.8747 10.0619C11.9071 10.0856 11.9333 10.1167 11.951 10.1527C11.9688 10.1887 11.9776 10.2284 11.9767 10.2685" fill="#888888"/>
</g>
<defs>
<clipPath id="clip0">
<rect width="200" height="49.8513" fill="white"/>
</clipPath>
</defs>
</svg>
