<svg width="200" height="49" viewBox="0 0 200 49" fill="none" xmlns="http://www.w3.org/2000/svg">
<g clip-path="url(#clip0)">
<path d="M107.871 0.0192871V10.4487H105.376L105.539 3.0147L105.565 1.96919L105.475 2.3348C105.344 2.92811 105.328 2.99867 105.209 3.44445L103.246 10.4487H101.001L99.1091 3.7395L98.6537 1.86657C98.6954 2.69399 98.6954 2.87038 98.7403 3.85816L98.8717 10.4359H96.3478V0.0192871H100.158L101.761 5.869L102.13 7.53668C102.278 6.81509 102.294 6.73812 102.412 6.25385L104.08 0.0224943L107.871 0.0192871Z" fill="#888888"/>
<path d="M109.866 4.92279C109.862 4.59349 109.933 4.2675 110.074 3.97C110.215 3.6725 110.423 3.41144 110.681 3.207C111.387 2.64576 112.307 2.5271 113.205 2.5271C114.103 2.5271 116.441 2.75159 116.441 4.74319V9.24272C116.441 10.0669 116.486 10.2048 116.662 10.455H114.417V9.73661C113.843 10.1664 113.192 10.657 112.054 10.657C110.283 10.657 109.527 9.37421 109.527 8.30625C109.527 7.06511 110.518 6.35314 111.156 6.09016C111.794 5.82718 113.24 5.55779 114.196 5.3814V4.96769C114.167 4.6117 114.138 4.00556 113.324 4.00556C112.32 4.00556 112.188 4.62453 112.127 4.90675L109.866 4.92279ZM112.753 7.2415C112.371 7.38903 111.791 7.60711 111.791 8.20363C111.802 8.41631 111.895 8.61635 112.051 8.76211C112.206 8.90787 112.412 8.98812 112.625 8.98615C112.903 8.97613 113.173 8.88836 113.404 8.73279C114.161 8.26135 114.186 7.54938 114.202 6.75082L112.753 7.2415Z" fill="#888888"/>
<path d="M118.908 7.84786C119.489 8.48106 120.294 8.86201 121.153 8.9094C121.695 8.9094 122.528 8.73301 122.528 8.15895C122.53 8.06314 122.502 7.96915 122.449 7.88951C122.396 7.80987 122.319 7.74835 122.23 7.71316C121.807 7.55649 121.365 7.45725 120.915 7.41811C120.566 7.35919 120.22 7.28211 119.879 7.1872C119.403 7.07426 118.962 6.84384 118.597 6.51692C118.223 6.12976 118.016 5.61174 118.019 5.07374C118.019 3.7909 119.11 2.48562 121.271 2.48562C122.513 2.48188 123.722 2.88517 124.712 3.63376L123.311 4.93583C122.767 4.47251 122.084 4.20291 121.371 4.16934C120.486 4.16934 120.28 4.52212 120.28 4.74341C120.28 5.18919 120.765 5.27578 121.505 5.41369C123.054 5.6895 124.86 6.10321 124.86 7.93766C124.86 9.77211 123.029 10.6412 121.21 10.6412C120.518 10.6592 119.83 10.536 119.187 10.279C118.544 10.0221 117.96 9.6368 117.471 9.14673L118.908 7.84786Z" fill="#888888"/>
<path d="M126.608 7.84787C127.189 8.48163 127.995 8.8627 128.853 8.90941C129.401 8.90941 130.229 8.73302 130.229 8.15895C130.231 8.06352 130.203 7.9698 130.151 7.8902C130.098 7.8106 130.022 7.74887 129.934 7.71317C129.509 7.55688 129.066 7.45766 128.616 7.41812C128.268 7.35954 127.923 7.28246 127.583 7.18721C127.106 7.07313 126.666 6.84284 126.3 6.51693C125.928 6.12902 125.721 5.61149 125.723 5.07374C125.723 3.79091 126.816 2.48563 128.975 2.48563C130.217 2.48141 131.426 2.88475 132.416 3.63376L131.015 4.93584C130.476 4.47454 129.799 4.20498 129.09 4.16935C128.202 4.16935 127.993 4.52212 127.993 4.74341C127.993 5.1892 128.481 5.27579 129.222 5.41369C130.774 5.6895 132.576 6.10322 132.576 7.93767C132.576 9.77212 130.742 10.6412 128.923 10.6412C128.232 10.6599 127.544 10.5369 126.902 10.2799C126.26 10.0229 125.678 9.63724 125.19 9.14674L126.608 7.84787Z" fill="#888888"/>
<path d="M133.878 4.92279C133.872 4.5936 133.942 4.26746 134.083 3.96982C134.224 3.67218 134.431 3.41111 134.69 3.207C135.398 2.64576 136.316 2.5271 137.214 2.5271C138.112 2.5271 140.45 2.75159 140.45 4.74319V9.24272C140.45 10.0669 140.495 10.2048 140.674 10.455H138.429V9.73661C137.855 10.1664 137.201 10.657 136.066 10.657C134.292 10.657 133.535 9.37421 133.535 8.30625C133.535 7.06511 134.529 6.35314 135.161 6.09016C135.793 5.82718 137.249 5.55779 138.211 5.3814V4.96769C138.179 4.6117 138.147 4.00556 137.336 4.00556C136.332 4.00556 136.197 4.62453 136.139 4.90675L133.878 4.92279ZM136.765 7.2415C136.38 7.38903 135.787 7.60711 135.787 8.20363C135.798 8.42113 135.895 8.62537 136.056 8.77234C136.216 8.9193 136.428 8.99724 136.646 8.98936C136.925 8.97993 137.197 8.89214 137.429 8.736C138.182 8.26456 138.214 7.55259 138.23 6.75403L136.765 7.2415Z" fill="#888888"/>
<path d="M149.261 8.63033C148.959 9.16779 148.547 9.63551 148.052 10.003C147.403 10.4576 146.629 10.7007 145.836 10.6989C144.354 10.6989 142.007 9.81053 142.007 6.66439C142.007 4.41943 143.289 2.52726 145.878 2.52726C146.542 2.50907 147.199 2.67121 147.779 2.99645C148.359 3.3217 148.84 3.79791 149.171 4.37453L147.487 5.33666C147.353 5.01305 147.131 4.73325 146.846 4.52847C146.594 4.35299 146.294 4.25897 145.987 4.25908C144.761 4.25908 144.348 5.66378 144.348 6.59383C144.348 7.61368 144.854 8.89972 146.06 8.89972C146.28 8.89958 146.496 8.85159 146.695 8.75909C146.894 8.66658 147.07 8.5318 147.212 8.36414C147.37 8.18645 147.489 7.97633 147.558 7.74838L149.261 8.63033Z" fill="#888888"/>
<path d="M151.892 0V3.54382C152.168 3.22767 152.509 2.97365 152.891 2.79843C153.273 2.62322 153.687 2.53078 154.108 2.52718C154.702 2.51423 155.282 2.70807 155.75 3.07559C156.43 3.64966 156.564 4.37446 156.564 5.39431V10.4487H154.3V6.41416C154.329 6.0178 154.294 5.61937 154.197 5.23396C154.131 5.0059 153.991 4.80641 153.799 4.66701C153.606 4.52762 153.373 4.45627 153.136 4.46426C152.957 4.46222 152.781 4.50105 152.62 4.57776C152.458 4.65447 152.317 4.76703 152.206 4.90683C151.908 5.30451 151.908 5.93951 151.908 6.60338V10.4519H149.634V0H151.892Z" fill="#888888"/>
<path d="M163.151 2.73242H165.425V10.4487H163.151V9.70782C162.946 9.96815 162.682 10.1759 162.381 10.314C161.93 10.5499 161.428 10.6721 160.919 10.6699C160.415 10.6699 159.485 10.5962 158.953 9.85855C158.555 9.29411 158.482 8.8387 158.482 7.58474V2.73242H160.771V7.5238C160.734 7.83938 160.796 8.15872 160.948 8.43782C161.059 8.56556 161.198 8.6665 161.354 8.73312C161.51 8.79975 161.679 8.83036 161.849 8.82267C162.123 8.83035 162.395 8.76388 162.635 8.63024C163.119 8.33198 163.135 7.95034 163.151 7.53663V2.73242Z" fill="#888888"/>
<path d="M167.861 7.84787C168.443 8.48051 169.248 8.86135 170.106 8.90941C170.651 8.90941 171.479 8.73302 171.479 8.15896C171.481 8.06342 171.454 7.96951 171.401 7.88982C171.348 7.81013 171.273 7.74849 171.184 7.71317C170.762 7.55718 170.32 7.45796 169.872 7.41812C169.523 7.35988 169.177 7.2828 168.836 7.18721C168.359 7.07389 167.919 6.84352 167.553 6.51693C167.181 6.12902 166.974 5.6115 166.976 5.07375C166.976 3.79092 168.07 2.48564 170.225 2.48564C171.468 2.48095 172.678 2.8843 173.669 3.63377L172.277 4.93584C171.738 4.47455 171.062 4.20499 170.353 4.16935C169.468 4.16935 169.26 4.52213 169.26 4.74342C169.26 5.1892 169.744 5.27579 170.488 5.4137C172.04 5.68951 173.839 6.10322 173.839 7.93767C173.839 9.77212 172.008 10.6412 170.19 10.6412C169.497 10.66 168.809 10.5371 168.166 10.2801C167.522 10.0231 166.939 9.63742 166.45 9.14674L167.861 7.84787Z" fill="#888888"/>
<path d="M182.374 8.48282C182.109 8.90179 181.796 9.28821 181.441 9.63417C180.646 10.3546 179.607 10.7457 178.535 10.7278C176.239 10.7278 174.629 9.26215 174.629 6.73817C174.629 4.87806 175.549 2.48878 178.589 2.48878C179.103 2.47107 179.616 2.55995 180.094 2.74981C180.572 2.93968 181.005 3.22643 181.367 3.59202C182.374 4.66639 182.435 6.17693 182.46 7.04605H176.951C176.935 8.00818 177.483 8.9703 178.708 8.9703C179.933 8.9703 180.379 8.15891 180.658 7.6105L182.374 8.48282ZM180.113 5.62852C180.093 5.22677 179.942 4.84259 179.683 4.5349C179.381 4.2594 178.986 4.10821 178.577 4.11157C178.36 4.11113 178.145 4.15566 177.947 4.24232C177.748 4.32898 177.569 4.45591 177.422 4.61508C177.178 4.90478 177.021 5.25696 176.967 5.63173L180.113 5.62852Z" fill="#888888"/>
<path d="M184.058 0.503418H186.303V2.91194H187.798V4.3006H186.287V7.77066C186.287 8.24531 186.287 8.64299 186.877 8.64299L187.692 8.61733V10.3876C187.297 10.4601 186.897 10.4998 186.496 10.5063C185.71 10.5063 184.854 10.4614 184.366 9.75264C184.045 9.29724 184.045 8.74883 184.045 8.00799V4.28777H182.92V2.8959H184.045L184.058 0.503418Z" fill="#888888"/>
<path d="M188.693 0.503418H190.957V2.91194H192.445V4.3006H190.938V7.77066C190.938 8.24531 190.938 8.64299 191.531 8.64299L192.342 8.61733V10.3876C191.949 10.4601 191.55 10.4998 191.149 10.5063C190.364 10.5063 189.507 10.4614 189.017 9.75264C188.696 9.29724 188.696 8.74883 188.696 8.00799V4.28777H187.573V2.8959H188.693V0.503418Z" fill="#888888"/>
<path d="M194.049 7.84788C194.629 8.4822 195.435 8.86338 196.294 8.90942C196.839 8.90942 197.666 8.73303 197.666 8.15896C197.668 8.06315 197.64 7.96917 197.587 7.88952C197.533 7.80988 197.457 7.74837 197.368 7.71318C196.946 7.55652 196.505 7.45729 196.056 7.41813C195.707 7.35955 195.362 7.28247 195.021 7.18722C194.544 7.07428 194.103 6.84386 193.738 6.51694C193.364 6.12978 193.157 5.61176 193.161 5.07376C193.161 3.79092 194.254 2.48564 196.412 2.48564C197.656 2.48049 198.867 2.88386 199.86 3.63378L198.455 4.93585C197.916 4.47456 197.24 4.20499 196.531 4.16936C195.646 4.16936 195.438 4.52214 195.438 4.74343C195.438 5.18921 195.928 5.2758 196.666 5.41371C198.218 5.68951 200.02 6.10323 200.02 7.93768C200.02 9.77213 198.186 10.6412 196.371 10.6412C195.675 10.6626 194.983 10.541 194.336 10.284C193.69 10.0269 193.103 9.63983 192.612 9.14675L194.049 7.84788Z" fill="#888888"/>
<path d="M98.9354 17.7449H96.3377V28.1775H98.9354V17.7449Z" fill="#888888"/>
<path d="M103.293 21.1604C103.501 20.9041 103.764 20.6971 104.062 20.5542C104.506 20.3724 104.981 20.2777 105.461 20.2752C105.939 20.2682 106.411 20.3783 106.836 20.5959C107.651 21.0225 107.856 21.7184 107.856 22.9146V28.1646H105.611V23.8351C105.611 23.1391 105.611 22.8729 105.506 22.6805C105.416 22.4896 105.271 22.3307 105.088 22.2251C104.906 22.1196 104.696 22.0726 104.486 22.0904C103.289 22.0904 103.289 23.0525 103.289 24.0147V28.1839H101.016V20.4676H103.305L103.293 21.1604Z" fill="#888888"/>
<path d="M110.301 25.5798C110.883 26.2119 111.688 26.5926 112.546 26.6414C113.091 26.6414 113.921 26.465 113.921 25.8877C113.922 25.792 113.894 25.6982 113.84 25.6191C113.786 25.5399 113.709 25.4792 113.62 25.4451C113.198 25.2873 112.757 25.188 112.308 25.1501C111.96 25.0912 111.615 25.012 111.276 24.9128C110.798 24.8039 110.356 24.5742 109.993 24.2457C109.62 23.8568 109.413 23.3381 109.415 22.7993C109.415 21.5165 110.509 20.2144 112.667 20.2144C113.91 20.2108 115.119 20.6154 116.109 21.3657L114.707 22.6678C114.168 22.207 113.491 21.9365 112.783 21.8981C111.894 21.8981 111.686 22.2541 111.686 22.4754C111.686 22.918 112.177 23.0077 112.914 23.136C114.467 23.4215 116.266 23.832 116.266 25.6632C116.266 27.4945 114.438 28.37 112.623 28.37C111.928 28.3922 111.236 28.2715 110.59 28.0156C109.944 27.7596 109.358 27.3737 108.867 26.8819L110.301 25.5798Z" fill="#888888"/>
<path d="M117.877 18.2227H120.138V20.628H121.629V22.0198H120.125V25.5027C120.109 25.9774 120.109 26.375 120.715 26.375L121.527 26.3462V28.1165C121.132 28.1929 120.732 28.2337 120.33 28.2384C119.545 28.2384 118.688 28.1967 118.201 27.4847C117.88 27.0261 117.88 26.4745 117.88 25.74V22.0166H116.758V20.6312H117.88L117.877 18.2227Z" fill="#888888"/>
<path d="M122.852 17.7288H125.097V19.5055H122.852V17.7288ZM122.852 20.4484H125.097V28.1806H122.852V20.4484Z" fill="#888888"/>
<path d="M127.418 18.2227H129.679V20.628H131.171V22.0198H129.666V25.5027C129.65 25.9774 129.65 26.375 130.253 26.375L131.068 26.3462V28.1165C130.674 28.1932 130.273 28.234 129.872 28.2384C129.086 28.2384 128.23 28.1967 127.742 27.4847C127.422 27.0261 127.422 26.4745 127.422 25.74V22.0166H126.299V20.6312H127.422L127.418 18.2227Z" fill="#888888"/>
<path d="M136.979 20.4678H139.243V28.184H136.969V27.44C136.765 27.6994 136.501 27.9061 136.2 28.0429C135.749 28.28 135.247 28.4022 134.737 28.3989C134.234 28.3989 133.304 28.3283 132.771 27.5843C132.374 27.0263 132.3 26.5708 132.3 25.3105V20.4678H134.59V25.2527C134.552 25.5683 134.614 25.8879 134.766 26.1668C134.878 26.2977 135.018 26.4014 135.176 26.4698C135.334 26.5382 135.505 26.5695 135.677 26.5612C135.952 26.5691 136.224 26.5002 136.463 26.3624C136.947 26.0673 136.963 25.6857 136.979 25.272V20.4678Z" fill="#888888"/>
<path d="M141.574 18.2227H143.819V20.628H145.336V22.0198H143.832V25.5027C143.832 25.9774 143.832 26.375 144.422 26.375L145.23 26.3462V28.1165C144.838 28.1931 144.439 28.2338 144.04 28.2384C143.254 28.2384 142.398 28.1967 141.911 27.4847C141.59 27.0261 141.59 26.4745 141.59 25.74V22.0166H140.464V20.6312H141.59L141.574 18.2227Z" fill="#888888"/>
<path d="M153.735 26.2179C153.474 26.638 153.161 27.0237 152.805 27.366C152.009 28.0861 150.969 28.476 149.896 28.4564C147.606 28.4564 145.996 26.9972 145.996 24.4701C145.996 22.6067 146.913 20.2111 149.957 20.2111C150.471 20.1961 150.983 20.2869 151.46 20.4778C151.938 20.6686 152.372 20.9555 152.734 21.3207C153.735 22.4047 153.799 23.9088 153.824 24.7779H148.315C148.315 25.7401 148.847 26.7022 150.075 26.7022C151.304 26.7022 151.743 25.8844 152.025 25.3424L153.735 26.2179ZM151.49 23.3604C151.472 22.9588 151.322 22.5744 151.063 22.2668C150.762 21.9877 150.364 21.835 149.953 21.8403C149.737 21.84 149.524 21.8844 149.326 21.9704C149.128 22.0565 148.949 22.1825 148.802 22.3406C148.554 22.628 148.391 22.9789 148.331 23.354L151.49 23.3604Z" fill="#888888"/>
<path d="M166.9 24.316C166.9 26.2723 165.774 28.4114 162.763 28.4114C160.589 28.4114 158.594 27.1703 158.594 24.316C158.594 21.9524 160.085 20.0762 163.042 20.243C166.188 20.4226 166.891 22.9145 166.891 24.316H166.9ZM161.275 22.7958C161.009 23.2537 160.877 23.777 160.893 24.3063C160.893 25.5282 161.483 26.6058 162.753 26.6058C164.023 26.6058 164.581 25.5988 164.581 24.3994C164.581 23.5399 164.376 22.8728 163.94 22.4591C163.763 22.2946 163.552 22.1709 163.322 22.0967C163.092 22.0224 162.849 21.9995 162.609 22.0293C162.339 22.0265 162.072 22.0946 161.837 22.2268C161.601 22.3591 161.404 22.5508 161.265 22.783" fill="#888888"/>
<path d="M168.751 19.6978C168.72 19.2369 168.832 18.7778 169.072 18.3829C169.354 17.9981 169.989 17.5972 171.054 17.5972C171.508 17.6128 171.961 17.6578 172.41 17.7319V19.4316H171.865C171.009 19.4316 170.964 19.608 170.98 20.6439H172.5V22.0326H170.996V28.1805H168.732V22.0326H167.519V20.6439H168.751V19.6978Z" fill="#888888"/>
<path d="M93.6721 35.4639H101.712V37.5324H99.0087V45.9061H96.3917V37.5324H93.6721V35.4639Z" fill="#888888"/>
<path d="M108.883 43.9402C108.622 44.3634 108.309 44.7514 107.95 45.0947C107.154 45.8149 106.114 46.2058 105.041 46.1884C102.751 46.1884 101.138 44.7259 101.138 42.1988C101.138 40.3354 102.055 37.9462 105.099 37.9462C105.612 37.9301 106.124 38.02 106.601 38.2104C107.078 38.4008 107.511 38.6875 107.873 39.0526C108.883 40.1334 108.941 41.6407 108.969 42.5066H103.46C103.444 43.4688 103.989 44.4309 105.217 44.4309C106.445 44.4309 106.885 43.6163 107.167 43.0743L108.883 43.9402ZM106.619 41.0923C106.6 40.6908 106.45 40.3066 106.192 39.9987C105.891 39.7184 105.494 39.5646 105.083 39.5689C104.866 39.5686 104.652 39.6131 104.454 39.6998C104.256 39.7865 104.078 39.9134 103.931 40.0725C103.685 40.362 103.526 40.7157 103.473 41.0923H106.619Z" fill="#888888"/>
<path d="M117.023 44.091C116.719 44.6289 116.306 45.0974 115.811 45.4669C115.16 45.9211 114.385 46.163 113.592 46.1596C112.116 46.1596 109.766 45.2744 109.766 42.1283C109.766 39.8833 111.068 37.9912 113.64 37.9912C114.304 37.9727 114.961 38.1343 115.541 38.459C116.121 38.7836 116.602 39.2592 116.933 39.8352L115.25 40.7974C115.114 40.4723 114.893 40.1905 114.608 39.9828C114.356 39.8107 114.058 39.718 113.752 39.7166C112.524 39.7166 112.11 41.1213 112.11 42.0513C112.11 43.0744 112.61 44.3604 113.823 44.3604C114.042 44.3603 114.258 44.3123 114.457 44.2198C114.656 44.1273 114.832 43.9925 114.974 43.8249C115.132 43.6464 115.248 43.4349 115.314 43.2059L117.023 44.091Z" fill="#888888"/>
<path d="M119.654 35.4639V38.9917C119.93 38.6741 120.27 38.419 120.652 38.2431C121.034 38.0673 121.449 37.9748 121.87 37.9718C122.463 37.9596 123.042 38.1534 123.509 38.5202C124.189 39.0943 124.307 39.8031 124.307 40.8261V45.8901H122.062V41.8748C122.091 41.4783 122.055 41.0798 121.956 40.6946C121.889 40.4663 121.748 40.2666 121.556 40.1268C121.363 39.987 121.13 39.9149 120.892 39.9217C120.713 39.9215 120.536 39.9614 120.374 40.0385C120.213 40.1157 120.071 40.2281 119.958 40.3675C119.667 40.7652 119.667 41.4002 119.667 42.0673V45.9158H117.393V35.4639H119.654Z" fill="#888888"/>
<path d="M128.62 38.8891C128.829 38.6335 129.091 38.4275 129.39 38.2862C129.834 38.1017 130.31 38.0058 130.791 38.004C131.269 37.9972 131.741 38.1073 132.167 38.3247C132.982 38.7544 133.184 39.4504 133.184 40.6466V45.9191H130.939V41.5639C130.939 40.8711 130.923 40.6178 130.836 40.4125C130.746 40.2218 130.6 40.0628 130.418 39.9564C130.236 39.8499 130.026 39.801 129.816 39.816C128.62 39.816 128.62 40.7781 128.62 41.7402V45.9095H126.343V38.2124H128.633L128.62 38.8891Z" fill="#888888"/>
<path d="M142.987 42.0351C142.987 43.9882 141.862 46.1306 138.847 46.1306C136.676 46.1306 134.697 44.8894 134.697 42.0351C134.697 39.6747 136.188 37.7953 139.145 37.9589C142.291 38.1353 142.994 40.6368 142.994 42.0351H142.987ZM137.378 40.515C137.109 40.9705 136.975 41.4934 136.993 42.0223C136.993 43.2506 137.583 44.3282 138.853 44.3282C140.123 44.3282 140.688 43.3372 140.688 42.1281C140.688 41.2686 140.479 40.6048 140.046 40.2039C139.87 40.0395 139.66 39.9158 139.43 39.8416C139.201 39.7673 138.958 39.7443 138.719 39.7741C138.448 39.7693 138.181 39.8366 137.945 39.969C137.709 40.1014 137.512 40.2943 137.375 40.5278" fill="#888888"/>
<path d="M146.737 35.4734H144.463V45.9028H146.737V35.4734Z" fill="#888888"/>
<path d="M156.534 42.0351C156.534 43.9882 155.409 46.1306 152.397 46.1306C150.226 46.1306 148.247 44.8894 148.247 42.0351C148.247 39.6747 149.738 37.7953 152.689 37.9589C155.838 38.1353 156.537 40.6368 156.537 42.0351H156.534ZM150.922 40.515C150.656 40.9717 150.522 41.4938 150.537 42.0223C150.537 43.2506 151.13 44.3282 152.4 44.3282C153.67 44.3282 154.232 43.3372 154.232 42.1281C154.232 41.2686 154.026 40.6048 153.59 40.2039C153.414 40.0399 153.203 39.9164 152.974 39.8422C152.744 39.768 152.502 39.7447 152.262 39.7741C151.991 39.7694 151.724 39.8367 151.487 39.9691C151.251 40.1015 151.053 40.2943 150.915 40.5278" fill="#888888"/>
<path d="M162.697 44.8896C162.108 45.3247 161.392 45.5505 160.66 45.531C160.037 45.5409 159.424 45.3669 158.899 45.0307C157.867 44.3604 157.466 43.1674 157.466 41.8236C157.466 40.2746 158.191 38.0425 160.747 38.0425C161.132 38.0261 161.516 38.0929 161.873 38.2385C162.23 38.3841 162.551 38.6049 162.815 38.8859V38.1547H164.945V45.5759C164.913 46.4161 164.887 47.4071 163.761 48.0582C162.979 48.5296 161.837 48.6515 161.132 48.6515C159.592 48.6515 158.592 48.1159 158.178 47.6894C157.96 47.446 157.795 47.1603 157.692 46.8502C157.589 46.5402 157.552 46.2123 157.581 45.887H159.935C159.919 46.1177 159.974 46.3478 160.093 46.5463C160.211 46.7447 160.388 46.9019 160.599 46.9966C160.824 47.1045 161.072 47.1562 161.321 47.1474C162.697 47.1474 162.697 46.3296 162.697 45.6978V44.8896ZM159.81 41.83C159.81 42.4714 159.855 43.8248 161.257 43.8248C162.411 43.8248 162.674 42.9204 162.674 41.83C162.674 41.4644 162.649 40.6947 162.395 40.3227C162.257 40.1275 162.069 39.9727 161.851 39.8741C161.632 39.7755 161.392 39.7366 161.154 39.7615C160.076 39.8064 159.81 40.7236 159.81 41.83Z" fill="#888888"/>
<path d="M173.317 38.1931L170.601 46.5315C170.458 47.0434 170.211 47.5205 169.876 47.933C169.344 48.5103 168.824 48.5392 168.234 48.5552H166.598V46.7656H167.394C167.766 46.7656 168.356 46.7656 168.356 46.2044C168.347 46.0185 168.311 45.8349 168.25 45.6592L165.947 38.2092H168.372L169.655 43.7349L170.938 38.2092L173.317 38.1931Z" fill="#888888"/>
<path d="M62.9999 0.0161133H88.493V9.17233H62.9999V0.0161133ZM15.7724 0.0161133H25.4289V31.2948H15.7724V0.0161133ZM31.5384 0.0161133H41.2014V45.8036H31.532L31.5384 0.0161133ZM0.00641431 0.0161133H9.67897V45.8036H0L0.00641431 0.0161133ZM63.0672 14.5089H72.7302V45.8036H63.0672V14.5089ZM47.2339 0.0161133H56.9578V9.17233H47.2339V0.0161133Z" fill="#888888"/>
<path d="M56.9773 14.4673H47.3144V45.7492H56.9773V14.4673Z" fill="#888888"/>
</g>
<defs>
<clipPath id="clip0">
<rect width="200" height="48.6739" fill="white"/>
</clipPath>
</defs>
</svg>
