<svg width="21" height="20" viewBox="0 0 21 20" fill="none" xmlns="http://www.w3.org/2000/svg">
<path d="M4.25616 0.00463867C2.10182 0.00463867 0.338623 1.7678 0.338623 3.92218V16.079C0.338623 18.2333 2.10178 19.9959 4.25616 19.9959H16.413C18.5673 19.9959 20.3299 18.2334 20.3299 16.079V3.92218C20.3299 1.76784 18.5673 0.00463867 16.413 0.00463867H4.25616ZM5.24148 3.3036C6.27444 3.3036 6.9107 3.98172 6.93034 4.8731C6.93034 5.7448 6.2744 6.44198 5.2215 6.44198H5.20212C4.18882 6.44198 3.53388 5.74484 3.53388 4.8731C3.53388 3.98174 4.20864 3.3036 5.24146 3.3036H5.24148ZM14.1431 7.4698C16.1297 7.4698 17.6189 8.76824 17.6189 11.5585V16.7675H14.5998V11.9078C14.5998 10.6866 14.1629 9.8534 13.0703 9.8534C12.2362 9.8534 11.7391 10.415 11.5208 10.9574C11.441 11.1515 11.4214 11.4226 11.4214 11.6941V16.7675H8.40238C8.40238 16.7675 8.442 8.53524 8.40238 7.68284H11.4221V8.96932C11.8233 8.35032 12.5409 7.46978 14.1431 7.46978V7.4698ZM3.71196 7.6835H6.73102V16.7675H3.71196V7.6835Z" fill="#3A3A3A"/>
</svg>
