<svg width="29" height="21" viewBox="0 0 29 21" fill="none" xmlns="http://www.w3.org/2000/svg">
<path fill-rule="evenodd" clip-rule="evenodd" d="M22.6769 4.00124L22.6273 3.96813C21.602 2.99143 20.3948 2.52791 19.0058 2.59412L18.9561 2.4948L18.9892 2.47824C20.246 2.19682 20.9901 1.89884 21.2217 1.56776C21.2878 1.30289 21.2051 1.1539 20.924 1.12079C20.2956 1.20357 19.7003 1.336 19.1877 1.5512C19.8491 1.12079 20.0972 0.822817 19.9483 0.673828C19.3034 0.690382 18.5923 1.02147 17.8647 1.68364C18.1293 1.22012 18.2451 0.955251 18.1789 0.922142C17.8151 1.1539 17.5175 1.41877 17.2529 1.70019C16.6906 2.32926 16.2442 2.90866 15.8969 3.43839L15.8804 3.4715C15.0039 4.91172 14.3755 6.35195 14.0117 7.82528L13.8794 7.94116L13.8464 7.95771C13.3172 7.29554 12.6723 6.73269 11.9116 6.28573C11.0186 5.68977 9.96028 5.14348 8.73657 4.59719C7.41365 3.90191 6.05766 3.33907 4.70166 2.8921C4.68512 4.43165 5.4458 5.64011 6.91755 6.53404V6.5506C6.40492 6.5506 5.89229 6.63337 5.39619 6.78236C5.49541 8.20603 6.50414 9.18273 8.40584 9.71246L8.38931 9.74557C7.64516 9.69591 7.03331 9.96078 6.55375 10.5071C7.18214 11.7321 8.29009 12.3115 9.89413 12.2784C9.57994 12.4439 9.33189 12.6095 9.16652 12.8081C8.86887 13.1226 8.76965 13.4868 8.86887 13.9007C9.21613 14.5298 9.82798 14.8112 10.7375 14.7615L10.7871 14.8277L10.7706 14.8608C9.1996 16.4832 7.2979 17.2116 5.082 17.0626L5.04893 17.0791C3.69293 17.0626 2.23772 16.4169 0.666748 15.1257C2.23772 17.3937 4.33786 19.0325 6.93409 20.0754C9.89413 21.0521 12.8707 21.1349 15.8307 20.2906H15.8804C18.7577 19.4629 21.1886 17.7413 23.206 15.1588C24.1321 13.8179 24.7109 12.5267 24.9424 11.2851C26.4472 11.3348 27.5221 10.9044 28.2001 9.97733L28.1835 9.94422C27.6709 10.1263 26.6952 10.0767 25.2566 9.77868V9.61314C26.8441 9.43104 27.7867 8.91786 28.0843 8.07359C26.9764 8.504 25.885 8.52056 24.8101 8.1067C24.6116 6.61681 23.9006 5.24281 22.6769 4.00124Z" fill="#3A3A3A"/>
</svg>
