<svg width="100" height="100" viewBox="0 0 100 100" fill="none" xmlns="http://www.w3.org/2000/svg">
<path d="M20.8333 33.3333H79.1666V41.6667H20.8333V33.3333ZM100 94.1667L92.5 86.6667C94.5833 83.3333 95.8333 79.1667 95.8333 75C95.8333 63.3333 86.6666 54.1667 75 54.1667C63.3333 54.1667 54.1666 63.3333 54.1666 75C54.1666 86.6667 63.3333 95.8333 75 95.8333C79.1666 95.8333 83.3333 94.5833 86.6666 92.5L94.1666 100L100 94.1667ZM75 87.5C67.9166 87.5 62.5 82.0833 62.5 75C62.5 67.9167 67.9166 62.5 75 62.5C82.0833 62.5 87.5 67.9167 87.5 75C87.5 82.0833 82.0833 87.5 75 87.5Z" fill="#EF5C50"/>
<path d="M47.0583 83.3333H25V66.6667H47.0583C47.9542 63.6542 49.325 60.85 51.0834 58.3333H25V16.6667H75V45.8333C77.8958 45.8333 80.6917 46.2708 83.3333 47.0583V16.6667C83.3333 12.0625 79.6042 8.33334 75 8.33334H25C20.3959 8.33334 16.6667 12.0625 16.6667 16.6667V83.3333C16.6667 87.9375 20.3959 91.6667 25 91.6667H51.0834C49.325 89.15 47.9542 86.3458 47.0583 83.3333Z" fill="#EF5C50"/>
<path opacity="0.3" d="M45.8333 75C45.8333 58.8917 58.8917 45.8333 75 45.8333C76.4167 45.8333 77.8042 45.9708 79.1667 46.1667V12.5H20.8333V87.5H48.6791C46.875 83.7083 45.8333 79.4792 45.8333 75Z" fill="#EF5C50"/>
</svg>
