<svg width="100" height="100" viewBox="0 0 100 100" fill="none" xmlns="http://www.w3.org/2000/svg">
<path opacity="0.3" d="M50 12.5C45.0754 12.5 40.1991 13.47 35.6494 15.3545C31.0997 17.2391 26.9657 20.0013 23.4835 23.4835C20.0013 26.9657 17.2391 31.0997 15.3545 35.6494C13.47 40.1991 12.5 45.0754 12.5 50C12.5 54.9246 13.47 59.8009 15.3545 64.3506C17.2391 68.9003 20.0013 73.0343 23.4835 76.5165C26.9657 79.9987 31.0997 82.7609 35.6494 84.6455C40.1991 86.53 45.0754 87.5 50 87.5C54.9246 87.5 59.8009 86.53 64.3506 84.6455C68.9003 82.7609 73.0343 79.9987 76.5165 76.5165C79.9987 73.0343 82.7609 68.9003 84.6455 64.3506C86.53 59.8009 87.5 54.9246 87.5 50C87.5 45.0754 86.53 40.1991 84.6455 35.6494C82.7609 31.0997 79.9987 26.9657 76.5165 23.4835C73.0343 20.0013 68.9003 17.2391 64.3506 15.3545C59.8009 13.47 54.9246 12.5 50 12.5Z" fill="#EF5C50"/>
<path d="M50 91.6667C27.0833 91.6667 8.33334 72.9167 8.33334 50C8.33334 27.0833 27.0833 8.33334 50 8.33334C72.9167 8.33334 91.6667 27.0833 91.6667 50C91.6667 72.9167 72.9167 91.6667 50 91.6667ZM50 16.6667C31.6667 16.6667 16.6667 31.6667 16.6667 50C16.6667 68.3333 31.6667 83.3334 50 83.3334C68.3333 83.3334 83.3333 68.3333 83.3333 50C83.3333 31.6667 68.3333 16.6667 50 16.6667Z" fill="#EF5C50"/>
<path d="M45.8334 12.5H54.1667V25H45.8334V12.5ZM64.1667 70L70.8334 77.0833L76.6667 71.25L66.6667 60.8333C67.0834 64.5833 65.8333 67.5 64.1667 70ZM45.8334 29.1667H54.1667V37.5H45.8334V29.1667ZM45.8334 66.6667H54.1667V75H45.8334V66.6667ZM66.6667 45.8333H87.5V54.1667H66.6667V45.8333Z" fill="#EF5C50"/>
<path d="M60.8333 60.8333C60.8333 69.5833 52.9167 70.8333 51.6667 70.8333H47.5C46.25 70.8333 37.5 69.1667 37.5 58.3333H45.4167C45.4167 64.5833 49.1667 65 49.5833 65C50 65 53.3333 65 53.3333 60.8333C53.3333 52.5 39.1667 56.25 39.1667 43.75C39.1667 35 47.0833 33.75 48.3333 33.75H52.5C53.75 34.1667 61.25 36.25 61.25 46.25H53.3333C53.3333 41.25 50.8333 39.5833 50 39.5833C49.5833 39.5833 47.0833 39.5833 47.0833 44.1667C46.6667 50.8333 60.8333 48.75 60.8333 60.8333Z" fill="#EF5C50"/>
</svg>
