<svg width="104" height="104" viewBox="0 0 104 104" fill="none" xmlns="http://www.w3.org/2000/svg">
<path d="M39 30.3333H47.6667V39H39V30.3333ZM39 47.6666H47.6667V56.3333H39V47.6666ZM39 65H47.6667V73.6666H39V65ZM56.3333 30.3333H65V39H56.3333V30.3333ZM56.3333 47.6666H65V56.3333H56.3333V47.6666ZM82.3333 104C81.0333 104 80.1667 103.567 79.3 102.7L76.2667 99.6666H69.3333C66.7333 99.6666 65 97.9333 65 95.3333V88.4L61.9667 85.3667C60.2333 83.6333 60.2333 81.0333 61.9667 79.3L65 76.2667V69.3333C65 66.7333 66.7333 65 69.3333 65H76.2667L79.3 61.9666C81.0333 60.2333 83.6333 60.2333 85.3667 61.9666L88.4 65H95.3333C97.9333 65 99.6667 66.7333 99.6667 69.3333V76.2667L102.7 79.3C104.433 81.0333 104.433 83.6333 102.7 85.3667L99.6667 88.4V95.3333C99.6667 97.9333 97.9333 99.6666 95.3333 99.6666H88.4L85.3667 102.7C84.5 103.567 83.6333 104 82.3333 104ZM73.6667 91H78C79.3 91 80.1667 91.4333 81.0333 92.3L82.3333 93.6L83.6333 92.3C84.5 91.4333 85.3667 91 86.6667 91H91V86.6666C91 85.3666 91.4333 84.5 92.3 83.6333L93.6 82.3333L92.3 81.0333C91.4333 80.1667 91 79.3 91 78V73.6666H86.6667C85.3667 73.6666 84.5 73.2333 83.6333 72.3666L82.3333 71.0666L81.0333 72.3666C80.1667 73.2333 79.3 73.6666 78 73.6666H73.6667V78C73.6667 79.3 73.2333 80.1667 72.3667 81.0333L71.0667 82.3333L72.3667 83.6333C73.2333 84.5 73.6667 85.3666 73.6667 86.6666V91Z" fill="#EF5C50"/>
<path d="M52 82.3333H30.3334V21.6667H73.6667V55.4667C76.2667 53.3 79.3 52 82.3334 52V21.6667C82.3334 16.9 78.4334 13 73.6667 13H30.3334C25.5667 13 21.6667 16.9 21.6667 21.6667V91H55.4667C53.3 88.4 52 85.3667 52 82.3333Z" fill="#EF5C50"/>
<path opacity="0.3" d="M52 82.3333C52 78.8666 53.3 75.4 55.9 73.2333L56.3333 72.8V69.3333C56.3333 61.9666 61.9667 56.3333 69.3333 56.3333H72.8L73.2333 55.9C74.5333 54.6 76.2667 53.3 78 52.8666V17.3333H26V86.6666H52.8667C52.4333 85.3666 52 83.6333 52 82.3333Z" fill="#EF5C50"/>
</svg>
