<svg width="100" height="100" viewBox="0 0 100 100" fill="none" xmlns="http://www.w3.org/2000/svg">
<path opacity="0.13" d="M45.8334 33.3333H87.5V83.3333H45.8334V33.3333Z" fill="#EF5C50"/>
<path d="M8.33334 12.5V87.5H50V12.5H8.33334ZM25 29.1667H16.6667V20.8333H25V29.1667ZM41.6667 29.1667H33.3333V20.8333H41.6667V29.1667ZM25 45.8333H16.6667V37.5H25V45.8333ZM41.6667 45.8333H33.3333V37.5H41.6667V45.8333ZM25 62.5H16.6667V54.1667H25V62.5ZM41.6667 62.5H33.3333V54.1667H41.6667V62.5ZM25 79.1667H16.6667V70.8333H25V79.1667ZM41.6667 79.1667H33.3333V70.8333H41.6667V79.1667ZM50 29.1667V37.5H83.3333V79.1667H50V87.5H91.6667V29.1667H50Z" fill="#EF5C50"/>
<path d="M45.8334 45.8333H58.3334V54.1666H45.8334V45.8333ZM45.8334 62.5H58.3334V70.8333H45.8334V62.5ZM66.6667 45.8333H75V54.1666H66.6667V45.8333ZM66.6667 62.5H75V70.8333H66.6667V62.5Z" fill="#EF5C50"/>
</svg>
