<svg width="100" height="100" viewBox="0 0 100 100" fill="none" xmlns="http://www.w3.org/2000/svg">
<path d="M25 95.8333C22.6958 95.8333 20.8333 93.9708 20.8333 91.6667C20.8333 89.45 17.9125 87.5 14.5833 87.5C11.2542 87.5 8.33333 89.45 8.33333 91.6667C8.33333 93.9708 6.47083 95.8333 4.16667 95.8333C1.8625 95.8333 0 93.9708 0 91.6667C0 84.775 6.54167 79.1667 14.5833 79.1667C22.625 79.1667 29.1667 84.775 29.1667 91.6667C29.1667 93.9708 27.3042 95.8333 25 95.8333Z" fill="#EF5C50"/>
<path opacity="0.3" d="M14.5834 58.3333C11.8207 58.3333 9.17116 59.4308 7.21766 61.3843C5.26415 63.3378 4.16669 65.9873 4.16669 68.75C4.16669 71.5127 5.26415 74.1622 7.21766 76.1157C9.17116 78.0692 11.8207 79.1667 14.5834 79.1667C17.346 79.1667 19.9955 78.0692 21.9491 76.1157C23.9026 74.1622 25 71.5127 25 68.75C25 65.9873 23.9026 63.3378 21.9491 61.3843C19.9955 59.4308 17.346 58.3333 14.5834 58.3333Z" fill="#EF5C50"/>
<path d="M14.5833 83.3333C6.54167 83.3333 0 76.7916 0 68.75C0 60.7083 6.54167 54.1667 14.5833 54.1667C22.625 54.1667 29.1667 60.7083 29.1667 68.75C29.1667 76.7916 22.625 83.3333 14.5833 83.3333ZM14.5833 62.5C11.1375 62.5 8.33333 65.3041 8.33333 68.75C8.33333 72.1958 11.1375 75 14.5833 75C18.0292 75 20.8333 72.1958 20.8333 68.75C20.8333 65.3041 18.0292 62.5 14.5833 62.5ZM58.3333 95.8333C56.0292 95.8333 54.1667 93.9708 54.1667 91.6666C54.1667 89.45 51.2458 87.5 47.9167 87.5C44.5875 87.5 41.6667 89.45 41.6667 91.6666C41.6667 93.9708 39.8042 95.8333 37.5 95.8333C35.1958 95.8333 33.3333 93.9708 33.3333 91.6666C33.3333 84.775 39.875 79.1666 47.9167 79.1666C55.9583 79.1666 62.5 84.775 62.5 91.6666C62.5 93.9708 60.6375 95.8333 58.3333 95.8333Z" fill="#EF5C50"/>
<path opacity="0.3" d="M47.9167 58.3333C45.154 58.3333 42.5045 59.4308 40.551 61.3843C38.5975 63.3378 37.5 65.9873 37.5 68.75C37.5 71.5127 38.5975 74.1622 40.551 76.1157C42.5045 78.0692 45.154 79.1667 47.9167 79.1667C50.6793 79.1667 53.3289 78.0692 55.2824 76.1157C57.2359 74.1622 58.3333 71.5127 58.3333 68.75C58.3333 65.9873 57.2359 63.3378 55.2824 61.3843C53.3289 59.4308 50.6793 58.3333 47.9167 58.3333Z" fill="#EF5C50"/>
<path d="M47.9166 83.3333C39.875 83.3333 33.3333 76.7917 33.3333 68.75C33.3333 60.7083 39.875 54.1667 47.9166 54.1667C55.9583 54.1667 62.5 60.7083 62.5 68.75C62.5 76.7917 55.9583 83.3333 47.9166 83.3333ZM47.9166 62.5C44.4708 62.5 41.6666 65.3042 41.6666 68.75C41.6666 72.1958 44.4708 75 47.9166 75C51.3625 75 54.1666 72.1958 54.1666 68.75C54.1666 65.3042 51.3625 62.5 47.9166 62.5ZM58.3333 45.8333C56.0291 45.8333 54.1666 43.9667 54.1666 41.6667C54.1666 39.4458 51.2458 37.5 47.9166 37.5C44.5875 37.5 41.6666 39.4458 41.6666 41.6667C41.6666 43.9667 39.8041 45.8333 37.5 45.8333C35.1958 45.8333 33.3333 43.9667 33.3333 41.6667C33.3333 34.775 39.875 29.1667 47.9166 29.1667C55.9583 29.1667 62.5 34.775 62.5 41.6667C62.5 43.9667 60.6375 45.8333 58.3333 45.8333Z" fill="#EF5C50"/>
<path opacity="0.3" d="M47.9167 8.33334C45.154 8.33334 42.5045 9.43081 40.551 11.3843C38.5975 13.3378 37.5 15.9873 37.5 18.75C37.5 21.5127 38.5975 24.1622 40.551 26.1157C42.5045 28.0692 45.154 29.1667 47.9167 29.1667C50.6793 29.1667 53.3289 28.0692 55.2824 26.1157C57.2359 24.1622 58.3333 21.5127 58.3333 18.75C58.3333 15.9873 57.2359 13.3378 55.2824 11.3843C53.3289 9.43081 50.6793 8.33334 47.9167 8.33334Z" fill="#EF5C50"/>
<path d="M47.9166 33.3333C39.875 33.3333 33.3333 26.7917 33.3333 18.75C33.3333 10.7083 39.875 4.16666 47.9166 4.16666C55.9583 4.16666 62.5 10.7083 62.5 18.75C62.5 26.7917 55.9583 33.3333 47.9166 33.3333ZM47.9166 12.5C44.4708 12.5 41.6666 15.3042 41.6666 18.75C41.6666 22.1958 44.4708 25 47.9166 25C51.3625 25 54.1666 22.1958 54.1666 18.75C54.1666 15.3042 51.3625 12.5 47.9166 12.5ZM91.6666 95.8333C89.3625 95.8333 87.5 93.9708 87.5 91.6666C87.5 89.45 84.5791 87.5 81.25 87.5C77.9208 87.5 75 89.45 75 91.6666C75 93.9708 73.1375 95.8333 70.8333 95.8333C68.5291 95.8333 66.6666 93.9708 66.6666 91.6666C66.6666 84.775 73.2083 79.1666 81.25 79.1666C89.2916 79.1666 95.8333 84.775 95.8333 91.6666C95.8333 93.9708 93.9708 95.8333 91.6666 95.8333Z" fill="#EF5C50"/>
<path opacity="0.3" d="M81.25 58.3333C78.4873 58.3333 75.8378 59.4308 73.8843 61.3843C71.9308 63.3378 70.8333 65.9873 70.8333 68.75C70.8333 71.5127 71.9308 74.1622 73.8843 76.1157C75.8378 78.0692 78.4873 79.1667 81.25 79.1667C84.0127 79.1667 86.6622 78.0692 88.6157 76.1157C90.5692 74.1622 91.6667 71.5127 91.6667 68.75C91.6667 65.9873 90.5692 63.3378 88.6157 61.3843C86.6622 59.4308 84.0127 58.3333 81.25 58.3333Z" fill="#EF5C50"/>
<path d="M81.25 83.3333C73.2083 83.3333 66.6667 76.7917 66.6667 68.75C66.6667 60.7083 73.2083 54.1667 81.25 54.1667C89.2917 54.1667 95.8333 60.7083 95.8333 68.75C95.8333 76.7917 89.2917 83.3333 81.25 83.3333ZM81.25 62.5C77.8042 62.5 75 65.3042 75 68.75C75 72.1958 77.8042 75 81.25 75C84.6958 75 87.5 72.1958 87.5 68.75C87.5 65.3042 84.6958 62.5 81.25 62.5ZM12.5 45.8333C10.1959 45.8333 8.33335 43.9667 8.33335 41.6667V25C8.33335 22.7 10.1959 20.8333 12.5 20.8333H25C27.3042 20.8333 29.1667 22.7 29.1667 25C29.1667 27.3 27.3042 29.1667 25 29.1667H16.6667V41.6667C16.6667 43.9667 14.8042 45.8333 12.5 45.8333ZM83.3333 45.8333C81.0292 45.8333 79.1667 43.9667 79.1667 41.6667V29.1667H70.8333C68.5292 29.1667 66.6667 27.3 66.6667 25C66.6667 22.7 68.5292 20.8333 70.8333 20.8333H83.3333C85.6375 20.8333 87.5 22.7 87.5 25V41.6667C87.5 43.9667 85.6375 45.8333 83.3333 45.8333ZM25 95.8333V93.75C25 87.9958 20.3375 83.3333 14.5834 83.3333C8.82919 83.3333 4.16669 87.9958 4.16669 93.75V95.8333H25ZM58.3333 95.8333V93.75C58.3333 87.9958 53.6708 83.3333 47.9167 83.3333C42.1625 83.3333 37.5 87.9958 37.5 93.75V95.8333H58.3333ZM58.3333 45.8333V43.75C58.3333 37.9958 53.6708 33.3333 47.9167 33.3333C42.1625 33.3333 37.5 37.9958 37.5 43.75V45.8333H58.3333ZM91.6667 95.8333V93.75C91.6667 87.9958 87.0042 83.3333 81.25 83.3333C75.4958 83.3333 70.8333 87.9958 70.8333 93.75V95.8333H91.6667Z" fill="#EF5C50"/>
</svg>
