<svg width="200" height="76" viewBox="0 0 200 76" fill="none" xmlns="http://www.w3.org/2000/svg">
<g clip-path="url(#clip0)">
<path d="M24.6459 21.5246C24.6821 21.127 24.6102 20.727 24.4379 20.3668C24.2656 20.0067 23.9993 19.6997 23.667 19.4783C23.0427 19.225 22.3702 19.1122 21.6974 19.1481H16.5964V29.468H22.1514C23.4311 29.468 24.4631 29.757 24.5103 30.901H24.6341L24.6459 21.5246Z" fill="white"/>
<path d="M24.6459 21.5246C24.6821 21.127 24.6102 20.727 24.4379 20.3668C24.2656 20.0067 23.9993 19.6997 23.667 19.4783C23.0427 19.225 22.3702 19.1122 21.6974 19.1481H16.5964V29.468H22.1514C23.4311 29.468 24.4631 29.757 24.5103 30.901H24.6341L24.6459 21.5246Z" stroke="#888888" stroke-width="1.06" stroke-miterlimit="3.86"/>
<path d="M24.6377 21.5245C24.6021 21.1263 24.6749 20.7259 24.8483 20.3657C25.0216 20.0054 25.2891 19.6988 25.6225 19.4782C26.3026 19.2258 27.0267 19.1135 27.7514 19.1479H32.8877V29.4678H27.3209C26.0412 29.4678 24.85 29.7568 24.7851 30.9008H24.6613L24.6377 21.5245Z" fill="white"/>
<path d="M24.6377 21.5245C24.6021 21.1263 24.6749 20.7259 24.8483 20.3657C25.0216 20.0054 25.2891 19.6988 25.6225 19.4782C26.3026 19.2258 27.0267 19.1135 27.7514 19.1479H32.8877V29.4678H27.3209C26.0412 29.4678 24.85 29.7568 24.7851 30.9008H24.6613L24.6377 21.5245Z" stroke="#888888" stroke-width="1.06" stroke-miterlimit="3.86"/>
<path d="M33.9532 19.9264V30.8184H26.0629L25.9745 31.0424C25.8388 31.3786 25.5912 31.6911 24.7302 31.6911C23.8692 31.6911 23.6215 31.3786 23.4859 31.0424L23.3975 30.8184H15.5248V19.9264H14.8113V20.2626L14.1272 20.0503C14.0928 19.9335 14.0261 19.8288 13.9349 19.7481C13.8437 19.6674 13.7317 19.614 13.6116 19.594C13.4915 19.574 13.3682 19.5882 13.2558 19.635C13.1433 19.6818 13.0464 19.7593 12.9759 19.8586C12.9055 19.9579 12.8644 20.0751 12.8575 20.1966C12.8505 20.3182 12.8778 20.4393 12.9364 20.546C12.995 20.6527 13.0824 20.7408 13.1887 20.8002C13.295 20.8596 13.4159 20.8878 13.5375 20.8818C13.6877 20.8843 13.8333 20.8295 13.9444 20.7284L14.8408 21.0056V21.8784L14.1685 21.7604C14.1186 21.6448 14.0364 21.5461 13.9318 21.476C13.8273 21.4059 13.7047 21.3675 13.5788 21.3653C13.4067 21.3653 13.2417 21.4337 13.1201 21.5553C12.9984 21.677 12.9301 21.842 12.9301 22.014C12.9301 22.186 12.9984 22.351 13.1201 22.4727C13.2417 22.5943 13.4067 22.6627 13.5788 22.6627C13.6668 22.6621 13.7537 22.644 13.8347 22.6096C13.9157 22.5752 13.989 22.5251 14.0506 22.4622L14.8467 22.6037V23.4942H14.1449C14.0683 23.3794 13.9569 23.2924 13.8271 23.2458C13.6972 23.1993 13.5558 23.1958 13.4238 23.2358C13.2918 23.2758 13.1762 23.3572 13.094 23.468C13.0118 23.5787 12.9674 23.713 12.9674 23.8509C12.9674 23.9889 13.0118 24.1232 13.094 24.2339C13.1762 24.3447 13.2918 24.4261 13.4238 24.4661C13.5558 24.5061 13.6972 24.5026 13.8271 24.456C13.9569 24.4095 14.0683 24.3225 14.1449 24.2077H14.8761V25.1807H14.1626C14.098 25.0904 14.0113 25.0182 13.9107 24.971C13.8102 24.9238 13.6992 24.9032 13.5885 24.9112C13.4777 24.9191 13.3708 24.9554 13.2781 25.0165C13.1854 25.0776 13.1099 25.1615 13.0588 25.2601C13.0078 25.3588 12.983 25.4689 12.9867 25.5799C12.9904 25.6909 13.0226 25.799 13.0801 25.8941C13.1376 25.9891 13.2185 26.0677 13.3151 26.1225C13.4117 26.1772 13.5208 26.2063 13.6319 26.2068C13.7431 26.2056 13.8522 26.1764 13.9491 26.1217C14.046 26.0671 14.1276 25.9889 14.1862 25.8943H14.8761V26.7847L14.0918 26.9204C13.9961 26.8188 13.8701 26.7509 13.7326 26.7266C13.5952 26.7024 13.4535 26.7231 13.3288 26.7858C13.2041 26.8484 13.1029 26.9496 13.0402 27.0744C12.9776 27.1991 12.9569 27.3407 12.9811 27.4782C13.0054 27.6157 13.0733 27.7416 13.1749 27.8374C13.2764 27.9332 13.4062 27.9936 13.5448 28.0098C13.6834 28.0259 13.8236 27.997 13.9445 27.9271C14.0653 27.8573 14.1604 27.7503 14.2157 27.6221L14.8761 27.5101V28.3829L14.0211 28.6482C13.9139 28.5585 13.7806 28.5057 13.6411 28.4978C13.5015 28.49 13.3632 28.5274 13.2466 28.6045C13.13 28.6816 13.0415 28.7943 12.9942 28.9258C12.9468 29.0574 12.9432 29.2006 12.9839 29.3344C13.0246 29.4681 13.1074 29.5851 13.22 29.6679C13.3326 29.7508 13.4689 29.7951 13.6087 29.7942C13.7484 29.7933 13.8842 29.7472 13.9957 29.663C14.1072 29.5787 14.1885 29.4606 14.2275 29.3264L14.8761 29.1318V29.981L13.9267 30.3879C13.8232 30.3155 13.6992 30.2783 13.5729 30.2817C13.4493 30.2813 13.3282 30.3163 13.2238 30.3824C13.1193 30.4485 13.036 30.5431 12.9835 30.655C12.931 30.7669 12.9116 30.8915 12.9276 31.014C12.9435 31.1366 12.9941 31.252 13.0735 31.3468C13.1528 31.4416 13.2576 31.5117 13.3754 31.5489C13.4933 31.5862 13.6193 31.589 13.7387 31.557C13.8581 31.525 13.9658 31.4596 14.0493 31.3684C14.1327 31.2773 14.1884 31.1642 14.2098 31.0424L14.8761 30.7535V31.5496H22.9552C23.1647 31.8191 23.433 32.0371 23.7396 32.1871C24.0462 32.3371 24.383 32.4151 24.7243 32.4151C25.0656 32.4151 25.4024 32.3371 25.709 32.1871C26.0156 32.0371 26.2839 31.8191 26.4934 31.5496H34.655V19.9264H33.9532Z" fill="#888888"/>
<path d="M19.3753 16.2998C17.73 16.2998 16.3914 16.5534 16.3914 16.8895C16.3914 17.2256 17.73 17.4792 19.3753 17.4792C21.0206 17.4792 22.3592 17.2198 22.3592 16.8895C22.3592 16.5593 21.0206 16.2998 19.3753 16.2998Z" fill="#888888"/>
<path d="M23.476 12.726L21.7541 13.9054V14.0292L22.161 14.2121C22.2435 14.2533 22.2435 14.3182 22.2023 14.3595L21.1231 15.2676H21.0169L20.2444 14.159C20.1914 14.0882 20.2149 14.0115 20.3034 13.9998L20.8223 13.9113V13.7875L19.4837 11.9004H19.2655L17.9328 13.7875V13.9113L18.4517 13.9998C18.5402 13.9998 18.5579 14.0882 18.5107 14.159L17.7441 15.2912H17.6379L16.6295 14.3831C16.5882 14.3418 16.5882 14.2769 16.6708 14.2356L17.0777 14.0528V13.929L15.3086 12.7496L15.1611 12.8085L16.2167 16.0225C18.3108 15.463 20.5151 15.463 22.6092 16.0225L23.6647 12.8085L23.476 12.726Z" fill="#888888"/>
<path d="M24.7218 37.8652C23.0765 37.8652 21.7379 38.1247 21.7379 38.4549C21.7379 38.7852 23.0765 39.0447 24.7218 39.0447C26.3671 39.0447 27.7057 38.7911 27.7057 38.4549C27.7057 38.1188 26.3671 37.8652 24.7218 37.8652Z" fill="#888888"/>
<path d="M28.8274 34.2916L27.1054 35.471V35.5949L27.5123 35.7777C27.5949 35.819 27.5949 35.8838 27.5536 35.9251L26.4567 36.8569H26.3565L25.5899 35.7305C25.5368 35.6538 25.5604 35.5831 25.6488 35.5654L26.1619 35.4828V35.3531L24.8291 33.4719H24.6109L23.2782 35.3531V35.4828L23.7912 35.5654C23.8856 35.5654 23.9033 35.6538 23.8502 35.7305L23.0836 36.8569H22.9833L21.9749 35.9428C21.9336 35.9015 21.9337 35.8367 22.0162 35.7954L22.4231 35.6126V35.4887L20.654 34.3093L20.5125 34.3683L21.5621 37.5822C23.6594 37.0318 25.8632 37.0318 27.9605 37.5822L29.0161 34.3683L28.8274 34.2916Z" fill="#888888"/>
<path d="M30.0528 16.2998C28.4075 16.2998 27.1042 16.5534 27.1042 16.8895C27.1042 17.2256 28.437 17.4792 30.0528 17.4792C31.6686 17.4792 33.0367 17.2198 33.0367 16.8895C33.0367 16.5593 31.704 16.2998 30.0528 16.2998Z" fill="#888888"/>
<path d="M34.1626 12.7261L32.4406 13.9056V14.0294L32.8475 14.2122C32.9301 14.2535 32.9301 14.3184 32.8947 14.3596L31.8096 15.2678H31.7094L30.9427 14.1355C30.8897 14.0648 30.9074 13.9881 31.0017 13.9763L31.5148 13.8879V13.764L30.182 11.877H29.9638L28.6311 13.764V13.8879L29.1441 13.9763C29.2385 13.9763 29.2562 14.0648 29.2031 14.1355L28.4365 15.2678H28.3362L27.3219 14.3714C27.2806 14.336 27.2865 14.2712 27.3632 14.2299L27.776 14.0589V13.935L26.0069 12.7556L25.8594 12.8146L26.915 16.0285C29.0113 15.4702 31.2171 15.4702 33.3134 16.0285L34.3631 12.8146L34.1626 12.7261Z" fill="#888888"/>
<path d="M18.0286 20.7991C18.2671 20.78 18.5038 20.8539 18.6891 21.0055C18.7507 21.0664 18.7997 21.139 18.8331 21.2189C18.8665 21.2989 18.8837 21.3847 18.8837 21.4714C18.8837 22.0611 18.4591 22.2733 17.9283 22.2733H17.3386V22.1908C17.5037 22.1908 17.5214 22.1908 17.5214 21.9136V21.1647C17.5214 20.9171 17.5214 20.9053 17.3563 20.8876V20.7991H18.0286ZM17.9165 21.9136C17.9165 22.12 17.9637 22.1554 18.0758 22.1554C18.1878 22.1554 18.465 21.9431 18.465 21.5657C18.465 21.1883 18.2173 20.976 18.0286 20.976C17.9954 20.9707 17.9615 20.9707 17.9283 20.976C17.9283 20.976 17.9283 21.035 17.9283 21.094L17.9165 21.9136Z" fill="#888888"/>
<path d="M20.6022 21.5246C20.6098 21.6283 20.5954 21.7324 20.5599 21.8302C20.5243 21.9279 20.4685 22.017 20.3961 22.0916C20.3237 22.1663 20.2364 22.2247 20.1398 22.2632C20.0432 22.3017 19.9395 22.3192 19.8356 22.3148C19.7339 22.3215 19.632 22.3067 19.5364 22.2714C19.4408 22.2361 19.3537 22.1811 19.2809 22.1098C19.208 22.0386 19.1509 21.9529 19.1134 21.8581C19.0759 21.7634 19.0587 21.6618 19.0631 21.56C19.059 21.4553 19.0765 21.351 19.1143 21.2533C19.1521 21.1557 19.2096 21.0668 19.283 20.9923C19.3565 20.9177 19.4445 20.8589 19.5416 20.8196C19.6387 20.7804 19.7427 20.7614 19.8474 20.7639C19.9484 20.7587 20.0493 20.7749 20.1437 20.8114C20.238 20.8479 20.3235 20.9039 20.3947 20.9756C20.466 21.0474 20.5213 21.1334 20.557 21.228C20.5928 21.3226 20.6082 21.4237 20.6022 21.5246ZM19.4995 21.4892C19.4995 21.8961 19.6528 22.1969 19.8769 22.1969C20.101 22.1969 20.1777 22.0082 20.1777 21.6072C20.1777 21.2062 20.0184 20.8936 19.8238 20.8936C19.6292 20.8936 19.4995 21.0823 19.4995 21.4833V21.4892Z" fill="#888888"/>
<path d="M22.6055 20.7991V20.8875C22.4345 20.8875 22.4227 20.8875 22.4286 21.1529V21.9136C22.4286 22.1672 22.4286 22.1731 22.6055 22.1849V22.2792H21.8919V22.1849C22.0629 22.1849 22.0688 22.1849 22.0688 21.9136V21.1116L21.6325 22.2497H21.5086L21.0958 21.1942V21.6954C21.0885 21.8211 21.0885 21.9471 21.0958 22.0728C21.0958 22.1554 21.1548 22.179 21.3022 22.1849V22.2792H20.742V22.1849C20.8482 22.1849 20.8953 22.1554 20.9071 22.0728C20.9189 21.9903 20.9071 21.8841 20.9425 21.6718V21.2178C20.9425 20.9288 20.9425 20.9052 20.7656 20.8875V20.7991H21.2963L21.6973 21.7013L22.0394 20.7991H22.6055Z" fill="#888888"/>
<path d="M23.3482 21.9136C23.3482 22.1613 23.3482 22.1731 23.5251 22.1908V22.2733H22.788V22.1908C22.9413 22.1908 22.9649 22.1908 22.9649 21.9136V21.1647C22.9649 20.917 22.9649 20.9052 22.788 20.8875V20.7991H23.5251V20.8875C23.3659 20.8875 23.3482 20.8875 23.3482 21.1647V21.9136Z" fill="#888888"/>
<path d="M19.6933 25.0154H19.4987L18.6613 23.9421V24.3608C18.6511 24.5061 18.6511 24.6519 18.6613 24.7972C18.6613 24.8739 18.732 24.9034 18.8795 24.9152V25.0036H18.3192V24.9152C18.4195 24.9152 18.4785 24.8739 18.4844 24.7972C18.4946 24.6519 18.4946 24.5061 18.4844 24.3608V23.9421C18.4844 23.777 18.4844 23.7475 18.4372 23.6827C18.39 23.6178 18.3487 23.6237 18.2662 23.6119V23.5234H18.7674L19.5223 24.467V24.1662C19.5223 23.9244 19.5223 23.8006 19.5223 23.7298C19.5223 23.6591 19.4456 23.6237 19.2982 23.6119V23.5234H19.8879V23.6119C19.7758 23.6119 19.7169 23.6532 19.7051 23.7298C19.6933 23.8065 19.7051 23.9244 19.7051 24.1662L19.6933 25.0154Z" fill="#888888"/>
<path d="M20.6106 25.0154C20.4514 24.6085 20.2391 24.0483 20.1566 23.836C20.074 23.6237 20.0386 23.6296 19.9266 23.6119V23.5234H20.6637V23.6119H20.5871C20.4986 23.6119 20.4986 23.6119 20.5281 23.718C20.5576 23.8242 20.7463 24.3078 20.8288 24.5141C20.8996 24.3254 21.047 23.8891 21.0824 23.7829C21.1178 23.6768 21.1178 23.6178 21.0117 23.6119H20.9468V23.5234H21.4952V23.6119C21.3655 23.6119 21.336 23.6119 21.2475 23.8478C21.2475 23.8478 20.9527 24.5554 20.7876 25.0272L20.6106 25.0154Z" fill="#888888"/>
<path d="M21.6354 24.5321C21.6825 24.6677 21.8123 24.9154 22.0364 24.9154C22.0655 24.9163 22.0945 24.9111 22.1215 24.9C22.1485 24.8889 22.1728 24.8722 22.1929 24.8511C22.2129 24.8299 22.2283 24.8047 22.2379 24.7772C22.2475 24.7496 22.2512 24.7204 22.2487 24.6913C22.2487 24.5616 22.1602 24.4849 22.0187 24.42H21.9833C21.8005 24.3375 21.5882 24.2195 21.5882 23.9719C21.5882 23.7242 21.771 23.5119 22.1307 23.5119C22.2012 23.5032 22.2725 23.5032 22.343 23.5119L22.4551 23.5473C22.4551 23.6357 22.4845 23.7478 22.5081 23.9011H22.4079C22.3548 23.7537 22.2781 23.5886 22.0953 23.5886C22.0432 23.5901 21.9937 23.6119 21.9574 23.6493C21.921 23.6868 21.9007 23.7369 21.9007 23.7891C21.9007 23.9011 21.9892 23.966 22.1366 24.0367H22.1838C22.3961 24.1311 22.573 24.2431 22.573 24.5085C22.5705 24.5808 22.5527 24.6518 22.5208 24.7168C22.4889 24.7818 22.4436 24.8393 22.3879 24.8855C22.3322 24.9317 22.2674 24.9656 22.1976 24.985C22.1279 25.0044 22.0549 25.0088 21.9833 24.998C21.9012 24.9953 21.8198 24.9815 21.7415 24.9567L21.6 24.9036C21.6 24.7975 21.5469 24.6736 21.5233 24.5203L21.6354 24.5321Z" fill="#888888"/>
<path d="M18.6802 27.3626C18.6802 27.6103 18.6802 27.6221 18.8513 27.6398V27.7283H18.12V27.6398C18.2733 27.6398 18.291 27.6103 18.291 27.3626V26.6137C18.291 26.366 18.291 26.3542 18.12 26.3365V26.2422H18.8513V26.3306C18.6979 26.3306 18.6802 26.3306 18.6802 26.6078V27.3626Z" fill="#888888"/>
<path d="M19.5805 27.4216C19.5805 27.5395 19.5805 27.5985 19.6277 27.6162C19.6801 27.6275 19.7344 27.6275 19.7869 27.6162C19.8262 27.6199 19.8658 27.6156 19.9033 27.6034C19.9408 27.5912 19.9755 27.5715 20.0051 27.5454C20.0592 27.4804 20.0976 27.4037 20.1171 27.3214H20.2115C20.2115 27.4098 20.1525 27.6457 20.1348 27.7165H19.0085V27.628C19.1795 27.628 19.1972 27.5985 19.1972 27.3508V26.6137C19.1972 26.366 19.1972 26.3542 19.0262 26.3365V26.2422H19.7633V26.3306C19.5982 26.3306 19.5805 26.3306 19.5805 26.6078V27.4216Z" fill="#888888"/>
<path d="M20.8339 27.4216C20.8339 27.5395 20.8339 27.5985 20.8811 27.6162C20.9335 27.6275 20.9878 27.6275 21.0403 27.6162C21.0796 27.6199 21.1192 27.6156 21.1567 27.6034C21.1942 27.5912 21.2289 27.5715 21.2585 27.5454C21.3104 27.479 21.3485 27.4028 21.3705 27.3214H21.4649C21.4448 27.4545 21.4172 27.5864 21.3823 27.7165H20.2442V27.628C20.4211 27.628 20.4388 27.5985 20.4388 27.3508V26.6137C20.4388 26.366 20.4388 26.3542 20.2678 26.3365V26.2422H21.0049V26.3306C20.8398 26.3306 20.8221 26.3306 20.8221 26.6078L20.8339 27.4216Z" fill="#888888"/>
<path d="M21.9329 27.7401C21.7796 27.3332 21.5614 26.7729 21.4788 26.5606C21.3963 26.3483 21.3609 26.3542 21.2548 26.3365V26.2422H22.0155V26.3306H21.9388C21.8563 26.3306 21.8563 26.3306 21.8799 26.4368C21.9034 26.5429 22.098 27.0265 22.1806 27.2329C22.2514 27.0442 22.3988 26.6078 22.4342 26.5017C22.4696 26.3955 22.4696 26.3365 22.3693 26.3306H22.2985V26.2422H22.847V26.3306C22.7172 26.3306 22.6878 26.3306 22.5993 26.5665C22.5993 26.5665 22.3103 27.2742 22.1393 27.7459L21.9329 27.7401Z" fill="#888888"/>
<path d="M27.7816 20.7991V20.8875C27.6106 20.8875 27.5988 20.8875 27.6047 21.1529V21.9136C27.6047 22.1672 27.6047 22.1731 27.7816 22.1849V22.2792H27.0681V22.1849C27.2391 22.1849 27.245 22.1849 27.245 21.9136V21.1116L26.8086 22.2497H26.6848L26.272 21.1942V21.6954C26.2615 21.821 26.2615 21.9472 26.272 22.0728C26.272 22.1554 26.331 22.179 26.4784 22.1849V22.2792H25.8887V22.1849C25.9948 22.1849 26.042 22.1554 26.0538 22.0728C26.0656 21.9903 26.0538 21.8841 26.0892 21.6718V21.2178C26.0892 20.9288 26.0892 20.9052 25.9064 20.8875V20.7991H26.443L26.8381 21.7013L27.186 20.7991H27.7816Z" fill="#888888"/>
<path d="M28.4996 21.9136C28.4996 22.1613 28.4996 22.1731 28.6765 22.1908V22.2733H27.9393V22.1908C28.0927 22.1908 28.1162 22.1908 28.1162 21.9136V21.1647C28.1162 20.917 28.1162 20.9052 27.9393 20.8875V20.7991H28.6765V20.8875C28.5172 20.8875 28.4996 20.8875 28.4996 21.1647V21.9136Z" fill="#888888"/>
<path d="M30.2113 22.291H30.0108L29.1734 21.2178V21.6365C29.1734 21.8782 29.1734 22.0021 29.1734 22.0728C29.1734 22.1436 29.2442 22.179 29.3975 22.1908V22.2792H28.8078V22.1908C28.908 22.1908 28.967 22.1495 28.9788 22.0728C28.989 21.9275 28.989 21.7817 28.9788 21.6365V21.2178C28.9788 21.0526 28.9788 21.0232 28.9257 20.9583C28.8726 20.8934 28.8373 20.8993 28.7547 20.8875V20.7991H29.256L30.0167 21.7426V21.436C30.0268 21.2926 30.0268 21.1488 30.0167 21.0055C30.0167 20.9229 29.9459 20.8993 29.7926 20.8875V20.7991H30.3823V20.8875C30.2703 20.8875 30.2054 20.9229 30.1936 21.0055C30.1818 21.088 30.1936 21.2001 30.1936 21.436L30.2113 22.291Z" fill="#888888"/>
<path d="M31.1541 22.1908H31.2249C31.3074 22.1908 31.3133 22.1554 31.2839 22.0729L31.2013 21.8429H30.8593L30.7885 22.0611C30.759 22.1613 30.759 22.1849 30.8652 22.1908H30.93V22.2793H30.4052V22.1908C30.5173 22.1908 30.5526 22.1908 30.6293 21.9726L31.0834 20.7932H31.2367L31.39 21.2178L31.6731 21.9903C31.7438 22.1849 31.791 22.1967 31.8971 22.2144V22.3029H31.1541V22.1908ZM30.8711 21.6955H31.16L31.0185 21.2591L30.8711 21.6955Z" fill="#888888"/>
<path d="M27.7624 24.6381C27.7624 24.8858 27.7625 24.8976 27.9688 24.9152V25.0037H27.1728V24.9152C27.3556 24.9152 27.3733 24.9152 27.3733 24.6381V23.6474H27.3202C27.1669 23.6474 27.1079 23.6474 27.0725 23.7122C27.0269 23.7773 26.9966 23.8519 26.9841 23.9304H26.8897C26.8897 23.7417 26.8897 23.5825 26.8897 23.4705H26.9605C26.99 23.5235 27.0135 23.5235 27.0784 23.5235H27.9806C28.0016 23.5263 28.0229 23.5227 28.0418 23.5132C28.0607 23.5038 28.0764 23.4889 28.0868 23.4705H28.1575C28.1575 23.5648 28.1575 23.7594 28.1575 23.9245H28.0632C28.0513 23.8412 28.0189 23.7622 27.9688 23.6945C27.9032 23.65 27.8234 23.6312 27.7448 23.6415H27.6917L27.7624 24.6381Z" fill="#888888"/>
<path d="M28.9487 24.6383C28.9487 24.8859 28.9487 24.8977 29.1256 24.9154V25.0039H28.3885V24.9154C28.5477 24.9154 28.5654 24.9154 28.5654 24.6383V23.8834C28.5654 23.6417 28.5654 23.624 28.3885 23.6063V23.5178H29.1256V23.6063C28.9664 23.6063 28.9487 23.6417 28.9487 23.8834V24.6383Z" fill="#888888"/>
<path d="M30.8586 24.2432C30.8652 24.347 30.8501 24.4509 30.8143 24.5485C30.7785 24.6461 30.7228 24.7352 30.6507 24.8101C30.5785 24.885 30.4916 24.9441 30.3955 24.9835C30.2993 25.023 30.1959 25.042 30.092 25.0393C29.9915 25.0434 29.8912 25.0268 29.7975 24.9904C29.7037 24.954 29.6185 24.8986 29.5471 24.8278C29.4757 24.7569 29.4196 24.6721 29.3825 24.5786C29.3454 24.4851 29.3279 24.385 29.3313 24.2845C29.328 24.1798 29.3462 24.0756 29.3847 23.9783C29.4233 23.8809 29.4814 23.7925 29.5554 23.7184C29.6295 23.6444 29.7179 23.5863 29.8153 23.5478C29.9126 23.5092 30.0168 23.491 30.1215 23.4943C30.22 23.4918 30.3179 23.5095 30.4093 23.5464C30.5006 23.5833 30.5834 23.6386 30.6525 23.7088C30.7216 23.779 30.7756 23.8627 30.811 23.9546C30.8465 24.0465 30.8627 24.1448 30.8586 24.2432ZM29.7559 24.2078C29.7559 24.6206 29.9092 24.9155 30.1333 24.9155C30.3574 24.9155 30.434 24.7268 30.434 24.3258C30.434 23.9248 30.2689 23.6122 30.0743 23.6122C29.8797 23.6122 29.7382 23.8127 29.7382 24.2078H29.7559Z" fill="#888888"/>
<path d="M28.4397 26.2422V26.3306C28.2628 26.3306 28.2569 26.3306 28.2628 26.596V27.3567C28.2628 27.6103 28.2628 27.6162 28.4338 27.6339V27.7224H27.7262V27.6339C27.8972 27.6339 27.9031 27.6339 27.8972 27.3567V26.5665L27.4549 27.6988H27.3252L26.9064 26.6432V27.1444C26.9064 27.339 26.9064 27.4511 26.9064 27.5219C26.9064 27.5926 26.9654 27.628 27.1129 27.6398V27.7283H26.5231V27.6398C26.6352 27.6398 26.6765 27.6044 26.6941 27.5219C26.7118 27.4393 26.6941 27.3331 26.6941 27.1268L26.7236 26.6668C26.7236 26.3778 26.7236 26.3542 26.5408 26.3365V26.2422H27.0775L27.4726 27.1444L27.9149 26.2422H28.4397Z" fill="#888888"/>
<path d="M28.7883 26.6137C28.7883 26.366 28.7883 26.3542 28.6173 26.3365V26.2422H29.6847C29.6847 26.2835 29.6847 26.4486 29.6847 26.6196H29.5844C29.5765 26.5427 29.548 26.4694 29.5019 26.4073C29.4317 26.3629 29.3484 26.3442 29.266 26.3542H29.2306C29.1421 26.3542 29.1421 26.3542 29.1421 26.4368V26.8732H29.2542C29.4488 26.8732 29.4547 26.8732 29.4783 26.6904H29.5785V27.2211H29.4783C29.4783 27.0265 29.4488 27.0088 29.2542 27.0088H29.1421V27.4216C29.1421 27.5395 29.1421 27.5985 29.1834 27.6162C29.2359 27.6275 29.2902 27.6275 29.3426 27.6162C29.4293 27.6242 29.5158 27.5989 29.5844 27.5454C29.6356 27.4742 29.6736 27.3943 29.6965 27.3096H29.7967C29.7796 27.4471 29.752 27.5831 29.7142 27.7165H28.5347V27.628C28.7057 27.628 28.7234 27.5985 28.7234 27.3508L28.7883 26.6137Z" fill="#888888"/>
<path d="M30.623 27.6395H30.6938C30.7763 27.6395 30.7822 27.6041 30.7468 27.5216L30.6702 27.2916H30.2987L30.2279 27.5098C30.1984 27.61 30.1984 27.6336 30.3046 27.6395H30.3694V27.728H29.8387V27.6395C29.9566 27.6395 29.992 27.61 30.0628 27.4213L30.5168 26.2419L30.6761 26.2124L30.8294 26.637C30.9296 26.9083 31.024 27.1795 31.1125 27.4095C31.2009 27.6395 31.2245 27.6159 31.3365 27.6336V27.7221H30.623V27.6395ZM30.334 27.1441H30.623L30.4815 26.7137L30.334 27.1441Z" fill="#888888"/>
<path d="M22.6735 45.9916C22.6735 46.1082 22.6389 46.2222 22.5741 46.3192C22.5093 46.4162 22.4172 46.4917 22.3095 46.5364C22.2017 46.581 22.0831 46.5927 21.9687 46.5699C21.8543 46.5472 21.7493 46.491 21.6668 46.4085C21.5843 46.3261 21.5282 46.221 21.5054 46.1066C21.4827 45.9922 21.4943 45.8736 21.539 45.7659C21.5836 45.6581 21.6592 45.566 21.7562 45.5012C21.8531 45.4364 21.9672 45.4019 22.0838 45.4019C22.2402 45.4019 22.3902 45.464 22.5008 45.5746C22.6114 45.6852 22.6735 45.8352 22.6735 45.9916Z" fill="#888888"/>
<path d="M28.694 46.9823C28.694 47.0989 28.6594 47.2129 28.5946 47.3099C28.5298 47.4069 28.4377 47.4825 28.33 47.5271C28.2222 47.5717 28.1036 47.5834 27.9892 47.5607C27.8749 47.5379 27.7698 47.4817 27.6873 47.3993C27.6048 47.3168 27.5487 47.2117 27.5259 47.0973C27.5032 46.9829 27.5148 46.8644 27.5595 46.7566C27.6041 46.6489 27.6797 46.5568 27.7767 46.492C27.8736 46.4272 27.9877 46.3926 28.1043 46.3926C28.2607 46.3926 28.4107 46.4547 28.5213 46.5653C28.6319 46.6759 28.694 46.8259 28.694 46.9823Z" fill="#888888"/>
<path d="M25.2907 4.06896C25.2907 4.18559 25.2561 4.2996 25.1913 4.39658C25.1265 4.49356 25.0344 4.56914 24.9267 4.61378C24.8189 4.65841 24.7003 4.67009 24.5859 4.64734C24.4715 4.62458 24.3665 4.56842 24.284 4.48594C24.2015 4.40347 24.1454 4.29839 24.1226 4.184C24.0998 4.06961 24.1115 3.95104 24.1562 3.84328C24.2008 3.73553 24.2764 3.64343 24.3734 3.57863C24.4703 3.51383 24.5843 3.47925 24.701 3.47925C24.8574 3.47925 25.0074 3.54138 25.118 3.65197C25.2286 3.76256 25.2907 3.91256 25.2907 4.06896Z" fill="#888888"/>
<path d="M39.4215 9.62413C39.4215 9.74077 39.387 9.85478 39.3222 9.95176C39.2574 10.0487 39.1653 10.1243 39.0575 10.169C38.9498 10.2136 38.8312 10.2253 38.7168 10.2025C38.6024 10.1798 38.4973 10.1236 38.4149 10.0411C38.3324 9.95865 38.2762 9.85357 38.2535 9.73918C38.2307 9.62479 38.2424 9.50622 38.287 9.39846C38.3316 9.29071 38.4072 9.19861 38.5042 9.13381C38.6012 9.06901 38.7152 9.03442 38.8318 9.03442C38.9882 9.03442 39.1382 9.09655 39.2488 9.20715C39.3594 9.31774 39.4215 9.46773 39.4215 9.62413Z" fill="#888888"/>
<path d="M9.62949 35.1173C9.85017 35.4185 9.96989 35.7818 9.97152 36.1552C9.97152 36.5739 9.82999 36.91 9.08695 37.423L6.9463 38.9504L6.5512 38.3607L8.7803 36.7744C9.16361 36.509 9.32283 36.3203 9.32283 36.0195C9.31439 35.8068 9.24252 35.6014 9.11644 35.4298C9.0384 35.3062 8.93053 35.2041 8.80276 35.133C8.67499 35.0619 8.53141 35.0241 8.3852 35.0229C8.16111 35.0229 7.92522 35.1763 7.50063 35.4711L5.50152 36.8569L5.1123 36.2672L7.02886 34.9699C7.41074 34.6332 7.88174 34.4141 8.3852 34.3389C8.64075 34.3558 8.88813 34.4357 9.10525 34.5716C9.32237 34.7074 9.50248 34.8949 9.62949 35.1173Z" fill="#888888"/>
<path d="M2.7926 30.9303L6.87339 29.4973L7.09748 30.1165L4.76813 32.9707L7.71668 31.8031L7.93487 32.4046L3.90126 33.9496L3.67717 33.3363L6.02421 30.4821L3.0108 31.5318L2.7926 30.9303Z" fill="#888888"/>
<path d="M6.45689 27.0368L2.18707 27.6711L2.28846 28.3536L6.55828 27.7193L6.45689 27.0368Z" fill="#888888"/>
<path d="M2.05243 22.5329L2.07012 21.8193L6.32782 23.5472L6.30423 24.2607L1.92859 25.564V24.8445L5.47864 23.8538L2.05243 22.5329Z" fill="#888888"/>
<path d="M5.95257 12.8733C5.36286 12.8733 5.05621 13.2271 4.667 13.9289L4.15985 14.837L7.96348 16.901L8.29371 16.3113L6.71329 15.4503L6.80765 15.2793C7.07302 14.7957 7.16147 14.725 7.83964 14.7839L9.07213 14.8901L9.42595 14.2532L8.00476 14.1353C7.77667 14.0935 7.54289 14.0935 7.3148 14.1353C7.24205 14.1624 7.17277 14.198 7.1084 14.2414C7.13313 14.1669 7.14897 14.0897 7.15558 14.0114C7.15598 13.8915 7.13808 13.7722 7.1025 13.6576C7.00294 13.4013 6.81169 13.1911 6.56587 13.0679C6.3818 12.9509 6.17043 12.8838 5.95257 12.8733ZM5.18594 14.1824C5.43362 13.7225 5.61643 13.5456 5.8818 13.5515C6.005 13.5532 6.12612 13.5834 6.23563 13.6399C6.39144 13.7282 6.50907 13.8711 6.56587 14.0409C6.57451 14.1035 6.57451 14.167 6.56587 14.2296C6.53366 14.5113 6.43238 14.7808 6.27101 15.0139L6.18256 15.1732L4.96775 14.5186L5.18594 14.1824Z" fill="#888888"/>
<path d="M10.6738 6.77587L11.2222 6.35718L13.8464 9.78929L13.2921 10.208L10.6738 6.77587Z" fill="#888888"/>
<path d="M13.0421 5.09525L15.8373 3.63867L16.1085 4.16351L15.0235 4.72963L16.7454 8.03201L16.1321 8.35635L14.4102 5.04808L13.3133 5.6201L13.0421 5.09525Z" fill="#888888"/>
<path d="M20.0094 2.32355L20.7406 2.12305L20.1509 5.01262L20.6286 6.65202L19.9681 6.84072L19.5081 5.21312L17.4559 3.07248L18.1636 2.87198L19.6438 4.40522L20.0094 2.32355Z" fill="#888888"/>
<path d="M33.1836 8.2264L35.3773 4.51123L37.4354 5.72603L37.1405 6.23318L35.6663 5.36631L35.0589 6.3924L36.4447 7.2121L36.1498 7.70746L34.764 6.89366L33.7733 8.57433L33.1836 8.2264Z" fill="#888888"/>
<path d="M44.2731 17.8446L45.8418 15.9634L46.0895 16.7064L44.9159 18.0451L46.6556 18.4402L46.8856 19.136L44.509 18.564L42.8225 20.5867L42.5807 19.8555L43.8545 18.3694L41.9497 17.933L41.7138 17.2254L44.2731 17.8446Z" fill="#888888"/>
<path d="M43.0368 22.0847L47.3417 21.7368L47.5363 24.1192L46.9466 24.1664L46.8109 22.4622L45.6197 22.5624L45.7495 24.1664L45.1774 24.2136L45.0418 22.6096L43.0958 22.7688L43.0368 22.0847Z" fill="#888888"/>
<path d="M44.9394 25.9355C44.4683 25.9235 44.0056 26.0619 43.6185 26.3306C43.3764 26.508 43.1804 26.7409 43.047 27.0098C42.9136 27.2786 42.8467 27.5756 42.8518 27.8757C42.8518 29.3382 44.22 29.922 45.252 29.922C45.7172 29.9315 46.1735 29.7931 46.5552 29.5269C46.7993 29.3445 46.9962 29.1065 47.1296 28.8326C47.2629 28.5587 47.3288 28.2569 47.3218 27.9523C47.3218 26.6786 46.1483 25.9355 44.9394 25.9355ZM45.2815 29.2202C44.4382 29.2202 43.4592 28.7602 43.4592 27.917C43.4551 27.7244 43.4967 27.5336 43.5808 27.3603C43.6649 27.187 43.789 27.0362 43.9428 26.9204C44.2246 26.7254 44.5616 26.6262 44.904 26.6373C45.2052 26.6224 45.5058 26.6757 45.7835 26.7931C46.0612 26.9105 46.3089 27.0891 46.508 27.3155C46.6487 27.5044 46.7233 27.7345 46.7203 27.97C46.7239 28.1606 46.6813 28.3492 46.596 28.5197C46.5108 28.6902 46.3855 28.8375 46.2309 28.9489C45.951 29.1373 45.6186 29.2323 45.2815 29.2202Z" fill="#888888"/>
<path d="M42.4338 11.5645C41.9531 11.5735 41.4848 11.7187 41.0833 11.9831C40.7567 12.1703 40.4821 12.4361 40.2843 12.7564C40.0866 13.0767 39.9721 13.4413 39.9511 13.8171C39.953 14.1806 40.0572 14.5363 40.2519 14.8432C40.4224 15.1198 40.661 15.348 40.945 15.506C41.2289 15.6639 41.5486 15.7464 41.8735 15.7455C42.3574 15.7288 42.8271 15.5777 43.2299 15.3091C43.5547 15.1249 43.8281 14.8621 44.0249 14.5447C44.2217 14.2274 44.3356 13.8657 44.3562 13.4928C44.3531 12.9833 44.1498 12.4955 43.7901 12.1347C43.4304 11.7739 42.9432 11.5691 42.4338 11.5645ZM41.7615 15.1027C41.565 15.1066 41.3709 15.0585 41.199 14.9632C41.0271 14.8679 40.8834 14.7289 40.7826 14.5602C40.6685 14.3842 40.6052 14.1801 40.5998 13.9705C40.6119 13.6819 40.6987 13.4014 40.8517 13.1564C41.0046 12.9115 41.2186 12.7104 41.4725 12.5729C41.7904 12.3574 42.1621 12.2348 42.5458 12.219C42.7426 12.2139 42.9371 12.2615 43.1092 12.3569C43.2813 12.4523 43.4248 12.592 43.5247 12.7616C43.6527 12.9558 43.7204 13.1835 43.7193 13.4161C43.6991 13.6858 43.6105 13.9459 43.462 14.1718C43.3134 14.3978 43.1097 14.5822 42.8701 14.7076C42.5422 14.9319 42.1584 15.0606 41.7615 15.0791V15.1027Z" fill="#888888"/>
<path d="M30.6623 2.65381C30.1891 2.67008 29.7351 2.84448 29.3727 3.14914C29.0103 3.4538 28.7605 3.87115 28.6632 4.33448C28.5924 4.56384 28.5546 4.80212 28.5511 5.04213C28.5364 5.42311 28.6218 5.80129 28.7988 6.13899C28.9661 6.43857 29.211 6.68757 29.5078 6.85982C29.8046 7.03207 30.1422 7.12122 30.4854 7.11791C30.7965 7.12071 31.1031 7.04355 31.3758 6.89382C31.7435 6.65656 32.0447 6.3296 32.251 5.94373C32.4574 5.55787 32.5621 5.12582 32.5552 4.68831C32.5656 4.31974 32.4825 3.95454 32.3135 3.62683C32.1488 3.33319 31.9092 3.08844 31.6192 2.91752C31.3291 2.74659 30.9989 2.6556 30.6623 2.65381ZM30.4382 6.50461C30.2324 6.50337 30.0305 6.44828 29.8525 6.34483C29.6746 6.24138 29.5268 6.09316 29.4239 5.9149C29.3012 5.67625 29.2404 5.41063 29.247 5.14238C29.247 4.36986 29.76 3.2848 30.7036 3.2848C30.8733 3.29018 31.04 3.33075 31.1932 3.40392C31.3465 3.47709 31.4828 3.58128 31.5937 3.70988C31.7046 3.83849 31.7875 3.98871 31.8373 4.15104C31.8871 4.31337 31.9027 4.48427 31.883 4.65292C31.8948 5.26622 31.4525 6.5223 30.4382 6.5223V6.50461Z" fill="#888888"/>
<path d="M6.75163 18.328L7.32954 18.4931L6.67497 20.8637L2.49982 19.7197L3.21337 17.3196L3.77949 17.4788L3.25465 19.2066L4.40458 19.5251L4.85276 17.9565L5.40709 18.1098L4.96481 19.6784L6.26807 20.0322L6.75163 18.328Z" fill="#888888"/>
<path d="M7.86487 9.30551C8.00636 9.12415 8.18456 8.97472 8.38781 8.867C8.59106 8.75928 8.81477 8.6957 9.04429 8.68042L9.15043 9.27013C8.82394 9.29813 8.52133 9.45262 8.30715 9.70062C8.16243 9.84307 8.07618 10.0345 8.06537 10.2373C8.06406 10.3052 8.07764 10.3726 8.10515 10.4347C8.13265 10.4969 8.17342 10.5523 8.22459 10.597C8.52534 10.8623 9.03839 10.597 9.35683 10.4378C9.65336 10.2986 9.97346 10.2166 10.3004 10.196C10.5877 10.193 10.8655 10.2983 11.0788 10.4908C11.2138 10.6018 11.3224 10.7413 11.3969 10.8994C11.4713 11.0575 11.5097 11.2301 11.5093 11.4049C11.5035 11.7862 11.349 12.1501 11.0788 12.4192C10.7419 12.7916 10.2847 13.0338 9.78732 13.1032L9.63989 12.5135C10.0055 12.4556 10.3438 12.2844 10.607 12.0241C10.7494 11.8758 10.8332 11.681 10.8429 11.4756C10.842 11.3929 10.8236 11.3113 10.7891 11.2361C10.7545 11.1609 10.7046 11.0939 10.6424 11.0393C10.59 10.9941 10.5291 10.9599 10.4632 10.9386C10.3974 10.9174 10.328 10.9095 10.2591 10.9154C9.95246 10.9532 9.65497 11.045 9.38043 11.1867C8.84969 11.4049 8.30125 11.5759 7.8059 11.1336C7.6854 11.0334 7.58817 10.9082 7.52095 10.7667C7.45374 10.6251 7.41816 10.4706 7.41669 10.3139C7.43575 9.93381 7.5955 9.57437 7.86487 9.30551Z" fill="#888888"/>
<path d="M41.8944 31.5497L43.522 32.2868L43.4454 32.4696C43.2213 32.9709 43.1387 33.0593 42.4547 33.0593H41.2222L40.9273 33.7257H42.3485C42.5809 33.7435 42.8145 33.7195 43.0385 33.655C43.1064 33.6333 43.1688 33.5971 43.2213 33.5488C43.2189 33.5861 43.2189 33.6235 43.2213 33.6608C43.2205 33.8166 43.2506 33.9709 43.3097 34.1149C43.4151 34.3196 43.5749 34.4913 43.7715 34.6109C43.9682 34.7306 44.1941 34.7936 44.4243 34.7931C45.1143 34.7931 45.3737 34.3803 45.7099 33.6137L46.1109 32.6878L42.1834 30.9187L41.8944 31.5497ZM44.442 34.109C44.3029 34.1081 44.1673 34.0662 44.0519 33.9885C43.9365 33.9109 43.8466 33.8011 43.7933 33.6726C43.7635 33.5934 43.7475 33.5096 43.7461 33.425C43.7761 33.1671 43.8541 32.917 43.9761 32.6878L44.0528 32.5227L45.2971 33.077L45.1555 33.4132C44.9255 33.9085 44.7722 34.0795 44.4243 34.0795L44.442 34.109Z" fill="#888888"/>
<path d="M39.6171 35.6009C39.1617 36.0603 38.8838 36.6662 38.8328 37.311C38.8416 37.6387 38.9254 37.9601 39.0777 38.2504C39.23 38.5407 39.4468 38.7923 39.7114 38.9858C40.0978 39.3128 40.5853 39.4961 41.0914 39.5047C41.6811 39.5047 42.1764 39.3219 42.9195 38.3843L43.6035 37.5292L40.2304 34.8342L39.6171 35.6009ZM41.1562 38.8501C40.7868 38.84 40.4332 38.6977 40.1596 38.4491C39.9569 38.3103 39.7884 38.1272 39.6669 37.9137C39.5453 37.7002 39.4738 37.4618 39.4579 37.2167C39.4971 36.7947 39.6803 36.399 39.9768 36.0962L40.2599 35.7365L42.7249 37.7061L42.5362 37.942C42.0644 38.514 41.7695 38.8501 41.1562 38.8501Z" fill="#888888"/>
<path d="M49.4597 24.6912C49.4699 20.4249 48.3763 16.2285 46.2851 12.5098C44.194 8.79112 41.1765 5.67659 37.5258 3.46887C33.8752 1.26115 29.7155 0.0353138 25.451 -0.0895079C21.1865 -0.21433 16.9622 0.766104 13.1887 2.75652C9.4151 4.74693 6.22059 7.67964 3.91554 11.2697C1.6105 14.8597 0.273304 18.9849 0.0339072 23.2445C-0.20549 27.5041 0.661053 31.7532 2.54932 35.5789C4.4376 39.4046 7.28338 42.6768 10.8101 45.0775C11.0204 45.8674 11.3952 46.604 11.91 47.239C12.4248 47.874 13.0679 48.393 13.7973 48.7622C14.5266 49.1313 15.3257 49.3422 16.1423 49.3809C16.9588 49.4197 17.7743 49.2856 18.5353 48.9872C19.4435 49.2887 20.3691 49.5349 21.307 49.7244C21.0401 50.4478 20.7023 51.1431 20.2986 51.8001L20.8116 52.3132C20.9448 52.2377 21.0949 52.1972 21.248 52.1953C21.4936 52.1953 21.729 52.2928 21.9027 52.4664C22.0763 52.6401 22.1739 52.8756 22.1739 53.1211C22.1739 53.3666 22.0763 53.6021 21.9027 53.7758C21.729 53.9494 21.4936 54.0469 21.248 54.0469C21.0408 54.0375 20.8387 53.9791 20.6583 53.8766C20.4779 53.7742 20.3243 53.6304 20.2101 53.4572C20.131 53.7735 20.0914 54.0983 20.0922 54.4244C20.0922 56.1935 22.0264 58.2221 24.7096 59.0772C27.3928 58.2398 29.327 56.1994 29.327 54.4244C29.3346 54.0976 29.2929 53.7715 29.2032 53.4572C29.0857 53.6286 28.9306 53.7709 28.7497 53.8731C28.5687 53.9753 28.3668 54.0348 28.1594 54.0469C28.0159 54.0473 27.8742 54.0143 27.7456 53.9506C27.617 53.8868 27.505 53.794 27.4184 53.6795C27.3318 53.565 27.273 53.4319 27.2467 53.2908C27.2204 53.1497 27.2273 53.0044 27.2668 52.8664C27.3063 52.7283 27.3773 52.6014 27.4743 52.4956C27.5713 52.3897 27.6916 52.3079 27.8256 52.2565C27.9597 52.2052 28.1038 52.1857 28.2467 52.1996C28.3896 52.2136 28.5273 52.2605 28.6489 52.3368L29.1442 51.8355C28.882 51.2231 28.6709 50.5899 28.5132 49.9426C32.7899 49.44 36.7549 47.4534 39.7177 44.3285C42.7561 42.0377 45.2186 39.0701 46.9097 35.6613C48.6008 32.2525 49.4739 28.4964 49.4597 24.6912ZM16.436 48.6924C15.5526 48.6891 14.6851 48.4568 13.9184 48.0181C13.1516 47.5793 12.5118 46.9492 12.0614 46.1892C11.611 45.4293 11.3654 44.5654 11.3487 43.6822C11.332 42.799 11.5447 41.9265 11.966 41.15C12.2255 41.3859 12.5085 41.6336 12.7975 41.8812C12.542 42.4194 12.4091 43.0075 12.4083 43.6032C12.4105 44.3588 12.6201 45.0993 13.0142 45.744C13.4083 46.3887 13.9718 46.9129 14.6433 47.2594C15.5369 47.7795 16.4718 48.2252 17.4385 48.5921C17.0987 48.6601 16.753 48.6937 16.4065 48.6924H16.436ZM24.7568 41.262C23.708 41.2624 22.6615 41.1636 21.6313 40.9672C21.1405 40.0111 20.3962 39.2084 19.48 38.6468C18.5637 38.0852 17.5107 37.7863 16.436 37.7828C15.9135 37.7854 15.3937 37.8588 14.8909 38.0009C11.7288 35.6551 9.50563 32.2597 8.61994 28.4234C7.73426 24.5871 8.24399 20.5607 10.0578 17.0661C11.8715 13.5716 14.8707 10.8373 18.5177 9.35349C22.1646 7.8697 26.2208 7.73343 29.9591 8.9691C33.6974 10.2048 36.8734 12.7316 38.9176 16.0966C40.9618 19.4615 41.7406 23.4446 41.1144 27.3317C40.4882 31.2188 38.4979 34.7558 35.5004 37.3086C32.5028 39.8613 28.694 41.2629 24.7568 41.262ZM28.4425 41.5569C27.9274 42.3669 27.6252 43.2939 27.5638 44.2519C26.111 43.8708 24.6943 43.3637 23.3297 42.7363C23.488 42.5019 23.7002 42.3089 23.9485 42.1735C24.1968 42.038 24.474 41.9641 24.7568 41.9579C25.9857 41.961 27.2114 41.8325 28.413 41.5746L28.4425 41.5569ZM23.1882 41.8812C22.9881 42.0333 22.8181 42.2213 22.6869 42.4356C22.0618 42.1289 21.2775 41.7397 20.7644 41.4507C21.5536 41.6403 22.353 41.784 23.1587 41.8812H23.1882ZM16.436 38.4786C17.2749 38.4829 18.0999 38.6927 18.8391 39.0895C19.5782 39.4863 20.2089 40.0581 20.676 40.7549C19.8521 40.5468 19.0457 40.2747 18.2641 39.9411C17.4018 39.5417 16.4281 39.4521 15.5073 39.6874C14.5866 39.9227 13.7753 40.4685 13.2103 41.2326C12.8977 41.0615 12.5852 40.8787 12.2785 40.69C12.7382 40.0168 13.3534 39.4643 14.072 39.0793C14.7906 38.6944 15.5914 38.4883 16.4065 38.4786H16.436ZM28.1653 51.4994C27.9475 51.4913 27.7304 51.5278 27.5272 51.6068C27.3241 51.6857 27.1392 51.8053 26.984 51.9583C26.8288 52.1113 26.7065 52.2944 26.6247 52.4964C26.5429 52.6984 26.5032 52.915 26.5082 53.1329C26.5049 53.3503 26.5457 53.5662 26.6282 53.7674C26.7106 53.9686 26.8329 54.151 26.9878 54.3037C27.1426 54.4563 27.3268 54.576 27.5292 54.6556C27.7315 54.7351 27.9479 54.7728 28.1653 54.7664C28.2986 54.764 28.4312 54.7462 28.5604 54.7133C28.3717 56.0814 26.7913 57.6206 24.7155 58.3046C22.6692 57.6206 21.077 56.0755 20.8647 54.7133C20.9913 54.7491 21.1223 54.767 21.2539 54.7664C21.4728 54.778 21.6918 54.7439 21.8968 54.6663C22.1019 54.5887 22.2885 54.4693 22.4449 54.3157C22.6013 54.162 22.724 53.9775 22.8053 53.7739C22.8865 53.5703 22.9246 53.352 22.9169 53.1329C22.9169 52.7017 22.7464 52.288 22.4426 51.982C22.1388 51.676 21.7264 51.5025 21.2952 51.4994C21.5885 50.9769 21.8371 50.4304 22.0382 49.8659C23.1222 50.063 24.2212 50.1656 25.3229 50.1726C26.1541 50.1717 26.9847 50.1284 27.8115 50.0428C27.9308 50.5397 28.0825 51.0282 28.2656 51.5053L28.1653 51.4994ZM25.3229 49.4767C21.7129 49.3971 18.1775 48.4332 15.0266 46.6697C14.4639 46.3772 13.9912 45.9375 13.6589 45.3975C13.3265 44.8574 13.147 44.2373 13.1395 43.6032C13.1386 43.1791 13.2187 42.7588 13.3754 42.3648C14.2677 43.1337 15.2202 43.8298 16.2237 44.4465C16.3446 44.5258 16.4849 44.5706 16.6294 44.5762C16.7739 44.5818 16.9172 44.5479 17.0439 44.4782C17.1707 44.4085 17.276 44.3055 17.3486 44.1805C17.4212 44.0554 17.4584 43.9129 17.4562 43.7683C17.4599 43.6101 17.4157 43.4545 17.3294 43.3219C17.2431 43.1893 17.1188 43.0859 16.9726 43.0253C16.3829 42.7658 15.1504 42.2586 13.8236 41.5687C14.1345 41.1556 14.5371 40.8202 14.9996 40.5889C15.4621 40.3577 15.972 40.2369 16.4891 40.2359C16.9807 40.234 17.4664 40.3428 17.9102 40.5544L18.8243 41.0851C21.7139 42.8543 29.1442 47.3773 38.1196 44.8888C34.6816 47.9611 30.4888 49.4767 25.2934 49.4767H25.3229ZM39.2459 43.8096C35.7233 45.0503 31.9187 45.2549 28.2832 44.3993C28.3835 42.9722 28.9791 41.4507 29.8814 41.1618C33.5815 40.0176 36.7913 37.6659 38.9973 34.4825C41.2034 31.2992 42.2784 27.4681 42.0505 23.6017C41.8226 19.7354 40.3049 16.0571 37.7401 13.155C35.1752 10.2529 31.7114 8.29457 27.9024 7.5931C24.0935 6.89164 20.1592 7.48755 16.7288 9.28557C13.2985 11.0836 10.57 13.9799 8.97966 17.5114C7.38934 21.0428 7.02902 25.0056 7.95632 28.766C8.88362 32.5264 11.045 35.8673 14.0948 38.2545C13.112 38.6882 12.2674 39.3839 11.6534 40.2654C11.335 40.0531 11.0637 39.829 10.7512 39.5991L10.592 39.7583C10.7807 39.9824 11.0755 40.2831 11.4234 40.6193C10.893 41.5112 10.6138 42.5301 10.6155 43.5678C10.6155 43.7329 10.6155 43.898 10.6155 44.0632C6.53754 41.0938 3.49935 36.9145 1.93289 32.1194C0.366427 27.3243 0.351414 22.1574 1.88999 17.3533C3.42856 12.5491 6.44242 8.35224 10.5031 5.35927C14.5638 2.3663 19.4646 0.729552 24.5089 0.681719C29.5531 0.633886 34.4841 2.1774 38.6008 5.09283C42.7175 8.00826 45.8104 12.1472 47.4398 16.9213C49.0692 21.6954 49.1522 26.8617 47.6769 31.6856C46.2017 36.5096 43.2433 40.7458 39.2224 43.7919L39.2459 43.8096Z" fill="#888888"/>
<path d="M25.2907 74.4332C25.2907 74.5498 25.2561 74.6639 25.1913 74.7608C25.1265 74.8578 25.0344 74.9334 24.9267 74.978C24.8189 75.0227 24.7003 75.0343 24.5859 75.0116C24.4715 74.9888 24.3665 74.9327 24.284 74.8502C24.2015 74.7677 24.1454 74.6626 24.1226 74.5483C24.0998 74.4339 24.1115 74.3153 24.1562 74.2075C24.2008 74.0998 24.2764 74.0077 24.3734 73.9429C24.4703 73.8781 24.5843 73.8435 24.701 73.8435C24.8574 73.8435 25.0074 73.9056 25.118 74.0162C25.2286 74.1268 25.2907 74.2768 25.2907 74.4332Z" fill="#888888"/>
<path d="M80.3976 38.7736C80.4251 40.2844 80.1467 41.7851 79.5792 43.1855C79.0116 44.5859 78.1667 45.8571 77.0952 46.9225C76.0237 47.9879 74.7478 48.8256 73.3442 49.3852C71.9406 49.9447 70.4383 50.2146 68.9277 50.1786C62.4409 50.1786 57.4579 45.3253 57.4579 39.0154C57.4296 37.5041 57.7074 36.0027 58.2746 34.6017C58.8417 33.2006 59.6865 31.9287 60.7581 30.8626C61.8297 29.7966 63.1059 28.9584 64.5099 28.3984C65.9139 27.8385 67.4166 27.5684 68.9277 27.6045C75.4204 27.6045 80.3976 32.4637 80.3976 38.7736ZM76.7532 38.8974C76.7532 32.8883 73.84 28.6955 68.9277 28.6955C63.585 28.6955 61.0964 33.7316 61.0964 38.8974C61.0964 44.8948 64.0096 49.0817 68.9277 49.0817C74.2646 49.0817 76.7532 44.0574 76.7532 38.8974Z" fill="#888888"/>
<path d="M150.416 38.7736C150.444 40.2839 150.165 41.7841 149.598 43.1841C149.031 44.5841 148.187 45.855 147.116 46.9203C146.045 47.9857 144.77 48.8235 143.367 49.3834C141.964 49.9433 140.462 50.2138 138.952 50.1786C132.465 50.1786 127.482 45.3253 127.482 39.0154C127.454 37.5041 127.732 36.0027 128.299 34.6017C128.866 33.2006 129.711 31.9287 130.783 30.8626C131.854 29.7966 133.13 28.9584 134.534 28.3984C135.938 27.8385 137.441 27.5684 138.952 27.6045C145.445 27.6045 150.416 32.4637 150.416 38.7736ZM146.778 38.8974C146.778 32.8883 143.865 28.6955 138.952 28.6955C133.609 28.6955 131.121 33.7316 131.121 38.8974C131.121 44.8948 134.034 49.0817 138.952 49.0817C144.289 49.0817 146.778 44.0574 146.778 38.8974Z" fill="#888888"/>
<path d="M159.281 39.0096H162.011C166.139 39.0096 167.047 36.4089 167.047 33.9145C167.092 32.9718 166.85 32.0378 166.351 31.2363C165.853 30.4348 165.123 29.8037 164.258 29.4268C163.186 29.0576 162.05 28.9131 160.92 29.0022H159.281V39.0096ZM164.317 42.5478C163.043 40.7256 162.548 40.0592 160.979 40.0592H159.281V47.4719C159.281 48.0616 159.523 48.3741 160.189 48.5039L162.678 49.0464V49.8307H152.93V49.0346L155.176 48.4921C155.843 48.3093 156.085 48.0675 156.085 47.4601V30.3585C156.085 29.7688 155.843 29.5093 155.176 29.3265L152.93 28.7545V27.9702H162.459C164 27.9002 165.54 28.0997 167.012 28.5599C168.089 28.9729 169.017 29.6996 169.676 30.6458C170.335 31.592 170.695 32.7142 170.709 33.8673C170.709 36.5387 168.71 38.7855 165.373 39.5698V39.6936C166.039 40.0003 166.404 40.419 168.769 43.5208L171.718 47.4601C171.903 47.7432 172.144 47.9858 172.426 48.1733C172.708 48.3608 173.024 48.4893 173.357 48.551L175.539 49.0346V49.8307H170.326C169.736 49.8307 169.412 49.642 168.869 48.9108L164.317 42.5478Z" fill="#888888"/>
<path d="M121.537 35.4298H122.445V42.7186H121.537L120.988 40.5308C120.944 40.2035 120.774 39.9064 120.514 39.7027C120.254 39.4989 119.925 39.4046 119.597 39.4399H114.289V47.4717C114.289 48.0614 114.537 48.3799 115.203 48.5037L117.692 49.0462V49.8305H107.944V49.0344L110.191 48.4919C110.857 48.3091 111.099 48.0673 111.099 47.4599V30.3583C111.099 29.7686 110.857 29.5091 110.191 29.3322L107.944 28.7838V27.9641H124.456V33.4366H123.542L122.516 30.1519C122.274 29.3086 121.926 29.002 121.177 29.002H114.313V38.402H119.62C119.947 38.4298 120.273 38.3328 120.531 38.1303C120.789 37.9279 120.961 37.6351 121.012 37.311L121.537 35.4298Z" fill="#888888"/>
<path d="M177.305 49.8305V49.0344L179.545 48.4919C180.218 48.3091 180.46 48.0673 180.46 47.4599V30.3583C180.46 29.7686 180.218 29.5091 179.545 29.3322L177.305 28.7838V27.97H187.56C190.349 27.97 192.354 28.3297 193.993 29.0609C198.121 30.9421 200.003 35.0052 200.003 39.0094C200.003 42.9014 198.54 46.5341 194.843 48.4801C193.144 49.3942 190.774 49.8187 187.683 49.8187L177.305 49.8305ZM183.673 29.0138V47.8196C183.673 48.6157 183.856 48.7986 184.646 48.7986H187.318C189.865 48.7986 191.747 48.427 193.079 47.4599C195.326 45.8264 196.358 42.8543 196.358 39.086C196.358 35.3178 195.326 31.7441 192.295 29.9868C191.021 29.2555 189.382 29.0138 186.828 29.0138H183.673Z" fill="#888888"/>
<path d="M88.9468 49.0226V49.8305H81.2452V49.0344L83.1853 48.5568C83.8433 48.4287 84.4405 48.0866 84.8837 47.5837L91.5593 39.2158L84.8837 30.3701C84.4924 29.8148 83.9077 29.4257 83.2443 29.2791L81.4221 28.7956V27.97H91.0108V28.7602L88.9468 29.1789C88.2215 29.3086 88.4043 29.6094 88.764 30.0929L93.6822 37.1341H93.8002L98.8422 30.0929C99.2019 29.6094 99.3258 29.4266 98.6594 29.2437L96.7134 28.7602V27.97H104.421V28.7602L102.481 29.2437C101.823 29.3681 101.225 29.7084 100.782 30.2109L94.4724 38.1661L101.508 47.4717C101.902 48.0256 102.485 48.4158 103.147 48.5686L104.969 49.0462V49.8305H95.3806V49.0344L97.4446 48.6157C98.1699 48.4919 98.0343 48.2501 97.6864 47.7607L92.3436 40.236H92.2256L86.8239 47.7076C86.4582 48.1911 86.3403 48.3681 87.0067 48.5568L88.9468 49.0226Z" fill="#888888"/>
<path d="M65.9691 17.6853C65.598 18.0318 65.1606 18.2998 64.6833 18.4731C64.206 18.6464 63.6986 18.7214 63.1916 18.6937C62.1541 18.7301 61.1439 18.3573 60.3787 17.6558C59.441 16.7122 59.4823 15.5092 59.4823 14.2237V8.14966H60.7207V14.6777C60.7207 15.5033 60.7207 16.3053 61.3104 16.9481C61.833 17.4134 62.5162 17.6566 63.2152 17.6263C63.5383 17.6404 63.861 17.5904 64.1647 17.479C64.4683 17.3677 64.7469 17.1973 64.9843 16.9776C65.6979 16.27 65.6566 15.4974 65.6566 13.6222V8.14966H66.8714V13.3037C66.8891 15.2616 66.9716 16.6828 65.9691 17.6853Z" fill="#888888"/>
<path d="M76.9605 18.4991L71.9775 10.019L72.007 18.4991H70.8688V8.14966H72.1426L77.1433 16.6828L77.1139 8.14966H78.252V18.4991H76.9605Z" fill="#888888"/>
<path d="M83.8124 8.14966H82.5681V18.4991H83.8124V8.14966Z" fill="#888888"/>
<path d="M91.557 18.4991H90.1299L86.5621 8.14966H87.8595L90.8788 17.2843L93.9866 8.14966H95.1896L91.557 18.4991Z" fill="#888888"/>
<path d="M98.003 18.4991V8.14966H103.629V9.18165H99.2237V12.5961H103.357V13.6045H99.2237V17.4376H103.753V18.4991H98.003Z" fill="#888888"/>
<path d="M111.649 9.73008C111.059 9.14037 110.287 9.14037 109.444 9.14037H108.294V13.003H108.706C109.75 13.003 110.877 13.0619 111.59 12.3484C111.914 11.9927 112.099 11.5316 112.11 11.0503C112.121 10.569 111.957 10.1 111.649 9.73008ZM112.781 18.5227L111.602 15.8395C110.865 14.1883 110.529 14.0173 109.031 14.0173H108.305V18.5227H107.085V8.14966H109.29C110.67 8.14966 111.714 8.14966 112.528 8.95166C112.794 9.22475 113.004 9.54877 113.142 9.90439C113.281 10.26 113.347 10.64 113.336 11.0215C113.359 11.6723 113.128 12.3066 112.693 12.7907C112.248 13.2445 111.661 13.5318 111.03 13.6045C111.357 13.6342 111.663 13.7807 111.891 14.0173C112.233 14.4298 112.5 14.8988 112.681 15.4031L114.055 18.4873L112.781 18.5227Z" fill="#888888"/>
<path d="M127.387 8.14966H126.142V18.4991H127.387V8.14966Z" fill="#888888"/>
<path d="M134.488 9.18165V18.4991H133.238V9.18165H130.166V8.14966H137.555V9.18165H134.488Z" fill="#888888"/>
<path d="M143.511 14.4065V18.4991H142.279V14.4065L138.994 8.14966H140.415L142.969 13.003L145.445 8.14966H146.796L143.511 14.4065Z" fill="#888888"/>
<path d="M158.401 9.01103C156.372 9.01103 155.057 10.7212 155.057 13.3041C155.057 15.887 156.519 17.6267 158.465 17.6267C160.63 17.6267 161.833 15.7868 161.833 13.2216C161.833 10.6563 160.411 9.01103 158.401 9.01103ZM158.401 18.6941C155.717 18.6941 153.76 16.4827 153.76 13.3867C153.76 10.2907 155.7 7.97314 158.477 7.97314C161.255 7.97314 163.101 10.1669 163.101 13.2805C163.101 16.3942 161.184 18.6941 158.406 18.6941H158.401Z" fill="#888888"/>
<path d="M167.761 9.18165V12.5961H171.765V13.6045H167.761V18.4991H166.528V8.14966H172.024V9.18165H167.761Z" fill="#888888"/>
<path d="M116.555 10.6737C116.555 9.08149 117.835 7.95515 119.705 7.95515C120.234 7.92575 120.764 8.00588 121.261 8.19055C121.758 8.37522 122.212 8.66045 122.594 9.02842L122.004 9.76556C121.376 9.26776 120.601 8.99014 119.799 8.97535C118.484 8.97535 117.753 9.66531 117.753 10.6029C117.75 10.8029 117.792 11.001 117.875 11.1827C117.959 11.3643 118.082 11.5249 118.236 11.6526C118.671 11.9884 119.152 12.2604 119.663 12.4605C120.5 12.7627 121.273 13.2165 121.945 13.7992C122.194 14.0427 122.391 14.3336 122.525 14.6548C122.658 14.9759 122.726 15.3207 122.724 15.6685C122.724 17.3905 121.544 18.6997 119.38 18.6997C118.25 18.7072 117.153 18.3144 116.284 17.591L116.874 16.7477C117.593 17.261 118.436 17.5725 119.315 17.65C120.872 17.65 121.456 16.7949 121.456 15.7629C121.453 15.5393 121.403 15.3188 121.31 15.1156C121.216 14.9125 121.081 14.7312 120.913 14.5835C120.337 14.1208 119.693 13.7508 119.003 13.4866C118.32 13.2141 117.696 12.8138 117.163 12.3072C116.759 11.8602 116.542 11.2758 116.555 10.6737Z" fill="#888888"/>
</g>
<defs>
<clipPath id="clip0">
<rect width="200" height="75.0287" fill="white"/>
</clipPath>
</defs>
</svg>
